<svg xmlns="http://www.w3.org/2000/svg" viewBox="0 0 1366 182.23"><defs><style>.cls-1{fill:#064e97;}.cls-2{fill:#87ba36;}.cls-3{fill:#1d4895;}.cls-4{fill:#fdfdfb;}.cls-5{fill:#fafcf7;}.cls-6{fill:#fcfcfd;}.cls-7{fill:#fafbfd;}.cls-8{fill:#f9f9fc;}.cls-9{fill:#8bbb3b;}.cls-10{fill:#8bbb38;}.cls-11{fill:#87ba39;}.cls-12{fill:#8dbc3d;}.cls-13{fill:#244a96;}.cls-14{fill:#214c98;}.cls-15{fill:#1e4a96;}.cls-16{fill:#254c98;}.cls-17{fill:#6f80ba;}</style></defs><title>Varlık 2</title><g id="katman_2" data-name="katman 2"><g id="katman_1-2" data-name="katman 1"><path class="cls-1" d="M0,182.23s601-34,683-84c0,0,290,79,683,84Z"/><path class="cls-2" d="M673,6.53a15.26,15.26,0,0,0,.63,1.64,11.57,11.57,0,0,0,1.5-.56A11.78,11.78,0,0,0,674.58,6L673,6.53ZM636.82,32.26c.51.37.9.77,1.4,1.08l1-1.24a6.1,6.1,0,0,0-1.38-1.1l-1,1.26Zm-1.6,2,1-1.28a14.77,14.77,0,0,1,1.33,1,5.12,5.12,0,0,1-1,1.28s-.08,0-.1,0l-1.28-1Zm-7.73,16.28a14.57,14.57,0,0,0-1.54-.74,10.5,10.5,0,0,0-.68,1.47,5.63,5.63,0,0,0,1.56.71,9.79,9.79,0,0,0,.66-1.43ZM627,47.45a11.19,11.19,0,0,0-.66,1.35.53.53,0,0,0,0,.18,16.59,16.59,0,0,0,1.53.68,15.12,15.12,0,0,0,.66-1.47,15.56,15.56,0,0,0-1.53-.74Zm150.11,67.83c.17-.56.42-1,.55-1.56l-1.58-.61a11.57,11.57,0,0,0-.61,1.54,15.21,15.21,0,0,0,1.64.64Zm-.73-3.05a13.29,13.29,0,0,0,1.58.62,5.3,5.3,0,0,0,.6-1.55c-.51-.19-1-.42-1.57-.58a15.2,15.2,0,0,0-.61,1.51ZM738.22,10.75a6.45,6.45,0,0,0-.81,1.56,11.58,11.58,0,0,0,1.43.73,11.39,11.39,0,0,0,.77-1.55l-1.39-.74Zm42.65,83.09a12.39,12.39,0,0,0-.19,1.59,7.1,7.1,0,0,0,1.72.21c0-.26.09-.52.1-.79a1.86,1.86,0,0,0,0-.82c-.55-.06-1.08-.17-1.67-.18Zm.3-2.58c0,.33-.08.6-.11.87a1.65,1.65,0,0,0,0,.82c.55,0,1.08.18,1.66.16a9.94,9.94,0,0,0,.2-1.63l-1.72-.21ZM673.64,9.05l.88,2.58.85,2.47c.29.84.57,1.68.87,2.52s.55,1.68.89,2.52c.68-.24,1.34-.43,2-.71,0-.14-.06-.26-.11-.38L675.78,8.7c0-.11-.1-.22-.16-.34l-2,.69Zm63.12,3.85,1.79,1c.07.22-.06.35-.13.49l-2.88,5.44-1.61,3c-.08.16-.17.31-.26.46a7.82,7.82,0,0,1-1.86-.94c0-.2.13-.36.22-.53q2.15-4.07,4.31-8.13l.41-.78ZM688.5,154.15a2.09,2.09,0,0,1,0,.22l-.71,4.46c-.12.73-.24,1.47-.35,2.2,0,.15-.1.32,0,.49.64.11,1.29.24,2,.3a2.07,2.07,0,0,0,.07-.28q.79-5,1.58-10a.27.27,0,0,0,0-.1,4.62,4.62,0,0,0-1.5-.24l-.17.32a1.78,1.78,0,0,1-1.22.91,3.39,3.39,0,0,1-1.14,0l-.33,0a6.94,6.94,0,0,0-.23,1.34c.67.2,1.35.19,2,.39Zm83.2-70.63.56,0,7.78-.13h.16l.3-.05a8,8,0,0,0-.06-2.07c-.6-.07-8.07,0-10.28.15l-.24,0a.47.47,0,0,0-.05.12c0,.15,0,.29,0,.44q.06,2.61.11,5.22s0,0,0,0l.06.07c.25,0,.52,0,.79,0a2.49,2.49,0,0,0,.86-.07c0-.44,0-.85,0-1.27s0-.8,0-1.2a11.92,11.92,0,0,1,0-1.27ZM710.85,4.87c-.18.7-1.65,10.08-1.65,10.55,1.83.32,3.68.59,5.51.89a1.45,1.45,0,0,0,.26,0,5,5,0,0,0,.24-1.7c-1.19-.23-2.41-.36-3.63-.61,0-.14,0-.25,0-.35.15-.95.3-1.9.45-2.85l.83-5.27a2.33,2.33,0,0,0,0-.33l-2-.33Zm-75.8,34a10.36,10.36,0,0,0-1.2,2l.86,1.11c.29.37.59.74.87,1.12a8.15,8.15,0,0,1,.85,1.18l-4.14-1a1.17,1.17,0,0,0-.15.17l-1,1.62a1.46,1.46,0,0,0-.09.26l2.78.44,3.71.58a1.78,1.78,0,0,1,.7.27L641,48.31l.46.27a8.76,8.76,0,0,0,1.12-1.81l-.45-.29c-.89-.56-1.78-1.12-2.68-1.68a2,2,0,0,1-.62-.59c-1.13-1.64-2.28-3.28-3.42-4.92-.1-.15-.21-.3-.32-.45Zm111.72-20-2-1.22c-1.15.87-2.24,1.77-3.46,2.7.32-1.49.68-2.86,1-4.22a11.26,11.26,0,0,0-2-1.24,2.19,2.19,0,0,0-.08.26c-.16,1-.31,2-.46,3s-.34,2.15-.5,3.23a1.86,1.86,0,0,1-.29.75L737.16,25a2.18,2.18,0,0,0-.12.27,7.36,7.36,0,0,0,1.8,1.07l.29-.45c.54-.86,1.08-1.72,1.61-2.59a2.44,2.44,0,0,1,.7-.74l4.83-3.37.52-.38Zm11.36,19.71.33.39c.19.24.37.5.56.73a3.7,3.7,0,0,0,1.45,1.12,2.4,2.4,0,0,0,1.7.08A4.16,4.16,0,0,0,764.54,39a2.38,2.38,0,0,0,.11-2.4,4.84,4.84,0,0,0-.46-.74c-.66-.89-1.33-1.78-2-2.66-.06-.08-.14-.16-.23-.26-.12.08-.23.14-.33.22l-2.35,1.78L753.91,39c-.14.11-.32.18-.38.4L754.76,41c.59-.4,1.12-.83,1.67-1.24l1.72-1.29ZM704,13.29c.06-.87.1-1.66.16-2.46a3.27,3.27,0,0,1,.08-.39l1.75.11a10.62,10.62,0,0,0,1.73.08,5.16,5.16,0,0,0,.09-1.7c-1.14-.14-2.29-.14-3.46-.3a6.81,6.81,0,0,1,.07-1.22,5.25,5.25,0,0,1,.13-1.25l1.86.12a11.07,11.07,0,0,0,1.83.09,4.53,4.53,0,0,0,.08-1.71c-1.92-.13-3.85-.29-5.8-.39a1.47,1.47,0,0,0-.05.23q-.37,5.11-.72,10.21a.58.58,0,0,0,0,.17,12,12,0,0,0,1.51.14l1.47.11c.51,0,1,.09,1.52.1a7.4,7.4,0,0,0,1.5.07,4.59,4.59,0,0,0,.08-1.72L704,13.29Zm40.86,15.36,1.54,1.26c.49.4,1,.77,1.48,1.24-.35.46-.7.9-1.09,1.34-1.58-1.27-3.13-2.53-4.7-3.81a2.24,2.24,0,0,1,.16-.27l6.29-7.8.2-.22c.55.36,1,.81,1.53,1.21l1.52,1.24,1.54,1.25c-.3.52-.72.92-1.06,1.4l-2.92-2.36A13.57,13.57,0,0,0,747.78,25a15.59,15.59,0,0,0,1.32,1.11c.44.37.9.73,1.37,1.11A3.11,3.11,0,0,1,750,28c-.17.21-.34.42-.54.66a3.45,3.45,0,0,1-.31-.2l-1.94-1.58-.5-.39a18.47,18.47,0,0,0-1.81,2.2Zm-24.21-20,.43.09,2.84.76a.44.44,0,0,0,.45,0c.11-.49.3-1,.38-1.53a.68.68,0,0,0-.16-.1l-5.41-1.45a.28.28,0,0,0-.11,0c-.17.4-2.38,8.51-2.71,10a2.81,2.81,0,0,0,0,.3c1,.29,1.93.53,2.89.79s1.94.55,3,.77a14.05,14.05,0,0,0,.39-1.68c-.62-.21-1.24-.34-1.85-.52s-1.26-.3-1.9-.55c.23-.91.46-1.8.73-2.71l.45.09,2.68.71a2.92,2.92,0,0,0,.33.05c.13-.57.33-1.09.41-1.66-1.13-.35-2.27-.59-3.39-1,.17-.8.39-1.56.62-2.38Zm-59.4,11.08a11.93,11.93,0,0,1-1.29-2.12c.49-.35,1-.64,1.56-1s1.09-.62,1.63-1l-.79-1.32a.5.5,0,0,0-.11-.11c-.54.24-4.71,2.77-5,3,.17.41,3,5.14,5.21,8.79.06.11.14.2.22.31l.21-.11,4.89-3s0,0,0,0l0-.1c-.28-.44-.52-.94-.89-1.41l-1.65,1c-.56.33-1.1.68-1.7,1a12.62,12.62,0,0,1-.76-1.22,7,7,0,0,1-.68-1.23l1.5-.91c.49-.3,1-.57,1.5-.93-.3-.51-.56-1-.91-1.48l-3,1.79ZM716,158.39c0-.27,0-.55,0-.82-.12-.9-.24-1.8-.4-2.69a14.38,14.38,0,0,0-.44-1.63,3.87,3.87,0,0,0-.59-1.15,2.2,2.2,0,0,0-1.55-.91,4.61,4.61,0,0,0-2.29.31,2.43,2.43,0,0,0-1.43,1.47,4.22,4.22,0,0,0-.26,1.38,17,17,0,0,0,.28,3.08,12.75,12.75,0,0,0,.59,2.43,4.74,4.74,0,0,0,.6,1.15,2.21,2.21,0,0,0,1.28.86,4.23,4.23,0,0,0,2.4-.2,2.49,2.49,0,0,0,1.64-1.68,4.51,4.51,0,0,0,.21-1.61ZM621.53,74.86l9.8,4.14.3.1a10.18,10.18,0,0,0,.29-2.19c-.66-.3-1.38-.49-2.08-.81.12-.93.23-1.84.4-2.77.76-.15,1.53-.06,2.29-.25.1-.7.23-1.39.28-2.14-.77,0-1.48.17-2.19.24s-1.44.17-2.16.26l-2.21.27c-.72.09-1.44.15-2.16.25s-1.44.14-2.17.29c-.15.85-.27,1.69-.36,2.61Zm2.42,5.22-.2,0-.49,0A2.4,2.4,0,0,0,621,81.89a5,5,0,0,0-.13,2.42,3.32,3.32,0,0,0,.18.63,2.53,2.53,0,0,0,1.81,1.59,4.43,4.43,0,0,0,1.68.09,2.4,2.4,0,0,0,1.7-1,6.31,6.31,0,0,0,.56-.93c.15-.31.25-.64.39-1a11.24,11.24,0,0,1,.48-1,1.44,1.44,0,0,1,1.8-.6,1.06,1.06,0,0,1,.71.7,1.64,1.64,0,0,1,0,1,1,1,0,0,1-.85.82,6.27,6.27,0,0,1-.7.07l-.33,0c0,.36,0,.71,0,1a3.06,3.06,0,0,0,0,1c.32,0,.62,0,.93,0a2.51,2.51,0,0,0,2.46-2.08,6.73,6.73,0,0,0,.08-2.33,3.39,3.39,0,0,0-.33-1.09A2.54,2.54,0,0,0,629.86,80a4.32,4.32,0,0,0-1.67-.19,2.34,2.34,0,0,0-1.84,1,8.31,8.31,0,0,0-.57,1c-.26.54-.49,1.09-.75,1.63a4.67,4.67,0,0,1-.35.61.9.9,0,0,1-.62.4,3.33,3.33,0,0,1-.87,0,.86.86,0,0,1-.71-.53,1.58,1.58,0,0,1-.09-.91.92.92,0,0,1,.63-.75,3.46,3.46,0,0,1,.47-.11l.41-.06a9.87,9.87,0,0,0,0-2Zm126-49.2c.5.49,1,1,1.46,1.51l-.34.37a2.21,2.21,0,0,0-.45.67,1,1,0,0,0,0,.84,1.84,1.84,0,0,0,.59.7,1.17,1.17,0,0,0,1.37,0,2.12,2.12,0,0,0,.43-.41,1.25,1.25,0,0,0,.27-1.07,5.45,5.45,0,0,0-.46-1.28,8.59,8.59,0,0,1-.51-1.32,2.79,2.79,0,0,1,.79-2.94,4.23,4.23,0,0,1,1.09-.8,2.35,2.35,0,0,1,2.05-.09,4.44,4.44,0,0,1,2.55,2.81,2.14,2.14,0,0,1-.2,1.73,3.71,3.71,0,0,1-.82,1,8.26,8.26,0,0,1-1.43-1.43c.07-.09.15-.19.22-.29a3.21,3.21,0,0,0,.31-.51.93.93,0,0,0-.12-1,1.14,1.14,0,0,0-1.9-.15,1.26,1.26,0,0,0-.37,1.39c.21.6.44,1.19.65,1.79a6.78,6.78,0,0,1,.4,1.47,2.3,2.3,0,0,1-.43,1.7A4.18,4.18,0,0,1,753.56,37a2.38,2.38,0,0,1-1.85.12,4.11,4.11,0,0,1-.88-.41,5.89,5.89,0,0,1-1.85-1.9,2.52,2.52,0,0,1,.17-3,4.38,4.38,0,0,1,.83-.84Zm-56.51,129a2.29,2.29,0,0,0,1.4,2.55,3.11,3.11,0,0,0,.41.15,5,5,0,0,0,2.16.08,2.5,2.5,0,0,0,1.72-1.14,3.34,3.34,0,0,0,.5-1.08c.12-.55.24-1.1.32-1.66s.11-1.19.17-1.79a9.82,9.82,0,0,0-.08-2.44,3.4,3.4,0,0,0-.43-1.22,2.45,2.45,0,0,0-1.4-1.14,4.56,4.56,0,0,0-2.42-.13,2.54,2.54,0,0,0-1.77,1.32,4.43,4.43,0,0,0-.35.85,6.47,6.47,0,0,0-.23,2,3.87,3.87,0,0,0,.33,1.42,2,2,0,0,0,.77.9,2.8,2.8,0,0,0,3.07-.12,1.72,1.72,0,0,1,.27-.15c0,.5-.08.93-.14,1.36a3.18,3.18,0,0,1-.33,1.09,1.15,1.15,0,0,1-1.47.46.71.71,0,0,1-.38-.44c0-.15-.06-.32-.09-.48l-.05-.31-1.6-.12c-.11,0-.21,0-.35,0Zm13-3.12.27-.16a2,2,0,0,0,1-1.8,3.71,3.71,0,0,0-.2-1.23,2.25,2.25,0,0,0-1.68-1.55,4.59,4.59,0,0,0-1.78-.06,3.64,3.64,0,0,0-1.29.39,2.12,2.12,0,0,0-1,1.15,3.28,3.28,0,0,0-.12,2,1.87,1.87,0,0,0,1.2,1.38l.26.11-.06.06a.66.66,0,0,1-.14.08,2,2,0,0,0-1.18,1.47,3.89,3.89,0,0,0,.21,2.45,2.48,2.48,0,0,0,1.74,1.52,4.84,4.84,0,0,0,3-.21A2.41,2.41,0,0,0,708.1,161a3.73,3.73,0,0,0-.07-2.87,2,2,0,0,0-1.28-1.18,2.56,2.56,0,0,1-.33-.12Zm74-78.4c-.11-.75-.13-1.43-.3-2.12l-.57.07-1.3.16-3.19.39c-.83.1-1.66.21-2.49.29a5.17,5.17,0,0,1-.87,0,.94.94,0,0,1-.62-.31,1.23,1.23,0,0,1,.34-1.9,3.19,3.19,0,0,1,1-.28l2.7-.33,4-.48c.21,0,.42-.08.67-.12-.11-.71-.14-1.39-.29-2.1l-1.91.22-3.08.38c-.88.11-1.76.21-2.64.33a4,4,0,0,0-1.34.42,2.37,2.37,0,0,0-1.27,1.56,4.75,4.75,0,0,0,.38,3.34,2.53,2.53,0,0,0,1.7,1.34,4.38,4.38,0,0,0,1.63.08c1-.1,1.91-.23,2.86-.35l3.24-.4,1.31-.17Zm-156.5,27.74,1.66-.41,5.59-1.4a4.63,4.63,0,0,0,1.35-.55,2.4,2.4,0,0,0,1.21-1.79,4.85,4.85,0,0,0-.78-3.27,2.46,2.46,0,0,0-1.17-.94,3,3,0,0,0-1.6-.18,9.2,9.2,0,0,0-.91.18l-6.6,1.65a3.53,3.53,0,0,0-.38.14,8.51,8.51,0,0,0,.54,2l.31-.06,6.91-1.73a3.37,3.37,0,0,1,1.08-.09.94.94,0,0,1,.51.18,1.22,1.22,0,0,1,0,2,3.06,3.06,0,0,1-1,.39l-6.12,1.53-1.09.28a9,9,0,0,0,.49,2.08ZM780.42,89.94a3.41,3.41,0,0,0-.4-.1l-3-.36-3.13-.39a10.38,10.38,0,0,0-1.9-.15,2.62,2.62,0,0,0-2.53,1.88,5.24,5.24,0,0,0-.26,2.31,2.66,2.66,0,0,0,1.89,2.37,3.84,3.84,0,0,0,.73.2c1.1.15,2.2.29,3.3.43s2.16.28,3.24.4a6.29,6.29,0,0,0,1.21.11c.1-.69.19-1.37.24-2.08l-.28-.06-2.92-.35-4.21-.52a3,3,0,0,1-1.09-.32,1,1,0,0,1-.47-.51,1.19,1.19,0,0,1,1.08-1.67,7,7,0,0,1,1.09,0c.47,0,.94.11,1.4.17l3.13.39,2.11.26a.59.59,0,0,0,.5-.06c.08-.62.15-1.27.24-2Zm-144-53.08,1.33-1.65.61.49,5.16,4.19a3.84,3.84,0,0,0,.82.52,1.2,1.2,0,0,0,1.7-1,1.08,1.08,0,0,0-.21-.66,3.29,3.29,0,0,0-.74-.79l-2.62-2.13-2.75-2.23-.32-.28a7.91,7.91,0,0,1,1.31-1.69l1.48,1.19c1.37,1.11,2.74,2.22,4.1,3.34a9.46,9.46,0,0,1,.87.82,2.76,2.76,0,0,1,.59,1,2.54,2.54,0,0,1,0,1.81,4.94,4.94,0,0,1-1.94,2.42,2.37,2.37,0,0,1-2.24.24,5.07,5.07,0,0,1-1.44-.87l-4-3.23-1.44-1.17-.29-.29ZM627,53.52c.29-.65.57-1.28.9-1.91l.58.25,6,2.79a3.6,3.6,0,0,0,1.12.39A1.18,1.18,0,0,0,637,53.83a1,1,0,0,0-.27-.69,2.8,2.8,0,0,0-.88-.62l-1.58-.74-4.78-2.23-.43-.22a9.23,9.23,0,0,1,.9-1.93l.93.43,5.57,2.61a6.94,6.94,0,0,1,1,.59,2.69,2.69,0,0,1,1.17,3,4.94,4.94,0,0,1-1.2,2.35,2.45,2.45,0,0,1-2.32.77,5,5,0,0,1-1.29-.41l-6.61-3.09-.19-.11Zm149.61,55.67a9.43,9.43,0,0,1-.76,2l-.4-.14-6.29-2.43a3.93,3.93,0,0,0-1.15-.31,1.19,1.19,0,0,0-1.32,1.31,1,1,0,0,0,.36.71,3,3,0,0,0,.94.54l2.79,1.08,3.71,1.43.44.18a8.24,8.24,0,0,1-.71,2,3,3,0,0,1-.29-.07l-6.55-2.52a5.15,5.15,0,0,1-1.2-.62A2.62,2.62,0,0,1,765,110a4.82,4.82,0,0,1,1.07-2.86,2.45,2.45,0,0,1,2.47-.92,6.33,6.33,0,0,1,1.2.33l6.55,2.52.32.15Zm-7.63-37-.58-2.29.43-.39,2.81-2.42a1.26,1.26,0,0,0,.38-.4,5.57,5.57,0,0,0-1.19-.43,1,1,0,0,0-.48,0l-2.27.57c-.12,0-.24,0-.39.06-.22-.67-.35-1.34-.52-2l.45-.14,9.84-2.45c.26.67.35,1.35.54,2a1,1,0,0,1-.52.21l-3.11.77-.43.14c.18.08.3.14.43.18l3.81,1.29.47.17c.21.71.37,1.43.54,2.13-.12.11-.2,0-.28,0a1.32,1.32,0,0,1-.21-.06l-3.92-1.31-.36-.12a.5.5,0,0,0-.59.13c-.72.67-1.45,1.32-2.18,2l-2.31,2.08a4.32,4.32,0,0,1-.37.29Zm-9.76-25.37c0,.2,0,.4.08.59a5,5,0,0,0,1.45,2.51,2.6,2.6,0,0,0,2.1.7,4.29,4.29,0,0,0,1.31-.33,18.09,18.09,0,0,0,4.37-2.61,6.26,6.26,0,0,0,.52-.47,3.4,3.4,0,0,0,.71-1,2.54,2.54,0,0,0,.17-1.7,5.22,5.22,0,0,0-1.32-2.34,2.64,2.64,0,0,0-2.49-.78,5,5,0,0,0-1.09.32,17.9,17.9,0,0,0-4.33,2.59,4.32,4.32,0,0,0-.63.6,5.65,5.65,0,0,0-.58.85,2.37,2.37,0,0,0-.29,1.09ZM646.25,26c.29,1.59.66,3.17,1,4.88-.18-.16-.29-.24-.39-.34l-2.27-2.35c-.1-.1-.17-.24-.33-.26a10.91,10.91,0,0,0-1.48,1.48L650.11,37c.53-.49,1-1,1.52-1.47-.12-.14-.21-.27-.32-.38L650.1,33.9a2.05,2.05,0,0,1-.82-1.59.8.8,0,0,1,0-.16c0-.08,0-.16,0-.29l4.48,1.57a11,11,0,0,0,1.69-1.69l-.5-.17-5.58-1.84a3.82,3.82,0,0,1-.37-.16l-.37-1.74c-.12-.59-.23-1.18-.36-1.76a14.16,14.16,0,0,0-.38-1.68A12.64,12.64,0,0,0,646.25,26Zm18.36-13,1.9-.89c.07.11.14.18.18.27.45,1,.89,1.91,1.33,2.86.08.16.16.32.24.47a12.34,12.34,0,0,0,2.26-1L668.87,11a6.67,6.67,0,0,1,1.85-.93c.18.06.2.24.26.38l2.71,5.82,1.38,3c.06.13.11.26.17.39a8,8,0,0,1-1.88.93,2.38,2.38,0,0,1-.18-.3l-1.56-3.36-.26-.52a13.3,13.3,0,0,0-2.21,1c-.08.16,0,.28.1.4q.77,1.68,1.56,3.36l.21.49a8.8,8.8,0,0,1-1.88.93,3.29,3.29,0,0,1-.21-.36l-3.74-8-.57-1.24Zm59,5.83c.13.06.22.12.32.15l2.87,1.16a7,7,0,0,0,.67.22,2.77,2.77,0,0,0,3-.9,5.79,5.79,0,0,0,.61-.84,16,16,0,0,0,1.77-4.26,4.87,4.87,0,0,0,.15-1.46,2.6,2.6,0,0,0-1.11-2.08,5.81,5.81,0,0,0-1.25-.65L728,9l-.44-.15c-1.34,3.3-2.66,6.57-4,9.87Zm42,41.08-.89-2a.73.73,0,0,1,.39-.48,5.83,5.83,0,0,1,.62-.34c.54-.26,1.08-.51,1.61-.79a2.94,2.94,0,0,0,.63-.42.93.93,0,0,0,.29-1,7.41,7.41,0,0,0-.58-1.31c-.71.26-1.38.59-2.05.89l-2,.88a8.19,8.19,0,0,1-.88-1.87c.08-.2.28-.21.43-.28l5.16-2.31,3.52-1.58.52-.21a3.84,3.84,0,0,1,.2.35L774,52.55a3.74,3.74,0,0,1,.34,1.25,2.14,2.14,0,0,1-.63,1.78,3.77,3.77,0,0,1-2.28,1,1.9,1.9,0,0,1-1.55-.52l-.18-.17c-.14,0-.08.13-.09.19a2.17,2.17,0,0,0,0,.22,1.32,1.32,0,0,1-.52,1.2,6.2,6.2,0,0,1-.76.53c-.38.21-.77.4-1.16.59s-.52.25-.78.39a1.85,1.85,0,0,0-.82.77ZM682.93,17.27c-.7.19-1.35.38-2,.5,0-.05-.09-.08-.09-.11q-1.24-5-2.48-10a1.4,1.4,0,0,1,0-.23l.47-.15,3.38-.84a3.53,3.53,0,0,1,1.4-.08,2,2,0,0,1,1.3.72,3.64,3.64,0,0,1,.75,2.81,1.86,1.86,0,0,1-.73,1.24l-.3.23.57.09a1.26,1.26,0,0,1,.95.66,6.11,6.11,0,0,1,.42.88c.16.44.27.9.41,1.35l.22.73a1.42,1.42,0,0,0,.56.84s0,.06,0,.12l-2.12.53a.74.74,0,0,1-.4-.47,6.09,6.09,0,0,1-.23-.67c-.17-.58-.31-1.15-.49-1.73a3.17,3.17,0,0,0-.3-.7.92.92,0,0,0-.87-.46,2.09,2.09,0,0,0-.43,0l-1.08.28c.33,1.47.72,2.88,1.06,4.37ZM631.49,88a1.44,1.44,0,0,1-1,.6l-1.34.21a7,7,0,0,0-1.63.42,1.44,1.44,0,0,0-.9,1.09c0,.12,0,.24-.06.36l-.07,0a1.9,1.9,0,0,1-.12-.18,2,2,0,0,0-1.46-1,3.77,3.77,0,0,0-2.14.22,2.13,2.13,0,0,0-1.43,1.95,7.45,7.45,0,0,0,0,1.36c.12,1.08.26,2.16.4,3.24a2.26,2.26,0,0,0,.09.32l10.4-1.3,0,0,.07-.08c-.09-.65-.12-1.33-.28-2-.74.09-1.46.2-2.18.27s-1.46.21-2.23.25c0-.17-.07-.31-.09-.45,0-.29-.07-.58-.08-.87a1,1,0,0,1,.77-1.11,1.82,1.82,0,0,1,.31-.08l1.23-.2c.43-.07.86-.14,1.29-.22a1,1,0,0,0,.66-.36c-.09-.73-.15-1.46-.29-2.3Zm-1.31-28.48c0-.17-.07-.26-.08-.35A2,2,0,0,0,629,57.61a3.56,3.56,0,0,0-1.29-.4,2.15,2.15,0,0,0-2.19,1,4.11,4.11,0,0,0-.52,1.07c-.35,1.09-.71,2.17-1.05,3.26a1.69,1.69,0,0,0,0,.29c.59.26,9.67,3.2,10.07,3.26,0-.06.06-.12.08-.19.36-1.1.72-2.2,1.07-3.31a5,5,0,0,0,.19-.85,2.66,2.66,0,0,0-1.41-2.87,3.9,3.9,0,0,0-1.28-.45,2.11,2.11,0,0,0-2.21.85l-.19.24ZM697.7,9.37l.33-.2a2.06,2.06,0,0,0,1-1.38,3.46,3.46,0,0,0-.1-1.72,2.11,2.11,0,0,0-1.56-1.52,3.64,3.64,0,0,0-1.24-.12l-2.5.16-1,.07-.29,0c0,.07-.06.1-.05.14L693,15.21a.07.07,0,0,0,0,0l.06.05c.16,0,.34,0,.52,0l3-.21a4.81,4.81,0,0,0,1.43-.3,2.49,2.49,0,0,0,1.48-1.43,3.59,3.59,0,0,0,0-2.61,2,2,0,0,0-1.34-1.26l-.46-.12Zm-70.53,106c-.08-.2-.17-.38-.24-.56l-1-2.74a5,5,0,0,1-.32-1.21,2.14,2.14,0,0,1,1.18-2.36,3.68,3.68,0,0,1,1.22-.44,2.05,2.05,0,0,1,1.81.53l.27.23c0-.29,0-.55,0-.8a1.86,1.86,0,0,1,.77-1.33,3.62,3.62,0,0,1,2.49-.77,2.45,2.45,0,0,1,1.73.92,4,4,0,0,1,.69,1.17c.44,1.13.87,2.27,1.31,3.4a.45.45,0,0,1,0,.12c-.09.16-.29.17-.46.24l-8,3.09-1.06.41-.33.09Zm152-15.76L769,97.12s-.07,0-.11,0a.53.53,0,0,0-.07.14c-.29,1.14-.58,2.28-.85,3.43a4.15,4.15,0,0,0-.14,1.29,2.58,2.58,0,0,0,1.28,2.15,3.92,3.92,0,0,0,1.43.5,2.16,2.16,0,0,0,2.38-1c0-.08.08-.17.2-.13a2.16,2.16,0,0,0,1.71,1.89,4.5,4.5,0,0,0,.74.15,2.12,2.12,0,0,0,2.13-.92,3.84,3.84,0,0,0,.58-1.28c.29-1.14.57-2.29.86-3.43,0-.06,0-.14,0-.27ZM701,149c-1.54-.06-3.09-.08-4.63-.2a63.07,63.07,0,0,1-23.61-6.37A64.27,64.27,0,0,1,644,114.57,62.92,62.92,0,0,1,638,97.94a62.2,62.2,0,0,1-1-6.39c-.15-1.37-.26-2.75-.33-4.13-.09-1.73-.1-3.45,0-5.18s.18-3.55.38-5.33a64.32,64.32,0,0,1,13.37-32.65,64.18,64.18,0,0,1,27.44-20.38,61.73,61.73,0,0,1,11.39-3.24c1.75-.32,3.51-.57,5.28-.76a65.16,65.16,0,0,1,9.31-.28c1.29,0,2.57.17,3.86.29a60.55,60.55,0,0,1,10.16,1.86,63.58,63.58,0,0,1,23.52,11.95A64.28,64.28,0,0,1,760.3,58.78a63.25,63.25,0,0,1,4,13.15q.58,3,.87,6.09a63.32,63.32,0,0,1,.27,8.28q-.08,2.58-.37,5.16a64.72,64.72,0,0,1-40.84,53.12,62.26,62.26,0,0,1-10.86,3.14c-1.78.35-3.58.63-5.38.82a65.07,65.07,0,0,1-7,.41ZM659.07,29.4s.09.08.12.06a2.19,2.19,0,0,0,.32-.2l.49-.36c0,.06.08.1.09.14,0,.8.08,1.59.12,2.4l-1.09.82c-.27-.72-.44-1.42-.66-2.13a3.37,3.37,0,0,0,.23-.28s0-.08,0-.12-.23.09-.33.15a4.26,4.26,0,0,1-1.43.63,2.14,2.14,0,0,1-1.43-.19,3.93,3.93,0,0,1-1.57-1.5c.55-.45,1.11-.85,1.67-1.27l.23.26a4,4,0,0,0,.29.33,1.15,1.15,0,0,0,1.16.43,1.57,1.57,0,0,0,1.15-1.05.92.92,0,0,0,0-.27,1.54,1.54,0,0,0-1.37-1.45,3.76,3.76,0,0,0-1.23.2,14.34,14.34,0,0,1-1.47.4,4.78,4.78,0,0,1-1.14,0,2,2,0,0,1-1.1-.44,4,4,0,0,1-1.45-2.11,2.39,2.39,0,0,1,.12-1.65,2.08,2.08,0,0,1,.2-.38,4.66,4.66,0,0,1,2.77-2,2.22,2.22,0,0,1,2,.41,3.62,3.62,0,0,1,.86.94c-.5.46-1.06.82-1.62,1.26a4.8,4.8,0,0,0-.38-.44,1.08,1.08,0,0,0-1.71.07,1,1,0,0,0-.2,1.24,2.06,2.06,0,0,0,.27.4,1.21,1.21,0,0,0,1.26.46c.62-.14,1.23-.3,1.85-.43a12.35,12.35,0,0,1,1.23-.21,2.31,2.31,0,0,1,2.05.78,4.74,4.74,0,0,1,.84,1.26,2.58,2.58,0,0,1-.11,2.45,4.72,4.72,0,0,1-.8,1c-.09.09-.23.14-.21.3ZM785,84.59c0,1.14-.06,2.63-.13,4.12q-.15,3-.53,6.08a84.35,84.35,0,0,1-48.15,66,81.93,81.93,0,0,1-16.93,5.73q-3.27.72-6.59,1.19c-1.71.24-3.42.42-5.14.56-2.12.17-4.24.25-6.37.26-1.42,0-2.84,0-4.25-.1q-2.69-.12-5.38-.43a83.59,83.59,0,0,1-46.4-20.83,84.17,84.17,0,0,1-26-44.16q-.78-3.43-1.26-6.91c-.23-1.66-.41-3.31-.55-5a77.91,77.91,0,0,1-.27-7.84c0-1.74.09-3.49.22-5.22A84.2,84.2,0,0,1,678.12,3.16a80.9,80.9,0,0,1,8.43-1.92c1.81-.31,3.62-.57,5.45-.76,2.26-.24,4.52-.38,6.79-.45C700.89,0,703,0,705.06.1c1.63.07,3.26.21,4.89.38a83.37,83.37,0,0,1,42.29,17,84.32,84.32,0,0,1,30.38,46.87q.91,3.79,1.47,7.64c.2,1.38.34,2.78.49,4.16C784.87,78.86,785,81.55,785,84.59Z"/><path class="cls-3" d="M730.17,124h-2c-.67,0-1.34,0-2,0l-.18-.53-1-3.06c0-.07,0-.15-.17-.12l-1.2,3.71-.56,0h-3.22c-.08,0-.18,0-.24.11l1.08.8c.36.27.73.54,1.09.82a8.4,8.4,0,0,1,1.07.85c-.21.65-.43,1.28-.63,1.92s-.46,1.25-.61,2a11,11,0,0,0,1.12-.78l1.1-.81,1.07-.79,1.07.78,1.1.81c.35.26.69.53,1.12.8a3.18,3.18,0,0,0-.07-.38l-1-3.05c-.05-.17-.1-.34-.15-.52l1.63-1.23a11,11,0,0,0,1.52-1.31Zm-50.35,6.48.06-.08-.14-.46-1-3c0-.14-.06-.27-.09-.42l.54-.41.56-.43.52-.39.52-.39.56-.43a3.25,3.25,0,0,0,.55-.47H679.2c-.45,0-.9,0-1.36,0-.06-.15-.11-.26-.14-.38-.32-1-.63-2-1-3,0-.13-.1-.25-.18-.43-.07.19-.12.3-.16.42l-1,3c0,.14-.1.26-.16.41H671.5c-.08,0-.18,0-.22.11l.47.36,2.49,1.86a2.83,2.83,0,0,1,.27.25l-.14.44q-.52,1.6-1,3.21c0,.07-.1.15,0,.24l.79-.57.83-.62.79-.58a7,7,0,0,1,.84-.59l3.22,2.37Zm26.47-95a1,1,0,0,1,0-.11h-2.65c-.45,0-.9,0-1.35,0-.05-.14-.1-.23-.13-.33-.32-1-.64-2-1-3.06,0-.12-.1-.24-.18-.43-.07.21-.12.34-.17.48-.32,1-.64,2-1,2.95,0,.14-.11.26-.16.41h-3.78c-.08,0-.18,0-.21.11l.47.36,2.49,1.86c.1.08.18.17.27.25l-.14.44q-.52,1.6-1,3.21c0,.07-.11.15,0,.24L701,39.49c1.1.79,2.16,1.6,3.33,2.45-.08-.26-.12-.44-.17-.6l-1-3c0-.13-.06-.27-.1-.42l3.2-2.42ZM703.06,133l.5-.39,2.52-1.9c.08-.06.2-.09.17-.26h-4c-.45-1.25-.78-2.54-1.26-3.87-.47,1.33-.83,2.6-1.28,3.87h-3.54a1.59,1.59,0,0,0-.53,0c.57.47,1.12.85,1.65,1.25s1.11.81,1.65,1.25c-.39,1.33-.87,2.6-1.28,4l3.34-2.45.81.59.83.61.79.58a10.57,10.57,0,0,0,.91.64l-1.29-4ZM648.32,82.93a11.16,11.16,0,0,0,1.55,1.3c.55.42,1.11.81,1.66,1.25-.4,1.32-.87,2.6-1.28,4,.64-.42,1.16-.84,1.7-1.23l1.64-1.2.81.59.83.61.79.58a9,9,0,0,0,.9.62c-.41-1.38-.88-2.65-1.26-4l.49-.38,2.52-1.9c.08-.06.2-.09.17-.26h-4c-.44-1.26-.78-2.53-1.25-3.85-.08.2-.14.33-.18.46l-1,3c0,.13-.11.26-.17.39ZM748.42,79l-1.25,3.84-.09,0h-3.86l0,0s0,0,0,.09l1.07.8,1.09.82a8.74,8.74,0,0,1,1.08.85l-.62,1.92c-.21.65-.46,1.28-.64,2l1.7-1.25c.54-.39,1.06-.81,1.6-1.16l.09,0,3,2.19.14.09.05,0,.06,0c-.2-.62-.42-1.26-.62-1.9s-.46-1.29-.61-2l.44-.35,2.57-1.93c.07-.06.21-.08.15-.26h-4c-.44-1.25-.78-2.53-1.26-3.88ZM736.9,106.59c-.1.17,0,.21.12.26l2.62,2,.44.34c-.39,1.31-.87,2.58-1.27,4a11.51,11.51,0,0,0,1.16-.82l1.05-.77,1.06-.77.11,0,0,0,3,2.2.09.06h.05l.07,0c-.2-.62-.41-1.26-.61-1.89s-.46-1.29-.61-2l.45-.35,2.61-2c.07,0,.16-.09.09-.23h-4l-.4-1.25c-.14-.43-.26-.87-.41-1.3a6,6,0,0,0-.46-1.26c-.44,1.29-.81,2.56-1.25,3.81Zm-78.58,0h-3.81c-.08,0-.18,0-.23.11l1.61,1.2c.55.41,1.11.81,1.66,1.25-.22.67-.44,1.3-.64,1.94s-.46,1.29-.64,2l1.7-1.25c.54-.39,1.06-.81,1.63-1.18l3.18,2.32h.05s0,0,0-.06l-.07-.24-1.05-3.26a3.54,3.54,0,0,1-.08-.37l1.63-1.23c.53-.4,1.08-.77,1.66-1.29h-4.14c-.2-.65-.39-1.28-.6-1.89a17.91,17.91,0,0,0-.67-2l-1.25,3.84Zm68.69-62,0-.08,0,0,3-2.23.13-.11a.1.1,0,0,0,0,0,.4.4,0,0,0,0-.09c-.26,0-.52,0-.79,0H727a3.63,3.63,0,0,1-.83,0c-.05-.16-.11-.31-.16-.46l-1-3.11c0-.07,0-.14-.16-.12-.41,1.22-.78,2.47-1.22,3.71l-.57,0h-3.22c-.08,0-.18,0-.24.12l1.07.8c.36.27.73.54,1.09.82a10.21,10.21,0,0,1,1.08.85l-.43,1.3c-.14.43-.29.86-.42,1.29a7.72,7.72,0,0,0-.38,1.35l.85-.62.84-.61.79-.58a9.32,9.32,0,0,1,.84-.59l3.3,2.43a20.75,20.75,0,0,0-.61-2c-.2-.65-.43-1.31-.63-1.93Zm-45.13-2.5,0-.11h-2.66a12.91,12.91,0,0,1-1.37,0l-.3-.94-.3-.93c-.11-.33-.2-.66-.31-1a4.09,4.09,0,0,0-.34-.92c-.06.17-.11.29-.15.41l-1,3c0,.13-.11.26-.16.4h-4c0,.19.11.21.18.27l2.66,2c.13.09.24.21.36.31-.05.17-.09.31-.14.45-.33,1-.66,2-1,3a.68.68,0,0,0-.08.49L675,47.27c.54-.39,1.06-.81,1.63-1.17l3.18,2.32.05,0,.06,0c-.2-.62-.42-1.26-.61-1.9s-.46-1.29-.61-2l3.22-2.43Zm54.86,17.18.55.41,2.45,1.82c.13.09.29.16.34.35-.21.63-.42,1.26-.62,1.9s-.45,1.25-.62,2c.35-.22.6-.42.86-.61l.83-.62.79-.58c.27-.2.54-.42.84-.6l3.22,2.37c-.31-1.34-.77-2.61-1.16-3.92l.44-.35,2.61-2c.06,0,.18-.07.12-.23h-3.52a.74.74,0,0,1-.51-.09c-.19-.59-.38-1.21-.58-1.83s-.36-1.25-.64-1.93c-.46,1.32-.81,2.58-1.26,3.82a5.71,5.71,0,0,1-1,0h-2a9.53,9.53,0,0,0-1.1,0Zm-80.45,6.47a9,9,0,0,0,.85-.6l.83-.62.79-.58a7.09,7.09,0,0,1,.85-.59l3.28,2.41a9.21,9.21,0,0,0-.4-1.37c-.14-.43-.28-.86-.42-1.29s-.27-.86-.41-1.31l.44-.35,2.61-2c.06,0,.18-.08.11-.23h-3.57c-.14,0-.28,0-.43,0-.21-.65-.4-1.27-.61-1.89s-.36-1.25-.64-1.91c-.47,1.31-.82,2.58-1.26,3.8a3.65,3.65,0,0,1-.85,0h-2.34a4.32,4.32,0,0,0-.9,0c.32.27.6.46.87.66l.79.59.83.62.84.64c-.21.65-.43,1.29-.63,1.93s-.46,1.29-.62,2Zm22.1-.8.2.3c.38.51.77,1,1.16,1.52a.84.84,0,0,1,.2.6c0,.14,0,.29,0,.44V87.72c0,2.94,0,5.89,0,8.83a22,22,0,0,0,.59,5,21,21,0,0,0,19.09,16.11,20.12,20.12,0,0,0,5.85-.45A20.8,20.8,0,0,0,718,108.93,20.55,20.55,0,0,0,722,97.4c.06-1.72.06-3.45.07-5.18q0-12.21,0-24.42a4.21,4.21,0,0,0,0-.44.88.88,0,0,1,.22-.65c.38-.49.75-1,1.12-1.47.06-.08.17-.15.13-.31l-.35,0h-2.07a3,3,0,0,1-.39-.05V60.8q0-.63,0-1.25a.36.36,0,0,1,.06-.14l.5-.09L719.11,51c-.06,0-.1.06-.11.08-.73,2.75-1.43,5.51-2.15,8.29l.5.07a22.58,22.58,0,0,1,0,2.84s0,0-.1.09c-.56-.47-1.11-1-1.67-1.45l-1.72-1.51-1.68-1.47L710.5,56.4l-1.68-1.47c-.57-.5-1.13-1-1.74-1.5-.39.34-.76.67-1.13,1a9.61,9.61,0,0,1-1.12.93l-3.75-3.44,0,0h-.08l-.78.64-.8.66-.84.7-.8.66c-.26.21-.52.45-.81.65-.71-.56-1.31-1.2-2-1.74l-.31.25-6.2,5.42-3.49,3c-.08.07-.15.23-.32.12a16.36,16.36,0,0,1,0-2.87l.46-.07a.83.83,0,0,0,0-.14q-1-4-2.08-8.07a.71.71,0,0,0-.12-.18,1,1,0,0,0-.05.13l-1.75,6.8c-.12.46-.22.91-.33,1.37,0,0,0,.06,0,.09l.48.08v5.21a2.52,2.52,0,0,1,0,.27ZM701,149c-1.54-.06-3.09-.08-4.63-.2a63.07,63.07,0,0,1-23.61-6.37A64.27,64.27,0,0,1,644,114.57,62.88,62.88,0,0,1,638,97.94a62.2,62.2,0,0,1-1-6.39c-.15-1.37-.26-2.75-.33-4.13-.09-1.73-.1-3.45,0-5.18s.18-3.55.38-5.33a64.32,64.32,0,0,1,13.37-32.65,64.18,64.18,0,0,1,27.44-20.38,61.73,61.73,0,0,1,11.39-3.24c1.75-.32,3.51-.57,5.28-.76a65.16,65.16,0,0,1,9.31-.28c1.29,0,2.57.17,3.86.29a60.55,60.55,0,0,1,10.16,1.86,63.58,63.58,0,0,1,23.52,11.95A64.28,64.28,0,0,1,760.3,58.78a63.25,63.25,0,0,1,4,13.15q.58,3,.87,6.09a63.32,63.32,0,0,1,.27,8.28q-.08,2.58-.37,5.16a64.72,64.72,0,0,1-40.84,53.12,62.26,62.26,0,0,1-10.86,3.14c-1.78.35-3.58.63-5.38.82A65.07,65.07,0,0,1,701,149Z"/><path class="cls-4" d="M774.44,100.7a3.61,3.61,0,0,0-.29,1.5,1.07,1.07,0,0,0,.73,1,2.15,2.15,0,0,0,1,.16.9.9,0,0,0,.65-.35,2.88,2.88,0,0,0,.48-1.65l-2.57-.65Zm-4.61-1.13c-.11.46-.2.85-.28,1.24a1.08,1.08,0,0,0,0,.27,1.27,1.27,0,0,0,.79,1.2,2.61,2.61,0,0,0,.94.24,1.22,1.22,0,0,0,1.19-.61,3.88,3.88,0,0,0,.42-1.59c-1-.25-2-.51-3.05-.74Zm9.29.08a2.63,2.63,0,0,1,0,.27c-.28,1.14-.56,2.29-.86,3.43a3.87,3.87,0,0,1-.58,1.28,2.12,2.12,0,0,1-2.13.92,4.58,4.58,0,0,1-.74-.15,2.16,2.16,0,0,1-1.71-1.89c-.12,0-.15.06-.2.13a2.16,2.16,0,0,1-2.38,1,4,4,0,0,1-1.43-.5,2.58,2.58,0,0,1-1.28-2.15,4.27,4.27,0,0,1,.14-1.29c.27-1.15.56-2.29.85-3.43a.68.68,0,0,1,.07-.14s.08,0,.11,0Z"/><path class="cls-4" d="M630.42,111.87a1.93,1.93,0,0,0-.23-.71,4.29,4.29,0,0,0-.33-.62,1,1,0,0,0-1.08-.48,2.3,2.3,0,0,0-.81.29,1,1,0,0,0-.54,1.19c.09.35.21.69.33,1a1.87,1.87,0,0,0,.16.27l2.5-1Zm4.43-1.72c-.17-.42-.3-.77-.46-1.12a2,2,0,0,0-.31-.44,1.12,1.12,0,0,0-.92-.39,2.32,2.32,0,0,0-1,.29,1.26,1.26,0,0,0-.73,1.53,4.8,4.8,0,0,0,.49,1.28c1-.37,1.94-.73,3-1.15Zm-7.68,5.26c-.08-.2-.17-.38-.24-.56l-1-2.74a5,5,0,0,1-.32-1.21,2.14,2.14,0,0,1,1.18-2.36,3.68,3.68,0,0,1,1.22-.44,2.05,2.05,0,0,1,1.81.53l.27.23c0-.29,0-.55,0-.8a1.86,1.86,0,0,1,.77-1.33,3.62,3.62,0,0,1,2.49-.77,2.45,2.45,0,0,1,1.73.92,4,4,0,0,1,.69,1.17c.44,1.13.87,2.27,1.31,3.4a.45.45,0,0,1,0,.12c-.09.16-.29.17-.46.24l-8,3.09-1.06.41Z"/><path class="cls-4" d="M694.76,8.87a3.17,3.17,0,0,0,1.53-.22.91.91,0,0,0,.61-.77,3.5,3.5,0,0,0,0-1,1,1,0,0,0-.84-.82,4.14,4.14,0,0,0-1.44,0,18.65,18.65,0,0,0,.19,2.74Zm.29,4.7a4.6,4.6,0,0,0,1.35-.1,1.68,1.68,0,0,0,.36-.13,1.13,1.13,0,0,0,.7-1,3.9,3.9,0,0,0,0-.87,1.26,1.26,0,0,0-1.22-1.12,4.48,4.48,0,0,0-1.4.11c.08,1,.12,2.07.23,3.13Zm2.65-4.2.46.12a2,2,0,0,1,1.34,1.26,3.59,3.59,0,0,1,0,2.61A2.48,2.48,0,0,1,698,14.79a4.81,4.81,0,0,1-1.43.3l-3,.21c-.18,0-.36,0-.52,0l-.06-.05a.09.09,0,0,1,0,0q-.36-5.19-.72-10.37s0-.06.05-.14l.29,0,1-.07,2.5-.16a3.64,3.64,0,0,1,1.24.12,2.1,2.1,0,0,1,1.56,1.52,3.46,3.46,0,0,1,.1,1.72,2.06,2.06,0,0,1-1,1.38Z"/><path class="cls-4" d="M628.61,62.16a4,4,0,0,0,.38-1.53,1,1,0,0,0-.51-.9,2.23,2.23,0,0,0-1-.32,1,1,0,0,0-.91.39,3.16,3.16,0,0,0-.54,1.54l2.55.84Zm1.45.42a1.07,1.07,0,0,0,.21.11l2.8.92a4.75,4.75,0,0,0,.41-1.37,2.56,2.56,0,0,0,0-.38A1.08,1.08,0,0,0,633,61a2.43,2.43,0,0,0-1.28-.4,1.14,1.14,0,0,0-1,.51,1.56,1.56,0,0,0-.22.37c-.14.37-.26.75-.39,1.14Zm.13-3.05.19-.25a2.11,2.11,0,0,1,2.21-.85,3.93,3.93,0,0,1,1.28.45,2.66,2.66,0,0,1,1.41,2.87,5,5,0,0,1-.19.85c-.35,1.11-.71,2.21-1.07,3.31,0,.07-.06.13-.08.19-.39-.06-9.47-3-10.07-3.26a2.06,2.06,0,0,1,0-.29L625,59.28a4.11,4.11,0,0,1,.52-1.07,2.14,2.14,0,0,1,2.19-1,3.64,3.64,0,0,1,1.29.4,2,2,0,0,1,1.14,1.56C630.12,59.26,630.14,59.35,630.18,59.52Z"/><path class="cls-4" d="M626.17,93.82c0-.27,0-.47-.07-.67a5.51,5.51,0,0,0-.17-.79,1.12,1.12,0,0,0-1.09-.83,3.66,3.66,0,0,0-.81,0,1.21,1.21,0,0,0-1,1.27,10.35,10.35,0,0,0,.14,1.3,1.22,1.22,0,0,0,.23,0l2.81-.35ZM631.49,88c.15.84.2,1.58.3,2.31a1,1,0,0,1-.66.36c-.43.08-.86.15-1.29.22l-1.23.2a1.73,1.73,0,0,0-.31.08,1,1,0,0,0-.77,1.11c0,.29,0,.58.08.87,0,.14.05.28.09.45.77,0,1.5-.17,2.23-.25s1.43-.18,2.18-.27c.16.7.19,1.39.28,2l-.07.08,0,0-10.4,1.3a2.26,2.26,0,0,1-.09-.32c-.14-1.08-.29-2.16-.4-3.24a7.45,7.45,0,0,1,0-1.36,2.14,2.14,0,0,1,1.43-1.95,3.74,3.74,0,0,1,2.14-.22,2,2,0,0,1,1.46,1,1.9,1.9,0,0,0,.12.18l.07,0c0-.12,0-.24.06-.36a1.44,1.44,0,0,1,.9-1.09,7,7,0,0,1,1.63-.42l1.34-.21A1.46,1.46,0,0,0,631.49,88Z"/><path class="cls-4" d="M681.49,11.43l.78-.18c.19-.05.38-.12.56-.18A.93.93,0,0,0,683,11a1.18,1.18,0,0,0,.59-1,2.33,2.33,0,0,0-.24-1.1,1.11,1.11,0,0,0-1.08-.68,3,3,0,0,0-.49,0c-.25,0-.49.11-.74.18a3,3,0,0,0-.31.12c.25,1,.48,1.91.73,2.93Zm1.44,5.84c-.7.19-1.35.38-2,.5,0-.05-.09-.08-.09-.11q-1.24-5-2.48-10a1.4,1.4,0,0,1,0-.23l.47-.15,3.38-.84a3.53,3.53,0,0,1,1.4-.08,2,2,0,0,1,1.3.72,3.64,3.64,0,0,1,.75,2.81,1.86,1.86,0,0,1-.73,1.24l-.3.23.57.09a1.26,1.26,0,0,1,.95.66,6.11,6.11,0,0,1,.42.88c.16.44.27.9.41,1.35l.22.73a1.42,1.42,0,0,0,.56.84s0,.06,0,.12l-2.12.53a.74.74,0,0,1-.4-.47,6.09,6.09,0,0,1-.23-.67c-.17-.58-.31-1.15-.49-1.73a3.17,3.17,0,0,0-.3-.7.92.92,0,0,0-.87-.46,2.09,2.09,0,0,0-.43,0l-1.08.28C682.2,14.36,682.59,15.77,682.93,17.27Z"/><path class="cls-4" d="M769.05,52.85c.17.38.32.73.5,1.06a1.82,1.82,0,0,0,.37.46,1,1,0,0,0,.85.3,2.3,2.3,0,0,0,1.28-.54,1.08,1.08,0,0,0,.38-1.12,5.18,5.18,0,0,0-.58-1.38,19.79,19.79,0,0,0-2.8,1.22Zm-3.45,7-.89-2a.73.73,0,0,1,.39-.48,5.83,5.83,0,0,1,.62-.34c.54-.26,1.08-.51,1.61-.79a2.85,2.85,0,0,0,.63-.42.93.93,0,0,0,.29-1,7.41,7.41,0,0,0-.58-1.31c-.71.26-1.38.59-2.05.89l-2,.88a8.19,8.19,0,0,1-.88-1.87c.08-.2.28-.21.43-.28l5.16-2.31,3.52-1.58.52-.21a3.84,3.84,0,0,1,.2.35L774,52.55a3.74,3.74,0,0,1,.34,1.25,2.14,2.14,0,0,1-.63,1.78,3.77,3.77,0,0,1-2.28,1,1.9,1.9,0,0,1-1.55-.52l-.18-.17c-.14,0-.08.13-.09.19a2.17,2.17,0,0,0,0,.22,1.32,1.32,0,0,1-.52,1.2,6.2,6.2,0,0,1-.76.53c-.38.21-.77.4-1.16.59s-.52.25-.78.39A1.85,1.85,0,0,0,765.6,59.84Z"/><path class="cls-4" d="M729,11.16a2.38,2.38,0,0,0-.13.24L726.25,18a.08.08,0,0,0,0,.05l0,.09c.32.13.67.29,1,.41a1.29,1.29,0,0,0,1.52-.42,5.67,5.67,0,0,0,.57-.86,17.58,17.58,0,0,0,1.36-3.37,4.37,4.37,0,0,0,.15-.85,1.41,1.41,0,0,0-.89-1.48c-.31-.14-.63-.26-1-.41Zm-5.41,7.6c1.32-3.3,2.64-6.57,4-9.86L728,9l2.62,1.06a5.81,5.81,0,0,1,1.25.65A2.59,2.59,0,0,1,733,12.85a4.86,4.86,0,0,1-.15,1.46,15.93,15.93,0,0,1-1.77,4.26,6,6,0,0,1-.61.84,2.77,2.77,0,0,1-3,.9,5.37,5.37,0,0,1-.67-.22l-2.87-1.16Z"/><path class="cls-4" d="M664.62,12.93l1.9-.89c.07.11.14.18.18.27.45,1,.89,1.91,1.33,2.86.08.16.16.32.24.47a12.34,12.34,0,0,0,2.26-1L668.87,11a6.67,6.67,0,0,1,1.85-.93c.18.06.2.24.26.38l2.71,5.82,1.38,3c.06.13.11.26.17.39a8,8,0,0,1-1.88.93,2.38,2.38,0,0,1-.18-.3l-1.56-3.36-.26-.52a13.3,13.3,0,0,0-2.21,1c-.08.16,0,.28.1.4q.77,1.68,1.56,3.36l.21.49a8.8,8.8,0,0,1-1.88.93,3.69,3.69,0,0,1-.21-.36l-3.74-8Z"/><path class="cls-4" d="M646.25,26a13.37,13.37,0,0,1,1.64-1.58,15.83,15.83,0,0,1,.38,1.68c.13.58.24,1.17.36,1.76s.24,1.14.37,1.74c.12,0,.24.12.37.16L655,31.57l.5.17a10.33,10.33,0,0,1-1.69,1.69l-4.48-1.57c0,.13,0,.21,0,.29a.8.8,0,0,0,0,.16,2,2,0,0,0,.82,1.59l1.21,1.26c.11.12.21.24.32.38-.5.52-1,1-1.52,1.47l-7.35-7.63a10.91,10.91,0,0,1,1.48-1.48c.16,0,.23.16.33.26l2.27,2.35c.09.1.21.18.39.34C646.91,29.15,646.54,27.56,646.25,26Z"/><path class="cls-4" d="M762.29,48.6a2,2,0,0,0,.86-.2,18.93,18.93,0,0,0,4.4-2.67,2.61,2.61,0,0,0,.48-.52,1.14,1.14,0,0,0,0-1.37,1.12,1.12,0,0,0-1.25-.55,5.32,5.32,0,0,0-1.42.55,27.18,27.18,0,0,0-2.84,1.71,6.19,6.19,0,0,0-.56.43,5.19,5.19,0,0,0-.55.53,1.15,1.15,0,0,0-.08,1.54,1.05,1.05,0,0,0,1,.55Zm-3-1.81a2.4,2.4,0,0,1,.29-1.1,5.21,5.21,0,0,1,.58-.85,4.32,4.32,0,0,1,.63-.6,17.76,17.76,0,0,1,4.33-2.59,5,5,0,0,1,1.09-.32,2.65,2.65,0,0,1,2.49.78A5.19,5.19,0,0,1,770,44.45a2.54,2.54,0,0,1-.17,1.7,3.33,3.33,0,0,1-.71,1,6.25,6.25,0,0,1-.52.47,18.09,18.09,0,0,1-4.37,2.61,4.38,4.38,0,0,1-1.31.33,2.59,2.59,0,0,1-2.1-.7,5,5,0,0,1-1.45-2.51A5.81,5.81,0,0,1,759.26,46.79Z"/><path class="cls-4" d="M769,72.17l-.58-2.29.43-.39,2.81-2.42a1.26,1.26,0,0,0,.38-.4,5.57,5.57,0,0,0-1.19-.43,1,1,0,0,0-.48,0l-2.27.57c-.12,0-.24,0-.39.06-.22-.67-.35-1.34-.52-2l.45-.14,9.84-2.45c.26.67.35,1.35.54,2a1,1,0,0,1-.52.21l-3.11.77-.43.14c.18.08.3.14.43.18l3.81,1.29.47.17c.21.71.37,1.43.54,2.13-.12.11-.2,0-.28,0a1.32,1.32,0,0,1-.21-.06l-3.92-1.31-.36-.12a.5.5,0,0,0-.59.13c-.72.67-1.45,1.32-2.18,2l-2.31,2.08A4.32,4.32,0,0,1,769,72.17Z"/><path class="cls-4" d="M776.65,109.19a9.43,9.43,0,0,1-.76,2l-.4-.14-6.29-2.43a3.93,3.93,0,0,0-1.15-.31,1.19,1.19,0,0,0-1.32,1.31,1,1,0,0,0,.36.71,3,3,0,0,0,.94.54l2.79,1.08,3.71,1.43.44.18a8.24,8.24,0,0,1-.71,2,3,3,0,0,1-.29-.07l-6.55-2.52a5.15,5.15,0,0,1-1.2-.62A2.62,2.62,0,0,1,765,110a4.82,4.82,0,0,1,1.07-2.86,2.45,2.45,0,0,1,2.47-.92,6.33,6.33,0,0,1,1.2.33l6.55,2.52Z"/><path class="cls-4" d="M627,53.52c.29-.65.57-1.28.9-1.91l.58.25,6,2.79a3.6,3.6,0,0,0,1.12.39A1.18,1.18,0,0,0,637,53.83a1,1,0,0,0-.27-.69,2.8,2.8,0,0,0-.88-.62l-1.58-.74-4.78-2.23-.43-.22a9.23,9.23,0,0,1,.9-1.93l.93.43,5.57,2.61a6.94,6.94,0,0,1,1,.59,2.69,2.69,0,0,1,1.17,3,4.94,4.94,0,0,1-1.2,2.35,2.45,2.45,0,0,1-2.32.77,5,5,0,0,1-1.29-.41l-6.61-3.09Z"/><path class="cls-4" d="M636.44,36.85l1.33-1.65.61.49,5.16,4.19a3.84,3.84,0,0,0,.82.52,1.2,1.2,0,0,0,1.7-1,1.08,1.08,0,0,0-.21-.66,3.29,3.29,0,0,0-.74-.79l-2.62-2.13-2.75-2.23-.32-.28a7.91,7.91,0,0,1,1.31-1.69l1.48,1.19c1.37,1.11,2.74,2.22,4.1,3.34a9.46,9.46,0,0,1,.87.82,2.76,2.76,0,0,1,.59,1,2.54,2.54,0,0,1,0,1.81,4.94,4.94,0,0,1-1.94,2.42,2.37,2.37,0,0,1-2.24.24,5.07,5.07,0,0,1-1.44-.87l-4-3.23-1.44-1.17Z"/><path class="cls-4" d="M780.42,89.94l-.25,2a.57.57,0,0,1-.5.06l-2.11-.26-3.13-.39c-.47-.06-.93-.13-1.4-.17a7,7,0,0,0-1.09,0,1.19,1.19,0,0,0-1.08,1.67,1,1,0,0,0,.47.51,3,3,0,0,0,1.09.32l4.21.52,2.92.35.28.06c0,.71-.14,1.39-.24,2.08a6.63,6.63,0,0,1-1.21-.11c-1.08-.12-2.16-.26-3.24-.4l-3.3-.43a3.84,3.84,0,0,1-.73-.2,2.67,2.67,0,0,1-1.89-2.37,5.3,5.3,0,0,1,.26-2.31A2.63,2.63,0,0,1,772,88.94a10.38,10.38,0,0,1,1.9.15l3.13.39,3,.36A3.45,3.45,0,0,1,780.42,89.94Z"/><path class="cls-4" d="M623.95,106.13a9.21,9.21,0,0,1-.49-2.09l1.09-.28,6.12-1.53a2.93,2.93,0,0,0,1-.39,1.22,1.22,0,0,0,0-2,1,1,0,0,0-.51-.18,3.37,3.37,0,0,0-1.08.09l-6.91,1.73-.31.06a8.21,8.21,0,0,1-.54-2c.12,0,.25-.11.38-.14l6.6-1.65c.3-.08.6-.13.91-.18a3,3,0,0,1,1.6.18,2.46,2.46,0,0,1,1.17.94,4.84,4.84,0,0,1,.78,3.27,2.38,2.38,0,0,1-1.21,1.79,4.63,4.63,0,0,1-1.35.55l-5.59,1.4Z"/><path class="cls-4" d="M780.45,78.39l-1.3.17-3.24.4c-1,.12-1.91.25-2.86.35a4.38,4.38,0,0,1-1.63-.08,2.54,2.54,0,0,1-1.7-1.34,4.79,4.79,0,0,1-.38-3.34A2.39,2.39,0,0,1,770.61,73a4.05,4.05,0,0,1,1.34-.42c.88-.12,1.76-.23,2.64-.33l3.08-.38,1.91-.22c.15.71.18,1.39.29,2.1-.25,0-.46.09-.67.12l-4,.48-2.7.33a3.22,3.22,0,0,0-1,.28,1.23,1.23,0,0,0-.34,1.9,1,1,0,0,0,.62.31,4.48,4.48,0,0,0,.87,0c.83-.08,1.66-.18,2.49-.29l3.19-.39,1.3-.16.57-.07C780.32,77,780.34,77.64,780.45,78.39Z"/><path class="cls-4" d="M705.68,154.84a5.56,5.56,0,0,0-.16-.81.89.89,0,0,0-1-.66.9.9,0,0,0-.88.74,2.43,2.43,0,0,0,.12,1.55.93.93,0,0,0,1,.64,1,1,0,0,0,.9-.82c0-.18,0-.36.06-.64Zm.54,4.88a3.8,3.8,0,0,0-.32-1.43,1,1,0,0,0-1.07-.58,1,1,0,0,0-1,.71,3.29,3.29,0,0,0,.15,2.33,1.14,1.14,0,0,0,2.05-.13,7.89,7.89,0,0,0,.17-.9Zm.2-2.92.33.12a2,2,0,0,1,1.28,1.18,3.73,3.73,0,0,1,.07,2.87,2.42,2.42,0,0,1-1.41,1.43,4.84,4.84,0,0,1-3,.21,2.47,2.47,0,0,1-1.74-1.52,3.89,3.89,0,0,1-.21-2.45,2,2,0,0,1,1.18-1.47l.14-.08.06-.06-.26-.11a1.87,1.87,0,0,1-1.2-1.38,3.28,3.28,0,0,1,.12-2,2.12,2.12,0,0,1,1-1.15,3.64,3.64,0,0,1,1.29-.39,4.52,4.52,0,0,1,1.78.06,2.25,2.25,0,0,1,1.68,1.55,3.62,3.62,0,0,1,.2,1.23,2,2,0,0,1-1,1.8Z"/><path class="cls-4" d="M695.58,155.81c0,.28.06.63.14,1a.93.93,0,0,0,.85.72,1,1,0,0,0,1.16-.68,4.79,4.79,0,0,0,.26-1.49,3.49,3.49,0,0,0-.1-1.13,1,1,0,0,0-.51-.67,1.06,1.06,0,0,0-1.54.62,2.92,2.92,0,0,0-.12.47c-.05.38-.09.76-.14,1.2Zm-2.11,4.11c.14,0,.25,0,.35,0l1.6.12.05.31c0,.16,0,.32.09.48a.72.72,0,0,0,.38.44,1.15,1.15,0,0,0,1.47-.46,3.26,3.26,0,0,0,.33-1.09c.07-.43.09-.86.14-1.36a1.56,1.56,0,0,0-.27.15,2.8,2.8,0,0,1-3.07.12,2,2,0,0,1-.77-.9,3.89,3.89,0,0,1-.33-1.42,6.26,6.26,0,0,1,.23-2,4.43,4.43,0,0,1,.35-.85,2.54,2.54,0,0,1,1.77-1.32,4.6,4.6,0,0,1,2.42.13,2.44,2.44,0,0,1,1.4,1.14,3.4,3.4,0,0,1,.43,1.22,10,10,0,0,1,.08,2.44c-.06.59-.08,1.2-.17,1.79s-.19,1.11-.32,1.66a3.38,3.38,0,0,1-.5,1.08,2.48,2.48,0,0,1-1.72,1.14,5,5,0,0,1-2.16-.08,2.65,2.65,0,0,1-.41-.15A2.29,2.29,0,0,1,693.46,159.92Z"/><path class="cls-4" d="M750,30.88c.5.49,1,1,1.46,1.51l-.34.37a2.21,2.21,0,0,0-.45.67,1,1,0,0,0,0,.84,1.84,1.84,0,0,0,.59.7,1.17,1.17,0,0,0,1.37,0,2,2,0,0,0,.43-.41,1.25,1.25,0,0,0,.27-1.07,5.45,5.45,0,0,0-.46-1.28,8.59,8.59,0,0,1-.51-1.32,2.79,2.79,0,0,1,.79-2.94,4.23,4.23,0,0,1,1.09-.8,2.35,2.35,0,0,1,2.05-.09,4.44,4.44,0,0,1,2.55,2.81,2.14,2.14,0,0,1-.2,1.73,3.71,3.71,0,0,1-.82,1,8.26,8.26,0,0,1-1.43-1.43c.07-.09.15-.19.22-.29a3.21,3.21,0,0,0,.31-.51.93.93,0,0,0-.12-1,1.14,1.14,0,0,0-1.9-.15,1.26,1.26,0,0,0-.37,1.39c.21.6.44,1.19.65,1.79a6.78,6.78,0,0,1,.4,1.47,2.3,2.3,0,0,1-.43,1.7A4.18,4.18,0,0,1,753.56,37a2.38,2.38,0,0,1-1.85.12,4.11,4.11,0,0,1-.88-.41,5.89,5.89,0,0,1-1.85-1.9,2.52,2.52,0,0,1,.17-3A4.38,4.38,0,0,1,750,30.88Z"/><path class="cls-4" d="M623.95,80.08a10.77,10.77,0,0,1,0,2l-.41.06a3.33,3.33,0,0,0-.47.11.92.92,0,0,0-.63.75,1.62,1.62,0,0,0,.09.91.86.86,0,0,0,.71.53,3.17,3.17,0,0,0,.87,0,.9.9,0,0,0,.62-.4,4,4,0,0,0,.35-.61c.26-.54.49-1.09.75-1.63a8.31,8.31,0,0,1,.57-1,2.34,2.34,0,0,1,1.84-1,4.32,4.32,0,0,1,1.67.19,2.57,2.57,0,0,1,1.59,1.39,3.51,3.51,0,0,1,.33,1.09,6.82,6.82,0,0,1-.08,2.33,2.51,2.51,0,0,1-2.46,2.08c-.3,0-.61,0-.93,0a3.06,3.06,0,0,1,0-1c0-.34,0-.68,0-1l.33,0a5.5,5.5,0,0,0,.7-.07,1,1,0,0,0,.85-.82,1.67,1.67,0,0,0,0-1,1.06,1.06,0,0,0-.71-.7,1.43,1.43,0,0,0-1.8.6,11.24,11.24,0,0,0-.48,1c-.14.32-.23.65-.39,1a6.51,6.51,0,0,1-.56.93,2.4,2.4,0,0,1-1.7,1,4.35,4.35,0,0,1-1.68-.09,2.54,2.54,0,0,1-1.81-1.59,3,3,0,0,1-.18-.63,5,5,0,0,1,.13-2.42,2.4,2.4,0,0,1,2.26-1.82l.49,0A1.09,1.09,0,0,1,623.95,80.08Z"/><path class="cls-4" d="M658.64,29.72c-.15,0-.23.09-.33.15a4.26,4.26,0,0,1-1.43.63,2.14,2.14,0,0,1-1.43-.19,3.9,3.9,0,0,1-1.57-1.5c.55-.45,1.11-.85,1.67-1.27l.23.26a4,4,0,0,0,.29.33,1.15,1.15,0,0,0,1.16.43,1.57,1.57,0,0,0,1.15-1.05.92.92,0,0,0,0-.27,1.54,1.54,0,0,0-1.37-1.45,3.76,3.76,0,0,0-1.23.2,14.34,14.34,0,0,1-1.47.4,4.78,4.78,0,0,1-1.14,0,2,2,0,0,1-1.1-.44,4,4,0,0,1-1.45-2.11,2.39,2.39,0,0,1,.12-1.65,2.08,2.08,0,0,1,.2-.38,4.66,4.66,0,0,1,2.77-2,2.22,2.22,0,0,1,2,.41,3.62,3.62,0,0,1,.86.94c-.5.46-1.06.82-1.62,1.26a4.8,4.8,0,0,0-.38-.44,1.08,1.08,0,0,0-1.71.07,1,1,0,0,0-.2,1.24,2.06,2.06,0,0,0,.27.4,1.21,1.21,0,0,0,1.26.46c.62-.14,1.23-.3,1.85-.43a12.35,12.35,0,0,1,1.23-.21,2.31,2.31,0,0,1,2.05.78,4.74,4.74,0,0,1,.84,1.26,2.58,2.58,0,0,1-.11,2.45,4.72,4.72,0,0,1-.8,1c-.08.08-.23.14-.21.29h0a.53.53,0,0,0-.44.33Z"/><path class="cls-4" d="M623.67,73.8c.49.27,4,1.55,4.41,1.63a6.93,6.93,0,0,0,.26-2c-.47,0-3.52.17-4.67.32Zm-2.14,1.06c.1-.92.22-1.76.36-2.62.73-.16,1.46-.19,2.17-.29s1.44-.17,2.16-.25l2.21-.27c.72-.09,1.44-.18,2.16-.26s1.43-.21,2.19-.24c-.05.75-.18,1.44-.28,2.14-.76.2-1.53.11-2.29.25-.17.93-.28,1.84-.4,2.77.71.32,1.42.52,2.08.81a10.68,10.68,0,0,1-.29,2.19l-.3-.1Z"/><path class="cls-4" d="M711,154.3c0,.39.06.74.1,1.08.09.65.18,1.29.29,1.93s.26,1.35.41,2a3.24,3.24,0,0,0,.27.71.83.83,0,0,0,.89.49.89.89,0,0,0,.87-.7,1.39,1.39,0,0,0,.06-.43c0-.52,0-1-.08-1.57s-.17-1.26-.27-1.88-.26-1.43-.43-2.13a3.29,3.29,0,0,0-.33-.8.79.79,0,0,0-.77-.42.9.9,0,0,0-1,.83,8.25,8.25,0,0,0-.05.87Zm5,4.09a4.67,4.67,0,0,1-.21,1.61,2.47,2.47,0,0,1-1.64,1.68,4.23,4.23,0,0,1-2.4.2,2.19,2.19,0,0,1-1.28-.86,4.74,4.74,0,0,1-.6-1.15,12.82,12.82,0,0,1-.59-2.43,16.92,16.92,0,0,1-.28-3.08,4,4,0,0,1,.26-1.38,2.44,2.44,0,0,1,1.43-1.47,4.61,4.61,0,0,1,2.29-.31,2.2,2.2,0,0,1,1.55.91,3.92,3.92,0,0,1,.59,1.15,14.6,14.6,0,0,1,.44,1.63c.17.89.28,1.79.4,2.69C716,157.84,716,158.12,716,158.39Z"/><path class="cls-4" d="M661.23,19.74l3-1.79c.35.48.61,1,.91,1.48-.5.36-1,.63-1.5.93l-1.5.91a7.11,7.11,0,0,0,.68,1.23,12.18,12.18,0,0,0,.76,1.22c.6-.32,1.14-.67,1.7-1l1.65-1c.36.47.6,1,.89,1.41l0,.1a.09.09,0,0,1,0,0l-4.89,3-.21.11c-.08-.11-.15-.21-.22-.31-2.24-3.66-5-8.38-5.21-8.79.31-.27,4.48-2.79,5-3a.5.5,0,0,1,.11.11l.79,1.32c-.53.39-1.09.68-1.63,1s-1.06.61-1.56,1A12,12,0,0,0,661.23,19.74Z"/><path class="cls-4" d="M720.63,8.66c-.23.82-.45,1.58-.62,2.38,1.12.36,2.26.6,3.39,1a15.73,15.73,0,0,1-.41,1.66,2.92,2.92,0,0,1-.33-.05L720,12.89l-.45-.09c-.27.91-.5,1.79-.73,2.71.64.25,1.28.36,1.9.55s1.23.3,1.85.52a14.82,14.82,0,0,1-.39,1.68c-1-.22-2-.52-3-.77s-1.93-.49-2.89-.79a2.63,2.63,0,0,1,0-.3c.33-1.46,2.54-9.56,2.71-10a.27.27,0,0,1,.11,0l5.41,1.45a.68.68,0,0,1,.16.1c-.08.53-.27,1-.38,1.53-.18.13-.31.05-.45,0l-2.84-.76Z"/><path class="cls-4" d="M744.84,28.65l1.54,1.26c.49.4,1,.77,1.48,1.24-.35.46-.7.9-1.09,1.34-1.58-1.27-3.13-2.53-4.7-3.81a2.24,2.24,0,0,1,.16-.27l6.29-7.8.2-.22c.55.36,1,.81,1.53,1.21l1.52,1.24,1.54,1.25c-.3.52-.72.92-1.06,1.4l-2.92-2.36A13.57,13.57,0,0,0,747.78,25a15.59,15.59,0,0,0,1.32,1.11c.44.37.9.73,1.37,1.11A3.11,3.11,0,0,1,750,28c-.17.21-.34.42-.54.66a3.45,3.45,0,0,1-.31-.2l-1.94-1.58-.5-.39A18.47,18.47,0,0,0,744.84,28.65Z"/><path class="cls-4" d="M704,13.29l3.86.28a4.59,4.59,0,0,1-.08,1.72,7.7,7.7,0,0,1-1.5-.07c-.51,0-1-.07-1.52-.1L703.28,15a10.76,10.76,0,0,1-1.51-.14.58.58,0,0,1,0-.17l.72-10.21a1.47,1.47,0,0,1,.05-.23c2,.11,3.88.26,5.8.39a4.53,4.53,0,0,1-.08,1.71,11.09,11.09,0,0,1-1.83-.09l-1.86-.12a5.25,5.25,0,0,0-.13,1.25,7.17,7.17,0,0,0-.07,1.22c1.16.16,2.32.15,3.46.3a5,5,0,0,1-.09,1.7,10.64,10.64,0,0,1-1.73-.08l-1.75-.11a3.27,3.27,0,0,0-.08.39C704.09,11.63,704,12.42,704,13.29Z"/><path class="cls-4" d="M759.43,37.54a7.66,7.66,0,0,0,.76,1,1.2,1.2,0,0,0,1.3.31,2.36,2.36,0,0,0,1.23-.94,1.11,1.11,0,0,0,.11-1.09,3.85,3.85,0,0,0-.85-1.19l-2.55,1.93Zm-1.29,1-1.72,1.29c-.55.41-1.08.84-1.67,1.24l-1.23-1.63c.06-.22.24-.3.38-.4l5.39-4.07,2.35-1.78c.1-.08.2-.14.33-.22.09.1.16.17.23.26.67.88,1.34,1.77,2,2.66a4.84,4.84,0,0,1,.46.74,2.39,2.39,0,0,1-.11,2.4,4.18,4.18,0,0,1-2.34,1.85,2.4,2.4,0,0,1-1.7-.08A3.73,3.73,0,0,1,759,39.65c-.2-.24-.37-.49-.56-.73Z"/><path class="cls-4" d="M746.78,18.81l-.51.38-4.83,3.37a2.31,2.31,0,0,0-.7.74c-.53.87-1.07,1.73-1.61,2.59-.09.15-.2.3-.29.45a7.3,7.3,0,0,1-1.8-1.07,2.18,2.18,0,0,1,.12-.27L739,22.08a1.86,1.86,0,0,0,.29-.75c.16-1.08.33-2.15.5-3.23l.46-3a2.19,2.19,0,0,1,.08-.26,11.48,11.48,0,0,1,2,1.24c-.27,1.36-.64,2.72-1,4.22,1.23-.93,2.32-1.83,3.46-2.7Z"/><path class="cls-4" d="M635.06,38.84l.32.44c1.14,1.64,2.28,3.28,3.42,4.92a2,2,0,0,0,.62.59c.9.55,1.79,1.12,2.68,1.68l.45.29a8.92,8.92,0,0,1-1.12,1.81L641,48.3l-2.72-1.71a1.75,1.75,0,0,0-.7-.27l-3.71-.58-2.78-.44a1.68,1.68,0,0,1,.09-.26l1-1.62a1.89,1.89,0,0,1,.15-.17l4.14,1a8.36,8.36,0,0,0-.85-1.18c-.28-.38-.58-.74-.87-1.12l-.86-1.11A10.56,10.56,0,0,1,635.06,38.84Z"/><path class="cls-4" d="M710.85,4.87l2,.33a1.86,1.86,0,0,1,0,.33q-.41,2.64-.83,5.27l-.45,2.85c0,.11,0,.21,0,.35,1.22.25,2.44.38,3.63.61a4.91,4.91,0,0,1-.24,1.7,1.93,1.93,0,0,1-.26,0c-1.84-.3-3.68-.57-5.51-.89C709.2,15,710.67,5.57,710.85,4.87Z"/><path class="cls-4" d="M771.7,83.51a11.91,11.91,0,0,0,0,1.27c0,.4,0,.8,0,1.2s0,.83,0,1.27a2.48,2.48,0,0,1-.86.07h-.79l-.06-.07s0,0,0,0q-.06-2.61-.11-5.22c0-.15,0-.29,0-.44s0-.06.05-.12l.24,0c2.2-.11,9.68-.22,10.28-.15a8,8,0,0,1,.06,2.07l-.3.05H780l-7.78.13Z"/><path class="cls-4" d="M688.5,154.15c-.67-.2-1.35-.19-2-.39a6.94,6.94,0,0,1,.23-1.34l.33,0a3.39,3.39,0,0,0,1.14,0,1.78,1.78,0,0,0,1.22-.91l.17-.32a4.62,4.62,0,0,1,1.5.24.37.37,0,0,1,0,.1q-.78,5-1.58,10c0,.09,0,.17-.07.28-.68-.06-1.34-.19-2-.3-.14-.16-.06-.33,0-.49q.16-1.11.35-2.2l.71-4.46S688.5,154.26,688.5,154.15Z"/><path class="cls-4" d="M736.76,12.9l1.79,1c.07.22-.06.35-.13.49l-2.88,5.44-1.61,3c-.08.16-.17.31-.26.46a7.82,7.82,0,0,1-1.86-.94c0-.2.13-.36.22-.53q2.15-4.07,4.31-8.13Z"/><path class="cls-4" d="M673.64,9.05l2-.69a3,3,0,0,1,.16.34L679,18.06c0,.12.07.24.11.38-.65.28-1.31.46-2,.71-.34-.84-.59-1.69-.89-2.52s-.58-1.68-.87-2.52l-.85-2.47Z"/><path class="cls-5" d="M659.07,29.4s.09.08.12.06a2.19,2.19,0,0,0,.32-.2l.49-.36c0,.06.08.1.09.14,0,.8.08,1.59.12,2.4l-1.09.82c-.27-.72-.44-1.42-.66-2.13a3.37,3.37,0,0,0,.23-.28s0-.08,0-.12h0s0,.08.06.08a.65.65,0,0,0,.44-.34s0,0-.06-.07Z"/><path class="cls-5" d="M781.17,91.25l1.72.21a9.94,9.94,0,0,1-.2,1.63c-.57,0-1.1-.13-1.66-.16a1.65,1.65,0,0,1,0-.82C781.09,91.85,781.13,91.58,781.17,91.25Z"/><path class="cls-5" d="M780.87,93.83c.6,0,1.13.12,1.67.18a1.86,1.86,0,0,1,0,.82c0,.27-.07.53-.1.79a6.91,6.91,0,0,1-1.72-.21A11.77,11.77,0,0,1,780.87,93.83Z"/><path class="cls-5" d="M738.22,10.75l1.39.74a11.84,11.84,0,0,1-.77,1.55,10.63,10.63,0,0,1-1.43-.73A6.5,6.5,0,0,1,738.22,10.75Z"/><path class="cls-5" d="M776.42,112.23a13.57,13.57,0,0,1,.61-1.51c.55.16,1.06.39,1.57.58a5.41,5.41,0,0,1-.6,1.55A12.92,12.92,0,0,1,776.42,112.23Z"/><path class="cls-5" d="M777.15,115.28a14.21,14.21,0,0,1-1.64-.64,10.63,10.63,0,0,1,.61-1.54l1.58.61C777.57,114.26,777.33,114.72,777.15,115.28Z"/><path class="cls-5" d="M627,47.45a16.51,16.51,0,0,1,1.53.74,15.12,15.12,0,0,1-.66,1.47,16.59,16.59,0,0,1-1.53-.68c0-.08,0-.14,0-.18A10.87,10.87,0,0,1,627,47.45Z"/><path class="cls-5" d="M627.49,50.53a9.41,9.41,0,0,1-.66,1.43,5.63,5.63,0,0,1-1.56-.71,10.09,10.09,0,0,1,.68-1.47A16.17,16.17,0,0,1,627.49,50.53Z"/><path class="cls-5" d="M635.22,34.25l1-1.28a14.77,14.77,0,0,1,1.33,1,5.12,5.12,0,0,1-1,1.28s-.08,0-.1,0Z"/><path class="cls-5" d="M636.82,32.26l1-1.26a6.1,6.1,0,0,1,1.38,1.1l-1,1.24C637.72,33,637.34,32.62,636.82,32.26Z"/><path class="cls-5" d="M673,6.53,674.58,6a11.78,11.78,0,0,1,.57,1.63,11.17,11.17,0,0,1-1.5.56A14.18,14.18,0,0,1,673,6.53Z"/><path class="cls-6" d="M701.25,95a1.64,1.64,0,0,0,1.67,1.7,1.67,1.67,0,0,0,1.7-1.69,1.69,1.69,0,0,0-1.69-1.7A1.67,1.67,0,0,0,701.25,95Zm-.52,0a1.7,1.7,0,0,0-1.67-1.71,1.7,1.7,0,0,0,0,3.4A1.7,1.7,0,0,0,700.74,95ZM701,83.65l2,1.2c.67.39,1.32.81,2,1.17,0-.06.08-.09.08-.11,0-.55,0-1.09,0-1.66-1.37-.83-2.74-1.64-4.12-2.45l-4.12,2.44a17.78,17.78,0,0,0,0,1.78,6.11,6.11,0,0,0,.85-.46l.8-.47.84-.5.8-.47.81-.47Zm16.4-17.38v-2.1l-10.27-9a5.36,5.36,0,0,0-1.25,1.09l11.32,9.89a1.59,1.59,0,0,0,.2.1Zm-32.8-.06.11,0,.09-.05,11.27-9.86a.07.07,0,0,0,0,0,.32.32,0,0,0,0-.08,13.68,13.68,0,0,0-1.15-1c-.55.4-10.06,8.74-10.33,9.06,0,.65,0,1.3,0,2Zm0,7.1V68.14c.28-.32,15.9-14.18,16.39-14.53H701l0,0,16,14.2.28.26v5.28a1,1,0,0,1-.21-.44,17.1,17.1,0,0,0-13-11.44,17,17,0,0,0-19.3,11.14l-.24.7-.08,0Zm22.11,34.8-.6-.39-1.75-1.11c-.23-.15-.45-.31-.67-.47a2.68,2.68,0,0,1-1-1.34c-.15-.45-.24-.91-.38-1.36a5.23,5.23,0,0,1-.19-1.77c0-.4,0-.8,0-1.2a1.37,1.37,0,0,1,0-.38.34.34,0,0,1,.17-.18.22.22,0,0,1,.28.1,1.39,1.39,0,0,1,.12.41c.05.3.09.61.14.91a4,4,0,0,0,.14.42,17.26,17.26,0,0,0,.26-2.34c.06-.74.1-1.49.15-2.26l.33-.24a7.66,7.66,0,0,0,.71-.58,1.66,1.66,0,0,0,.28-2.05c-.1-.19-.22-.37-.33-.55a17.35,17.35,0,0,1,1.79-4.34c-.23-.29-.6-.44-.88-.72a2.34,2.34,0,0,1,.62-.52l.89.28a1,1,0,0,0,.74,0,1.33,1.33,0,0,1,1.21.08,1.37,1.37,0,0,1,.44.39c.21.29.15.54-.15.79l-.14.14a12.64,12.64,0,0,1,3.9,4.69,11.46,11.46,0,0,1,1.09,3.7,2.87,2.87,0,0,1-.16-.31,11,11,0,0,0-2-3.36,23.86,23.86,0,0,0-4.24-3.9l-.1,0a4.7,4.7,0,0,0-1.09,4.24c.26.22.53.43.79.66a7.78,7.78,0,0,1,1.52,1.84.61.61,0,0,1,0,.66,2.64,2.64,0,0,1-.24.36,5.76,5.76,0,0,1-1.83,1.52,1.45,1.45,0,0,1-1.27.15,4.41,4.41,0,0,0-.88,2.2c0,.09,0,.18,0,.27a1.9,1.9,0,0,0,.4,1.64c.16.26.31.53.48.79a.57.57,0,0,1,0,.75.66.66,0,0,0-.07.15,8.77,8.77,0,0,0,1.29,1.29c.15,0,.12-.14.12-.23a25.06,25.06,0,0,0-.31-4.18c-.09-.56-.2-1.11-.29-1.66a.46.46,0,0,1,.25-.59,2.16,2.16,0,0,1,.88-.28l.95-.09c0-.19.09-.38.13-.57a3.15,3.15,0,0,1,.39-1,.63.63,0,0,1,.77-.33q1.61.38,3.25.69a1.92,1.92,0,0,1,1.61,1.75,5.34,5.34,0,0,1-.28,2.57c-.47,1.43-.95,2.86-1.43,4.29-.15.47-.35.92-.46,1.4a1.08,1.08,0,0,1-1.4.69.46.46,0,0,1-.33-.64c.14-.58.3-1.16.44-1.74.32-1.32.64-2.64,1-4a1.73,1.73,0,0,0,0-.81,1.15,1.15,0,0,0-.85-.91,5.4,5.4,0,0,0-1.75-.11,3.56,3.56,0,0,0,0,.36c0,.51,0,1,0,1.53a30.25,30.25,0,0,1-1.53,8.66,4.75,4.75,0,0,1-.22.56.33.33,0,0,1-.5.14,1.4,1.4,0,0,1-.63-1.35c.07-.45.17-.89.23-1.34s.1-.83.14-1.25c0-.17,0-.33,0-.55Zm10-12.21H715.2c-.13-.16-.08-.33-.08-.49q0-2.51,0-5V81a1.16,1.16,0,0,0-.27-.06h-6.43a.7.7,0,0,0-.15,0c-.13.15-.08.32-.08.47,0,1.33,0,2.65,0,4V86a5,5,0,0,1-1.26.06c-.39,0-.79,0-1.16,0a.66.66,0,0,1-.1-.51c0-1.34,0-2.69,0-4V81a1.06,1.06,0,0,0-.61-.08h-8.29l-.4,0a9.09,9.09,0,0,0,0,1.05c0,.33,0,.65,0,1v1c0,.33,0,.65,0,1s0,.68,0,1a12,12,0,0,1-2.48,0,5.67,5.67,0,0,1,0-1.24c0-.44,0-.87,0-1.31V82.24c0-.41,0-.83,0-1.27a2,2,0,0,0-.29,0h-6.38l-.19,0a1.88,1.88,0,0,0-.05.3c0,.24,0,.47,0,.71v13.3c0,.2,0,.39,0,.61a3.41,3.41,0,0,1-.77,0h-.78c0-.18,0-.32,0-.46,0-1.11,0-2.22,0-3.33,0-4.63,0-9.27,0-13.9a15.46,15.46,0,0,1,5.25-11.73,15.07,15.07,0,0,1,8-3.82,15.63,15.63,0,0,1,17.13,10,15.4,15.4,0,0,1,1,4.61c0,.6.06,1.2.06,1.79q0,8.07,0,16.13c0,.22,0,.44,0,.7Zm-28.63,1.53a12.47,12.47,0,0,1,4.85-7.64c0-.13-.09-.14-.15-.2a.5.5,0,0,1-.14-.67,1,1,0,0,1,.47-.43,1.7,1.7,0,0,1,1.28-.06,4.24,4.24,0,0,1,.42.18l1.13-.5.36.26c.1.08.18.16.31.27l-.9.68c.24.48.5.93.71,1.4s.41,1,.61,1.46a6.27,6.27,0,0,1,.48,1.5l-.26.41a1.71,1.71,0,0,0,.34,2.35c.26.24.58.44.9.68.12,1.46.15,3,.38,4.54a2.89,2.89,0,0,0,.31-1.13c0-.12,0-.26,0-.38a.4.4,0,0,1,.33-.32c.2,0,.33,0,.34.24s0,.62,0,.93,0,.33,0,.49a9.28,9.28,0,0,1-.47,2.89,3.28,3.28,0,0,1-1.43,2l-2.07,1.32-.56.36a11.27,11.27,0,0,0,.07,1.85c.06.45.16.9.21,1.34a1.35,1.35,0,0,1-.55,1.29.36.36,0,0,1-.62-.15c0-.08-.07-.17-.1-.26a26.29,26.29,0,0,1-1.3-5.39,37.72,37.72,0,0,1-.35-4.56c0-.27,0-.54,0-.83a2.06,2.06,0,0,0-.34,0c-.29,0-.58,0-.87,0a4.25,4.25,0,0,0-.43.07,1.2,1.2,0,0,0-1,1.29,2.9,2.9,0,0,0,.08.54q.63,2.59,1.28,5.18c0,.18.1.35.13.53a.45.45,0,0,1-.33.55,1.12,1.12,0,0,1-1.42-.65c-.63-2-1.31-4-2-5.95a4.59,4.59,0,0,1-.2-2.41,3.19,3.19,0,0,1,.15-.52A1.69,1.69,0,0,1,689,98.91c1.2-.27,2.41-.52,3.62-.78a.51.51,0,0,1,.53.21,2.06,2.06,0,0,1,.39.77c.09.31.16.63.24,1l1,.11a2.09,2.09,0,0,1,.87.29.48.48,0,0,1,.23.55c-.15.8-.28,1.61-.4,2.41a23.36,23.36,0,0,0-.21,3.48,1.28,1.28,0,0,0,0,.16,4,4,0,0,0,1.39-1.29l-.12-.2a.52.52,0,0,1,0-.61c.26-.41.51-.84.77-1.26a1,1,0,0,0,.17-.56,5.15,5.15,0,0,0-.15-1.46,2.91,2.91,0,0,0-1-1.5,1.08,1.08,0,0,1-.92-.16,6.24,6.24,0,0,1-2-1.78,2.59,2.59,0,0,1-.2-.33.57.57,0,0,1,0-.61,8,8,0,0,1,1.59-1.92c.23-.2.48-.39.74-.6a4.88,4.88,0,0,0-1.2-4.34,1,1,0,0,0-.2.1,28,28,0,0,0-3.89,3.73,12.93,12.93,0,0,0-2,3.17.33.33,0,0,1,0,.11l-.27.76-.06,0a2,2,0,0,1,.12-.91Zm-9.71-32.51c1,0,1.94,0,2.87,0a1.88,1.88,0,0,0,0-.27V59.43l-.48-.08s-.05-.07,0-.09c.11-.46.21-.92.33-1.37l1.75-6.8a1,1,0,0,1,.05-.13.65.65,0,0,1,.12.18l2.08,8.07a.83.83,0,0,1,0,.14l-.46.07a16.38,16.38,0,0,0,0,2.87c.16.1.23,0,.32-.12l3.49-3,6.2-5.42.31-.25c.7.54,1.29,1.18,2,1.74a9.82,9.82,0,0,0,.81-.65l.8-.66.84-.7.8-.66.78-.64H701l0,0,3.75,3.44a9.61,9.61,0,0,0,1.12-.93c.38-.31.74-.64,1.13-1,.61.49,1.17,1,1.74,1.5l1.68,1.47,1.72,1.51,1.68,1.47,1.72,1.51c.56.49,1.11,1,1.67,1.45.05,0,.1-.07.1-.09a22.59,22.59,0,0,0,0-2.84l-.5-.07c.71-2.78,1.42-5.54,2.15-8.29,0,0,.05,0,.11-.08l2.16,8.35-.5.09a.36.36,0,0,0-.06.14c0,.42,0,.84,0,1.25v4.05a3,3,0,0,0,.39.05h2.07l.35,0c0,.16-.07.23-.13.31-.37.49-.74,1-1.12,1.47a.88.88,0,0,0-.22.65c0,.14,0,.29,0,.44q0,12.21,0,24.42c0,1.73,0,3.45-.07,5.18A20.54,20.54,0,0,1,718,108.92a20.8,20.8,0,0,1-12.58,8.31,20.11,20.11,0,0,1-5.85.45,21,21,0,0,1-19.09-16.11,21.94,21.94,0,0,1-.59-5c0-2.94,0-5.89,0-8.83V67.77a4.22,4.22,0,0,1,0-.44.81.81,0,0,0-.2-.6c-.39-.5-.77-1-1.16-1.52Z"/><path class="cls-7" d="M656.28,65.72c.17-.73.43-1.37.63-2s.42-1.27.63-1.93l-.84-.64-.83-.62-.79-.59c-.27-.2-.54-.39-.87-.66a4.32,4.32,0,0,1,.9,0h2.34a3.64,3.64,0,0,0,.85,0c.44-1.23.79-2.5,1.26-3.8.28.67.44,1.3.64,1.91s.4,1.24.61,1.89c.15,0,.29,0,.43,0h3.57c.06.16-.05.19-.11.23l-2.61,2-.44.35.41,1.31c.14.43.28.86.42,1.29a9.49,9.49,0,0,1,.4,1.37l-3.28-2.41a7.08,7.08,0,0,0-.85.59l-.79.58-.83.62A8.22,8.22,0,0,1,656.28,65.72Z"/><path class="cls-7" d="M736.73,59.25a9.68,9.68,0,0,1,1.1,0h2a5.37,5.37,0,0,0,1,0c.44-1.23.8-2.5,1.26-3.82.29.68.44,1.31.64,1.93s.39,1.25.58,1.83a.72.72,0,0,0,.51.09h3.52c.06.16-.06.19-.12.23l-2.61,2-.44.35c.39,1.31.85,2.58,1.16,3.92l-3.22-2.37c-.3.18-.56.4-.84.6l-.79.58-.83.62c-.26.19-.51.39-.86.61.17-.73.42-1.35.62-2s.42-1.28.62-1.9c0-.19-.21-.26-.34-.35l-2.45-1.82Z"/><path class="cls-8" d="M681.88,42.07l-3.22,2.43c.15.69.41,1.33.61,2s.41,1.27.61,1.9l-.06,0-.05,0-3.18-2.32c-.57.36-1.09.78-1.63,1.17l-1.65,1.21a.68.68,0,0,1,.08-.49c.32-1,.65-2,1-3,0-.14.08-.27.14-.45-.12-.11-.24-.21-.36-.31l-2.66-2c-.08-.06-.22-.08-.18-.27h4c.06-.14.12-.27.16-.4.33-1,.65-2,1-3,0-.12.09-.24.15-.41a4.16,4.16,0,0,1,.34.92c.11.33.21.66.31,1l.3.93.3.94a12,12,0,0,0,1.37,0h2.66Z"/><path class="cls-8" d="M727,44.57c.2.63.43,1.28.63,1.94s.45,1.25.61,2l-3.3-2.43a9.89,9.89,0,0,0-.84.59l-.79.58-.84.61-.85.62a7.72,7.72,0,0,1,.38-1.35c.13-.44.28-.86.42-1.29l.43-1.3a11.17,11.17,0,0,0-1.08-.85c-.36-.28-.73-.55-1.09-.82l-1.07-.8c.05-.16.16-.12.24-.12h3.22l.57,0c.43-1.24.81-2.49,1.22-3.71.12,0,.14,0,.16.12l1,3.11c0,.15.1.3.16.46a3.64,3.64,0,0,0,.83,0h2.4c.26,0,.53,0,.79,0a.4.4,0,0,1,0,.09.1.1,0,0,1,0,0l-.13.11-3,2.23,0,0Z"/><path class="cls-7" d="M658.32,106.6l1.25-3.84a17.91,17.91,0,0,1,.67,2c.21.62.39,1.24.6,1.89H665c-.58.53-1.14.89-1.66,1.29l-1.63,1.23a3.54,3.54,0,0,0,.08.37l1.05,3.26.07.24s0,.06,0,.06h-.05l-3.18-2.32c-.58.36-1.09.79-1.63,1.18l-1.7,1.25c.18-.76.44-1.4.64-2s.42-1.28.64-1.94c-.55-.43-1.11-.83-1.66-1.25l-1.61-1.2c0-.15.15-.11.23-.11h3.8Z"/><path class="cls-7" d="M736.9,106.59h3.94c.45-1.25.81-2.52,1.25-3.81a6,6,0,0,1,.46,1.26c.15.43.27.87.41,1.3l.4,1.25h4c.07.14,0,.18-.09.23l-2.61,2-.45.35c.15.67.41,1.31.61,2s.41,1.27.61,1.89l-.07,0h-.05l-.09-.06-3-2.2,0,0-.11,0-1.06.77-1.05.77a11.77,11.77,0,0,1-1.16.82c.41-1.37.88-2.64,1.27-4l-.44-.34-2.62-2C736.95,106.8,736.81,106.76,736.9,106.59Z"/><path class="cls-7" d="M748.42,79c.48,1.35.82,2.62,1.26,3.88h4c.06.18-.08.2-.15.26L751,85.11l-.44.35c.15.68.41,1.32.61,2s.41,1.27.62,1.9l-.06,0-.05,0-.14-.09-3-2.19-.09,0c-.53.35-1.06.77-1.6,1.16l-1.7,1.25c.18-.76.43-1.39.64-2s.41-1.28.62-1.92a8.4,8.4,0,0,0-1.08-.85l-1.09-.82-1.07-.8c0-.05,0-.08,0-.09l0,0h3.86l.09,0Z"/><path class="cls-7" d="M648.32,82.93h3.95c.06-.13.12-.26.17-.39l1-3c0-.13.1-.26.18-.46.47,1.32.8,2.59,1.25,3.85h4c0,.17-.09.2-.17.26l-2.52,1.9-.49.38c.38,1.32.85,2.59,1.26,4a8.18,8.18,0,0,1-.9-.62l-.79-.58-.83-.61-.81-.59-1.64,1.2c-.54.39-1.06.81-1.7,1.23.41-1.38.88-2.66,1.28-4-.55-.44-1.11-.84-1.66-1.25A11.26,11.26,0,0,1,648.32,82.93Z"/><path class="cls-7" d="M703.06,133l1.28,4a9.51,9.51,0,0,1-.91-.64l-.79-.58-.83-.61-.81-.59L697.67,137c.41-1.41.89-2.67,1.28-4-.54-.44-1.11-.83-1.65-1.25s-1.08-.78-1.65-1.25a1.59,1.59,0,0,1,.53,0h3.54c.45-1.27.8-2.54,1.28-3.87.49,1.33.81,2.61,1.26,3.87h4c0,.17-.09.2-.17.26l-2.52,1.9Z"/><path class="cls-7" d="M706.29,35.5l-3.2,2.41c0,.14.05.28.1.42l1,3c.05.17.1.34.17.6-1.17-.84-2.23-1.66-3.33-2.45l-3.22,2.37c-.13-.09,0-.17,0-.24l1-3.21.14-.44a3.46,3.46,0,0,0-.27-.25l-2.49-1.86-.47-.36c0-.15.14-.11.21-.11h3.78c.06-.15.12-.27.16-.41l1-2.95.17-.48c.08.18.14.3.18.43.33,1,.65,2,1,3.06,0,.1.08.2.13.33.45,0,.9,0,1.35,0h2.65S706.28,35.46,706.29,35.5Z"/><path class="cls-7" d="M679.82,130.51l-3.22-2.37a7.62,7.62,0,0,0-.84.59l-.79.58-.83.62-.79.57c-.12-.09,0-.17,0-.24l1-3.21.14-.44c-.09-.08-.17-.18-.27-.25l-2.49-1.86-.47-.36c0-.15.14-.11.22-.11h3.77c.06-.15.12-.28.16-.41.33-1,.65-2,1-3,0-.12.09-.23.16-.42.08.19.14.31.18.43q.48,1.5,1,3c0,.12.09.24.14.38.46,0,.91,0,1.36,0h2.74a3.08,3.08,0,0,1-.55.47l-.56.43-.52.39-.52.39-.56.43-.54.41a3.74,3.74,0,0,0,.09.42l1,3,.14.46Z"/><path class="cls-7" d="M730.17,124a10,10,0,0,1-1.53,1.3L727,126.56c0,.18.09.36.15.52l1,3.05a3.34,3.34,0,0,1,.07.38c-.43-.27-.77-.55-1.12-.8l-1.1-.81-1.07-.78-1.07.79-1.1.81a10.08,10.08,0,0,1-1.12.78c.15-.72.41-1.34.61-2s.41-1.28.63-1.92a8.15,8.15,0,0,0-1.07-.85c-.36-.28-.73-.55-1.09-.82l-1.08-.8c.06-.15.17-.11.24-.11h3.22l.56,0,1.2-3.71c.13,0,.14.06.17.12l1,3.06c.05.17.11.34.18.53.68,0,1.35,0,2,0Z"/><path class="cls-9" d="M769.83,99.57c1.08.23,2.07.5,3.05.75a3.9,3.9,0,0,1-.42,1.59,1.22,1.22,0,0,1-1.19.61,2.77,2.77,0,0,1-.94-.24,1.27,1.27,0,0,1-.79-1.2,1.08,1.08,0,0,1,0-.27C769.64,100.42,769.73,100,769.83,99.57Z"/><path class="cls-9" d="M774.44,100.7l2.58.65a2.91,2.91,0,0,1-.48,1.65.92.92,0,0,1-.65.35,2.15,2.15,0,0,1-1-.16,1.08,1.08,0,0,1-.73-1A3.54,3.54,0,0,1,774.44,100.7Z"/><path class="cls-10" d="M634.85,110.15c-1,.43-2,.78-3,1.15a4.63,4.63,0,0,1-.49-1.28,1.27,1.27,0,0,1,.73-1.53,2.28,2.28,0,0,1,1-.29,1.11,1.11,0,0,1,.92.39,1.88,1.88,0,0,1,.31.44C634.55,109.37,634.68,109.73,634.85,110.15Z"/><path class="cls-9" d="M630.42,111.87l-2.5,1a1.27,1.27,0,0,1-.16-.27c-.12-.34-.24-.68-.33-1a1,1,0,0,1,.54-1.19,2.23,2.23,0,0,1,.81-.29,1,1,0,0,1,1.08.48,4.29,4.29,0,0,1,.33.62A1.84,1.84,0,0,1,630.42,111.87Z"/><path class="cls-9" d="M695.05,13.57c-.11-1.06-.16-2.09-.23-3.13a4.48,4.48,0,0,1,1.4-.11,1.26,1.26,0,0,1,1.22,1.12,3.91,3.91,0,0,1,0,.87,1.13,1.13,0,0,1-.7,1,1.68,1.68,0,0,1-.36.13A4.47,4.47,0,0,1,695.05,13.57Z"/><path class="cls-9" d="M694.76,8.87a18.11,18.11,0,0,1-.18-2.74,4.14,4.14,0,0,1,1.44,0,1,1,0,0,1,.84.82,3.81,3.81,0,0,1,0,1,.91.91,0,0,1-.61.77A3.19,3.19,0,0,1,694.76,8.87Z"/><path class="cls-9" d="M630.06,62.58c.13-.39.25-.77.39-1.14a1.56,1.56,0,0,1,.22-.37,1.15,1.15,0,0,1,1-.51A2.43,2.43,0,0,1,633,61a1.09,1.09,0,0,1,.52.9,2.56,2.56,0,0,1,0,.38,4.63,4.63,0,0,1-.41,1.37l-2.8-.92Z"/><path class="cls-9" d="M628.61,62.16l-2.55-.84a3.19,3.19,0,0,1,.54-1.54,1,1,0,0,1,.91-.39,2.23,2.23,0,0,1,1,.32,1,1,0,0,1,.51.9A3.94,3.94,0,0,1,628.61,62.16Z"/><path class="cls-9" d="M626.17,93.82l-2.81.34a1.19,1.19,0,0,1-.23,0,10.35,10.35,0,0,1-.14-1.3,1.2,1.2,0,0,1,1-1.27,3.66,3.66,0,0,1,.81,0,1.12,1.12,0,0,1,1.09.83,5.13,5.13,0,0,1,.17.79C626.14,93.35,626.14,93.54,626.17,93.82Z"/><path class="cls-9" d="M681.49,11.43c-.25-1-.49-2-.73-2.94a2.68,2.68,0,0,1,.31-.12c.24-.07.49-.13.74-.18a3,3,0,0,1,.49,0,1.11,1.11,0,0,1,1.08.68,2.42,2.42,0,0,1,.24,1.1,1.18,1.18,0,0,1-.59,1l-.19.11c-.19.07-.38.14-.56.18S681.79,11.36,681.49,11.43Z"/><path class="cls-9" d="M769.05,52.85a20.22,20.22,0,0,1,2.79-1.22,5.18,5.18,0,0,1,.58,1.38,1.09,1.09,0,0,1-.38,1.12,2.3,2.3,0,0,1-1.28.54,1,1,0,0,1-.85-.3,1.82,1.82,0,0,1-.37-.46C769.37,53.57,769.23,53.22,769.05,52.85Z"/><path class="cls-11" d="M729,11.16c.36.15.68.27,1,.41a1.41,1.41,0,0,1,.89,1.48,4.1,4.1,0,0,1-.15.85,17.58,17.58,0,0,1-1.36,3.37,6.18,6.18,0,0,1-.57.86,1.29,1.29,0,0,1-1.52.42c-.36-.11-.7-.28-1-.41l0-.09s0,0,0-.05l2.65-6.61C728.93,11.33,729,11.27,729,11.16Z"/><path class="cls-11" d="M762.29,48.6a1.06,1.06,0,0,1-1-.55,1.15,1.15,0,0,1,.08-1.54,5.19,5.19,0,0,1,.55-.53,7,7,0,0,1,.56-.43,27.18,27.18,0,0,1,2.84-1.71,5.28,5.28,0,0,1,1.42-.55,1.11,1.11,0,0,1,1.25.55,1.14,1.14,0,0,1,0,1.37,2.41,2.41,0,0,1-.48.52,19.19,19.19,0,0,1-4.4,2.67A2,2,0,0,1,762.29,48.6Z"/><path class="cls-9" d="M706.22,159.72a7.89,7.89,0,0,1-.17.9,1.14,1.14,0,0,1-2.05.13,3.29,3.29,0,0,1-.15-2.33,1,1,0,0,1,1-.71,1,1,0,0,1,1.07.58A3.8,3.8,0,0,1,706.22,159.72Z"/><path class="cls-9" d="M705.68,154.84c0,.28,0,.46-.06.64a1,1,0,0,1-.9.82.93.93,0,0,1-1-.64,2.43,2.43,0,0,1-.12-1.55.9.9,0,0,1,.88-.74.88.88,0,0,1,1,.66A4.86,4.86,0,0,1,705.68,154.84Z"/><path class="cls-9" d="M695.58,155.81c.05-.44.09-.82.14-1.2a3.36,3.36,0,0,1,.12-.47,1.06,1.06,0,0,1,1.54-.62.93.93,0,0,1,.51.67,3.49,3.49,0,0,1,.1,1.13,4.79,4.79,0,0,1-.26,1.49,1,1,0,0,1-1.16.68.93.93,0,0,1-.85-.72C695.64,156.44,695.62,156.09,695.58,155.81Z"/><path class="cls-2" d="M659.08,29.39s.07.06.06.07a.66.66,0,0,1-.44.34s0-.05-.06-.08A.53.53,0,0,1,659.08,29.39Z"/><path class="cls-12" d="M623.67,73.8c1.15-.15,4.2-.36,4.67-.32a6.94,6.94,0,0,1-.26,2C627.63,75.34,624.16,74.06,623.67,73.8Z"/><path class="cls-10" d="M711,154.3c0-.26,0-.57.05-.87a.9.9,0,0,1,1-.83.79.79,0,0,1,.77.42,3.29,3.29,0,0,1,.33.8c.16.7.3,1.41.43,2.13s.21,1.25.27,1.88.06,1,.08,1.57a1.51,1.51,0,0,1-.06.43.89.89,0,0,1-.87.7.83.83,0,0,1-.89-.49,3.24,3.24,0,0,1-.27-.71q-.23-1-.41-2c-.11-.64-.21-1.29-.29-1.93C711.09,155,711.07,154.69,711,154.3Z"/><path class="cls-9" d="M759.43,37.54,762,35.62a4,4,0,0,1,.85,1.19,1.11,1.11,0,0,1-.11,1.09,2.34,2.34,0,0,1-1.23.94,1.19,1.19,0,0,1-1.3-.31A7.93,7.93,0,0,1,759.43,37.54Z"/><path class="cls-13" d="M690,75.29a16.75,16.75,0,0,0-1,2.84,6.35,6.35,0,0,0,1.66,0,16.46,16.46,0,0,0,.93-2.84c-.55,0-1.08,0-1.64,0Zm20.32,0c.36,1,.66,2,1,2.86a5.36,5.36,0,0,0,1.73,0c-.33-.94-.63-1.88-1-2.81l-1.22,0Zm-12.61,0-.21.45L696.92,77a.74.74,0,0,1-.19.31c-.35-.7-.58-1.41-.93-2.08h-1.55s-.09,0-.15.08l1,2.76a25.2,25.2,0,0,0,3.38,0l.92-2.71a.09.09,0,0,0,0-.05l0,0Zm8.5,0c-.36.7-.57,1.41-.95,2.09-.37-.71-.58-1.43-.93-2.06a4.65,4.65,0,0,0-1.71,0c.16.46.31.93.48,1.38a10.45,10.45,0,0,0,.52,1.4,29.86,29.86,0,0,0,3.33,0c.16-.45.32-.91.48-1.37a9.25,9.25,0,0,0,.46-1.46c-.58,0-1.12,0-1.68,0ZM690.94,71.9h20l.05,0,0,0a9.87,9.87,0,0,0-3.19-5.26,10.41,10.41,0,0,0-14,.22,9.75,9.75,0,0,0-2.94,5.1Zm25.78,24H715.2c-.13-.16-.08-.33-.08-.49q0-2.51,0-5V81a1.16,1.16,0,0,0-.27-.06h-6.43a.7.7,0,0,0-.15,0c-.13.15-.08.32-.08.47,0,1.33,0,2.65,0,4V86a5,5,0,0,1-1.26.06c-.39,0-.79,0-1.16,0a.66.66,0,0,1-.1-.51c0-1.34,0-2.69,0-4V81a1.06,1.06,0,0,0-.61-.08h-8.29l-.4,0a9.09,9.09,0,0,0,0,1.05c0,.33,0,.65,0,1v1c0,.33,0,.65,0,1s0,.68,0,1a12,12,0,0,1-2.48,0,5.67,5.67,0,0,1,0-1.24c0-.44,0-.87,0-1.31V82.24c0-.41,0-.83,0-1.27a2,2,0,0,0-.29,0h-6.38l-.19,0a1.88,1.88,0,0,0-.05.3c0,.24,0,.47,0,.71v13.3c0,.2,0,.39,0,.61a3.41,3.41,0,0,1-.77,0h-.78c0-.18,0-.32,0-.46,0-1.11,0-2.22,0-3.33,0-4.63,0-9.27,0-13.9a15.46,15.46,0,0,1,5.25-11.73,15.07,15.07,0,0,1,8-3.82,15.63,15.63,0,0,1,17.13,10,15.4,15.4,0,0,1,1,4.61c0,.6.06,1.2.06,1.79q0,8.07,0,16.13C716.73,95.41,716.72,95.63,716.71,95.9Z"/><path class="cls-14" d="M688.09,97.43a12.47,12.47,0,0,1,4.85-7.64c0-.13-.09-.14-.15-.2a.5.5,0,0,1-.14-.67,1,1,0,0,1,.47-.43,1.7,1.7,0,0,1,1.28-.06,4.24,4.24,0,0,1,.42.18l1.13-.5.36.26c.1.08.18.16.31.27l-.9.68c.24.48.5.93.71,1.4s.4,1,.61,1.46a6.27,6.27,0,0,1,.48,1.5l-.26.41a1.71,1.71,0,0,0,.34,2.35c.26.24.58.44.9.68.12,1.46.15,3,.38,4.54a2.89,2.89,0,0,0,.31-1.13c0-.12,0-.26,0-.38a.4.4,0,0,1,.33-.32c.2,0,.33,0,.34.24s0,.62,0,.93,0,.33,0,.49a9.28,9.28,0,0,1-.47,2.89,3.28,3.28,0,0,1-1.43,2l-2.07,1.32-.56.36a11.27,11.27,0,0,0,.07,1.85c.06.45.16.9.21,1.34a1.35,1.35,0,0,1-.55,1.29.36.36,0,0,1-.62-.15c0-.08-.07-.17-.1-.26a26.29,26.29,0,0,1-1.3-5.39,37.72,37.72,0,0,1-.35-4.56c0-.27,0-.54,0-.83a2.06,2.06,0,0,0-.34,0c-.29,0-.58,0-.87,0a4.25,4.25,0,0,0-.43.07,1.2,1.2,0,0,0-1,1.29,2.9,2.9,0,0,0,.08.54q.63,2.59,1.28,5.18c0,.18.1.35.13.53a.45.45,0,0,1-.33.55,1.12,1.12,0,0,1-1.42-.65c-.63-2-1.31-4-2-5.95a4.59,4.59,0,0,1-.2-2.41,3.19,3.19,0,0,1,.15-.52A1.69,1.69,0,0,1,689,98.91c1.2-.27,2.41-.52,3.62-.78a.51.51,0,0,1,.53.21,2.06,2.06,0,0,1,.39.77c.09.31.16.63.24,1l1,.11a2.09,2.09,0,0,1,.87.29.48.48,0,0,1,.23.55c-.15.8-.28,1.61-.4,2.41a23.36,23.36,0,0,0-.21,3.48,1.28,1.28,0,0,0,0,.16,4,4,0,0,0,1.39-1.29l-.12-.2a.52.52,0,0,1,0-.61c.26-.41.51-.84.77-1.26a1,1,0,0,0,.17-.56,5.15,5.15,0,0,0-.15-1.46,2.91,2.91,0,0,0-1-1.5,1.08,1.08,0,0,1-.92-.16,6.24,6.24,0,0,1-2-1.78,2.59,2.59,0,0,1-.2-.33.57.57,0,0,1,0-.61,8,8,0,0,1,1.59-1.92c.23-.2.48-.39.74-.6a4.88,4.88,0,0,0-1.2-4.34,1,1,0,0,0-.2.1,28,28,0,0,0-3.89,3.73,12.93,12.93,0,0,0-2,3.17A.81.81,0,0,0,688.09,97.43Z"/><path class="cls-14" d="M706.7,108.11l-.6-.39-1.75-1.11c-.23-.15-.45-.31-.67-.47a2.68,2.68,0,0,1-1-1.34c-.15-.45-.24-.91-.38-1.36a5.23,5.23,0,0,1-.19-1.77c0-.4,0-.8,0-1.2a1.37,1.37,0,0,1,0-.38.34.34,0,0,1,.17-.18.22.22,0,0,1,.28.1,1.39,1.39,0,0,1,.12.41c.05.3.09.61.14.91a4,4,0,0,0,.14.42,17.26,17.26,0,0,0,.26-2.34c.06-.74.1-1.49.15-2.26l.33-.24a7.66,7.66,0,0,0,.71-.58,1.66,1.66,0,0,0,.28-2.05c-.1-.19-.22-.37-.33-.55a17.35,17.35,0,0,1,1.79-4.34c-.23-.29-.6-.44-.88-.72a2.34,2.34,0,0,1,.62-.52l.89.28a1,1,0,0,0,.74,0,1.33,1.33,0,0,1,1.21.08,1.37,1.37,0,0,1,.44.39c.21.29.15.54-.15.79l-.14.14a12.64,12.64,0,0,1,3.9,4.69,11.46,11.46,0,0,1,1.09,3.7,2.87,2.87,0,0,1-.16-.31,11,11,0,0,0-2-3.36,23.86,23.86,0,0,0-4.24-3.9l-.1,0a4.7,4.7,0,0,0-1.09,4.24c.26.22.53.43.79.66a7.78,7.78,0,0,1,1.52,1.84.61.61,0,0,1,0,.66,2.64,2.64,0,0,1-.24.36,5.76,5.76,0,0,1-1.83,1.52,1.45,1.45,0,0,1-1.27.15,4.41,4.41,0,0,0-.88,2.2c0,.09,0,.18,0,.27a1.9,1.9,0,0,0,.4,1.64c.16.26.31.53.48.79a.57.57,0,0,1,0,.75.66.66,0,0,0-.07.15,8.77,8.77,0,0,0,1.29,1.29c.15,0,.12-.14.12-.23a25.06,25.06,0,0,0-.31-4.18c-.09-.56-.2-1.11-.29-1.66a.46.46,0,0,1,.25-.59,2.18,2.18,0,0,1,.88-.28l.95-.09c0-.19.09-.38.13-.57a3.15,3.15,0,0,1,.39-1,.63.63,0,0,1,.77-.33q1.61.38,3.25.69a1.92,1.92,0,0,1,1.61,1.75,5.34,5.34,0,0,1-.28,2.57c-.47,1.43-.95,2.86-1.43,4.29-.15.47-.35.92-.46,1.4a1.08,1.08,0,0,1-1.4.69.46.46,0,0,1-.33-.64c.14-.58.3-1.16.44-1.74.32-1.32.64-2.64,1-4a1.73,1.73,0,0,0,0-.81,1.15,1.15,0,0,0-.85-.91,5.4,5.4,0,0,0-1.75-.11,3.56,3.56,0,0,0,0,.36c0,.51,0,1,0,1.53a30.25,30.25,0,0,1-1.53,8.66,4.75,4.75,0,0,1-.22.56.33.33,0,0,1-.5.14,1.4,1.4,0,0,1-.63-1.35c.07-.45.17-.89.23-1.34s.1-.83.14-1.25C706.72,108.49,706.7,108.33,706.7,108.11Z"/><path class="cls-15" d="M684.59,73.31V68.14c.28-.32,15.9-14.18,16.39-14.53H701l0,0,16,14.2.28.26v5.28a1,1,0,0,1-.21-.44,17.1,17.1,0,0,0-13-11.44,17,17,0,0,0-19.3,11.14l-.24.7Z"/><path class="cls-16" d="M684.59,66.21v-2c.27-.32,9.78-8.66,10.33-9.06a13.68,13.68,0,0,1,1.15,1,.32.32,0,0,1,0,.08l0,0-11.27,9.86-.09.05Z"/><path class="cls-16" d="M717.4,66.27a1.2,1.2,0,0,1-.2-.1l-11.32-9.89a5.13,5.13,0,0,1,1.25-1.09l10.27,9Z"/><path class="cls-14" d="M701,83.65l-.81.47-.8.47-.84.5-.8.47a5.9,5.9,0,0,1-.85.46,17.78,17.78,0,0,1,0-1.78L701,81.8c1.38.81,2.75,1.62,4.12,2.45,0,.57,0,1.11,0,1.66,0,0,0,.05-.08.11-.68-.36-1.34-.78-2-1.17Z"/><path class="cls-14" d="M700.74,95A1.7,1.7,0,0,1,699,96.73,1.7,1.7,0,1,1,700.74,95Z"/><path class="cls-14" d="M701.25,95a1.67,1.67,0,0,1,1.69-1.69,1.7,1.7,0,0,1,1.69,1.7,1.67,1.67,0,0,1-1.7,1.69A1.64,1.64,0,0,1,701.25,95Z"/><path class="cls-17" d="M688.09,97.43h.21a.33.33,0,0,1,0,.11l-.27.76-.06,0A2,2,0,0,1,688.09,97.43Z"/><path class="cls-6" d="M690.94,71.9a9.69,9.69,0,0,1,2.94-5.1,10.41,10.41,0,0,1,14-.22,9.92,9.92,0,0,1,3.19,5.26l0,0-.05,0h-20Z"/><path class="cls-7" d="M706.19,75.27c.56,0,1.1,0,1.69,0a9.25,9.25,0,0,1-.46,1.46c-.15.46-.32.92-.48,1.37a29.85,29.85,0,0,1-3.33,0,10.45,10.45,0,0,1-.52-1.4c-.17-.46-.32-.92-.48-1.38a4.65,4.65,0,0,1,1.71,0c.34.64.55,1.35.93,2.06C705.62,76.69,705.82,76,706.19,75.27Z"/><path class="cls-7" d="M697.68,75.28h1.63l0,0a.09.09,0,0,1,0,.05l-.92,2.71a25.2,25.2,0,0,1-3.38,0l-1-2.76c.07,0,.11-.08.15-.08h1.55c.35.67.58,1.38.93,2.08a.7.7,0,0,0,.19-.31l.55-1.31C697.53,75.59,697.61,75.44,697.68,75.28Z"/><path class="cls-8" d="M710.29,75.26h.53l1.22,0c.36.94.67,1.88,1,2.81a5.47,5.47,0,0,1-1.73,0C711,77.22,710.65,76.28,710.29,75.26Z"/><path class="cls-8" d="M690,75.29c.56,0,1.09,0,1.64,0a16.14,16.14,0,0,1-.93,2.84,6.34,6.34,0,0,1-1.66,0A16.82,16.82,0,0,1,690,75.29Z"/></g></g></svg>