<svg id="898e6879-8420-4839-89d4-55446602b2ea" data-name="Layer 1" xmlns="http://www.w3.org/2000/svg" viewBox="0 0 1081.84 384.56"><defs><style>.\36 23e4b31-2671-429e-8e61-c350aefb153a{fill:#87ba36;}.\32 769b921-b40f-4181-9baf-740c55d571aa,.\38 7c144b1-17ae-4597-b678-cd2420cbef71{fill:#1d4895;}.\34 de624df-53e3-4a70-b650-08c2e22bfa02{fill:#fdfdfb;}.\35 1ea9244-f34e-4df1-86bd-78c8d0f77687{fill:#fafcf7;}.\39 fc7b3ca-4169-4fb8-8292-3486db98dd1c{fill:#fcfcfd;}.af25d246-4ef7-435c-83dd-02fb27d79760{fill:#fafbfd;}.d4ed5753-298e-4bc3-9eea-fc57717d164d{fill:#f9f9fc;}.\33 ee66770-237b-45c5-a326-200e8c188e9f{fill:#8bbb3b;}.\39 75ae164-b34b-4a38-8d54-a70a8a2b5011{fill:#8bbb38;}.b10365d0-2e69-42e0-a137-4994997b1b57{fill:#87ba39;}.ed00ce84-fea6-403e-a510-c678fb57586c{fill:#8dbc3d;}.e758bea7-4f8d-41eb-9898-908b7de960f6{fill:#244a96;}.\36 11bc994-9735-405d-839b-71e72bdc6d39{fill:#214c98;}.\39 b6e92e6-1f05-4f7b-9590-e7d30b1286f5{fill:#1e4a96;}.c8abd086-fd08-425a-a0d2-587cb02feac1{fill:#254c98;}.c60f5fa1-30d4-4095-a6e8-48e5a94478ff{fill:#6f80ba;}.\38 7c144b1-17ae-4597-b678-cd2420cbef71,.c74589ec-8450-4b43-bf7b-53ad98651f62{font-size:60px;font-family:Poppins-SemiBold, Poppins;font-weight:700;}.c74589ec-8450-4b43-bf7b-53ad98651f62{fill:#fff;}</style></defs><title>logo</title><path class="623e4b31-2671-429e-8e61-c350aefb153a" d="M127.83,14.9a34.83,34.83,0,0,0,1.44,3.75,26.4,26.4,0,0,0,3.43-1.27,26.88,26.88,0,0,0-1.3-3.72l-3.57,1.24ZM45.23,73.62c1.17.84,2.05,1.76,3.2,2.46l2.28-2.82a13.92,13.92,0,0,0-3.15-2.51l-2.34,2.88Zm-3.66,4.55,2.35-2.93a33.71,33.71,0,0,1,3,2.4,11.69,11.69,0,0,1-2.24,2.92c-.08,0-.18,0-.23,0l-2.92-2.35ZM23.92,115.33a33.25,33.25,0,0,0-3.52-1.7A24,24,0,0,0,18.85,117a12.84,12.84,0,0,0,3.57,1.61,22.35,22.35,0,0,0,1.5-3.27Zm-1-7a25.53,25.53,0,0,0-1.51,3.09,1.2,1.2,0,0,0,0,.4,37.86,37.86,0,0,0,3.49,1.56A34.51,34.51,0,0,0,26.39,110a35.51,35.51,0,0,0-3.49-1.69ZM365.53,263.12c.39-1.27,1-2.33,1.25-3.56l-3.61-1.4a26.41,26.41,0,0,0-1.39,3.51,34.72,34.72,0,0,0,3.75,1.45Zm-1.67-7a30.34,30.34,0,0,0,3.61,1.42,12.09,12.09,0,0,0,1.37-3.54c-1.17-.43-2.31-1-3.58-1.32a34.68,34.68,0,0,0-1.39,3.44ZM276.67,24.53a14.72,14.72,0,0,0-1.85,3.55,26.44,26.44,0,0,0,3.26,1.67,26,26,0,0,0,1.76-3.53l-3.17-1.69ZM374,214.18a28.28,28.28,0,0,0-.44,3.62,16.2,16.2,0,0,0,3.92.47c.08-.59.2-1.19.23-1.8a4.26,4.26,0,0,0,.09-1.87c-1.24-.15-2.46-.39-3.81-.42Zm.69-5.9c-.09.76-.19,1.37-.24,2a3.77,3.77,0,0,0-.08,1.86c1.26.07,2.46.4,3.78.36a22.7,22.7,0,0,0,.46-3.71l-3.92-.49ZM129.26,20.66l2,5.89,1.93,5.63c.65,1.91,1.31,3.84,2,5.75s1.24,3.84,2,5.76c1.55-.56,3.06-1,4.53-1.61-.09-.33-.15-.6-.24-.87q-3.67-10.68-7.35-21.35c-.09-.26-.23-.5-.36-.78l-4.53,1.58Zm144.06,8.78,4.1,2.19c.15.51-.14.8-.3,1.11l-6.58,12.41c-1.23,2.3-2.44,4.61-3.67,6.92-.19.36-.39.71-.59,1.06A17.85,17.85,0,0,1,262,51c0-.46.29-.82.5-1.21q4.91-9.29,9.84-18.55c.28-.55.58-1.09.94-1.78ZM163.19,351.83a4.78,4.78,0,0,1,0,.51l-1.62,10.18c-.27,1.67-.54,3.35-.79,5-.05.35-.22.73.09,1.11,1.47.25,3,.54,4.52.68a4.72,4.72,0,0,0,.16-.64q1.8-11.41,3.6-22.82a.62.62,0,0,0-.06-.23,10.55,10.55,0,0,0-3.43-.55l-.39.72a4.06,4.06,0,0,1-2.79,2.09,7.74,7.74,0,0,1-2.59.09l-.76-.09a15.84,15.84,0,0,0-.53,3.06c1.54.45,3.09.43,4.61.88ZM353.08,190.62c.48,0,.88-.06,1.29-.07l17.76-.29a2.62,2.62,0,0,0,.37,0l.68-.12a18.15,18.15,0,0,0-.14-4.72c-1.37-.15-18.43.09-23.46.34a4.46,4.46,0,0,0-.55.08,1.06,1.06,0,0,0-.12.28c0,.33,0,.66,0,1q.13,6,.25,11.93s0,.07.06.1l.13.16c.57,0,1.18,0,1.79,0a5.69,5.69,0,0,0,2-.15c0-1,0-1.94,0-2.89s0-1.82,0-2.73a27.2,27.2,0,0,1,0-2.89ZM214.2,11.13c-.42,1.59-3.77,23-3.76,24.07,4.18.72,8.39,1.34,12.59,2a3.31,3.31,0,0,0,.58,0,11.41,11.41,0,0,0,.55-3.88c-2.72-.52-5.51-.82-8.29-1.39,0-.33,0-.57.07-.81.33-2.16.68-4.34,1-6.5q.94-6,1.89-12a5.32,5.32,0,0,0,0-.75l-4.65-.76ZM41.2,88.64a23.65,23.65,0,0,0-2.75,4.53l2,2.52c.66.85,1.34,1.69,2,2.55a18.59,18.59,0,0,1,1.95,2.7L34.9,98.75a2.67,2.67,0,0,0-.34.39q-1.16,1.84-2.29,3.7a3.32,3.32,0,0,0-.21.59l6.34,1,8.47,1.31a4.07,4.07,0,0,1,1.61.61c2.06,1.31,4.14,2.6,6.22,3.9l1,.63a20,20,0,0,0,2.55-4.13c-.33-.22-.68-.46-1-.67-2-1.28-4.06-2.57-6.11-3.83a4.55,4.55,0,0,1-1.42-1.36c-2.58-3.75-5.19-7.5-7.8-11.24-.23-.35-.49-.68-.74-1Zm255-45.7-4.47-2.79c-2.62,2-5.11,4-7.91,6.16.72-3.41,1.55-6.52,2.19-9.62a25.7,25.7,0,0,0-4.59-2.82,5,5,0,0,0-.17.58c-.36,2.29-.7,4.58-1.06,6.88-.38,2.46-.78,4.91-1.14,7.37a4.24,4.24,0,0,1-.66,1.72q-2.09,3.31-4.15,6.65a5,5,0,0,0-.27.63,16.81,16.81,0,0,0,4.11,2.44c.21-.33.45-.67.67-1,1.23-2,2.47-3.93,3.67-5.92a5.56,5.56,0,0,1,1.59-1.7q5.53-3.83,11-7.68c.34-.23.67-.48,1.18-.86Zm25.94,45c.28.34.53.62.76.9.43.56.84,1.13,1.29,1.67a8.45,8.45,0,0,0,3.31,2.56,5.48,5.48,0,0,0,3.89.18A9.49,9.49,0,0,0,336.73,89a5.44,5.44,0,0,0,.25-5.47,11,11,0,0,0-1-1.69c-1.5-2-3-4.05-4.55-6.07-.15-.19-.32-.36-.52-.58-.28.18-.52.33-.75.5l-5.36,4.05-12.3,9.3c-.32.24-.72.41-.86.92l2.8,3.72c1.34-.91,2.57-1.9,3.81-2.83s2.58-1.93,3.92-2.94ZM198.53,30.34c.13-2,.23-3.79.36-5.61a7.47,7.47,0,0,1,.18-.89l4,.24a24.24,24.24,0,0,0,3.94.19,11.78,11.78,0,0,0,.2-3.87c-2.59-.33-5.24-.31-7.89-.68a15.54,15.54,0,0,1,.16-2.79,12,12,0,0,1,.3-2.84c1.44.09,2.84.19,4.25.27a25.27,25.27,0,0,0,4.18.2,10.33,10.33,0,0,0,.18-3.91c-4.39-.3-8.78-.66-13.24-.9a3.36,3.36,0,0,0-.12.52q-.84,11.66-1.65,23.3a1.32,1.32,0,0,0,.09.39,27.42,27.42,0,0,0,3.45.31c1.12.06,2.23.15,3.35.24s2.31.21,3.47.23a16.89,16.89,0,0,0,3.42.16,10.47,10.47,0,0,0,.18-3.92l-8.81-.64Zm93.26,35c1.21,1,2.38,1.91,3.52,2.87s2.28,1.76,3.37,2.82c-.8,1.06-1.6,2-2.48,3.07-3.61-2.9-7.13-5.78-10.72-8.7a5.11,5.11,0,0,1,.37-.62Q293,55.92,300.21,47c.13-.16.27-.3.46-.51,1.25.83,2.34,1.85,3.49,2.76s2.32,1.88,3.48,2.82L311.17,55c-.7,1.18-1.64,2.09-2.43,3.19l-6.66-5.38a31,31,0,0,0-3.58,4.36,35.58,35.58,0,0,0,3,2.54c1,.85,2.05,1.67,3.12,2.54a7.1,7.1,0,0,1-1.16,1.62c-.38.49-.78,1-1.23,1.5a7.87,7.87,0,0,1-.71-.46l-4.44-3.61c-.38-.31-.77-.6-1.15-.89a42.15,42.15,0,0,0-4.14,5ZM236.52,19.76c.41.09.7.13,1,.21L244,21.7a1,1,0,0,0,1,0c.24-1.12.7-2.28.87-3.49a1.55,1.55,0,0,0-.37-.22l-12.35-3.31a.65.65,0,0,0-.24,0c-.39.91-5.43,19.41-6.19,22.74a6.42,6.42,0,0,0-.06.68c2.2.67,4.4,1.21,6.59,1.79s4.43,1.26,6.77,1.77a32.08,32.08,0,0,0,.89-3.83c-1.42-.48-2.83-.77-4.22-1.18s-2.88-.69-4.34-1.25c.52-2.09,1-4.11,1.67-6.18.39.08.71.13,1,.21L241.16,31a6.68,6.68,0,0,0,.76.12c.3-1.31.76-2.49.93-3.79-2.58-.81-5.18-1.34-7.74-2.17.39-1.83.9-3.56,1.42-5.43ZM100.95,45a27.23,27.23,0,0,1-3-4.84c1.12-.81,2.37-1.46,3.55-2.21s2.5-1.43,3.71-2.32c-.62-1-1.21-2-1.8-3a1.14,1.14,0,0,0-.26-.24C102,33,92.45,38.74,91.74,39.35c.38.94,6.77,11.73,11.9,20.07.15.24.32.46.5.71a5.25,5.25,0,0,0,.49-.24l11.16-6.75s.05-.06.08-.09a1.92,1.92,0,0,0,.07-.22c-.64-1-1.19-2.15-2-3.22-1.29.77-2.52,1.53-3.76,2.26s-2.52,1.56-3.88,2.29a28.82,28.82,0,0,1-1.73-2.78A16,16,0,0,1,103,48.55l3.43-2.09c1.12-.69,2.29-1.31,3.43-2.12-.69-1.16-1.29-2.28-2.08-3.37L100.95,45ZM226,361.53c0-.62,0-1.25-.09-1.86-.27-2.05-.54-4.1-.92-6.14a32.83,32.83,0,0,0-1-3.71,8.83,8.83,0,0,0-1.36-2.64,5,5,0,0,0-3.54-2.09,10.53,10.53,0,0,0-5.24.7,5.54,5.54,0,0,0-3.27,3.37,9.62,9.62,0,0,0-.58,3.16,38.76,38.76,0,0,0,.64,7,29.1,29.1,0,0,0,1.34,5.54,10.82,10.82,0,0,0,1.37,2.64,5,5,0,0,0,2.93,2,9.65,9.65,0,0,0,5.49-.46,5.68,5.68,0,0,0,3.75-3.84,10.3,10.3,0,0,0,.49-3.67ZM10.31,170.86l22.36,9.45c.22.09.46.15.69.23a23.23,23.23,0,0,0,.65-5c-1.51-.68-3.14-1.12-4.76-1.85.27-2.12.53-4.21.91-6.33,1.73-.33,3.49-.14,5.22-.58.22-1.61.52-3.18.64-4.89-1.75.08-3.37.39-5,.55s-3.29.38-4.94.58l-5,.63c-1.64.2-3.3.34-4.94.58s-3.28.31-4.95.67c-.34,1.94-.62,3.86-.83,6Zm5.53,11.92a3.49,3.49,0,0,0-.45-.08c-.37,0-.75,0-1.12.07a5.48,5.48,0,0,0-5.16,4.15,11.39,11.39,0,0,0-.29,5.53,7.57,7.57,0,0,0,.4,1.43,5.77,5.77,0,0,0,4.13,3.62,10.11,10.11,0,0,0,3.83.21,5.49,5.49,0,0,0,3.89-2.22,14.39,14.39,0,0,0,1.29-2.12c.35-.7.58-1.47.88-2.19a25.66,25.66,0,0,1,1.1-2.36c.82-1.46,2.34-1.89,4.11-1.37a2.42,2.42,0,0,1,1.61,1.6,3.75,3.75,0,0,1,0,2.32,2.37,2.37,0,0,1-1.94,1.86,14.32,14.32,0,0,1-1.61.16l-.76.1c0,.83-.1,1.61-.1,2.4a7,7,0,0,0,.09,2.38c.73,0,1.43,0,2.13,0a5.72,5.72,0,0,0,5.61-4.75,15.36,15.36,0,0,0,.18-5.31,7.73,7.73,0,0,0-.75-2.49,5.81,5.81,0,0,0-3.64-3.17,9.87,9.87,0,0,0-3.8-.43,5.33,5.33,0,0,0-4.2,2.33A19,19,0,0,0,20,186.7c-.6,1.23-1.12,2.49-1.71,3.73a10.66,10.66,0,0,1-.81,1.39,2.05,2.05,0,0,1-1.43.92,7.6,7.6,0,0,1-2,0,2,2,0,0,1-1.61-1.22,3.61,3.61,0,0,1-.21-2.07,2.11,2.11,0,0,1,1.44-1.71,7.89,7.89,0,0,1,1.08-.25c.32-.06.64-.1.94-.15a22.54,22.54,0,0,0,.07-4.57ZM303.49,70.48c1.15,1.12,2.19,2.28,3.33,3.44l-.78.85a5,5,0,0,0-1,1.54,2.22,2.22,0,0,0,.06,1.92,4.19,4.19,0,0,0,1.35,1.6,2.67,2.67,0,0,0,3.13,0,4.83,4.83,0,0,0,1-.93,2.85,2.85,0,0,0,.62-2.45,12.45,12.45,0,0,0-1-2.92,19.61,19.61,0,0,1-1.17-3,6.36,6.36,0,0,1,1.79-6.71A9.66,9.66,0,0,1,313.23,62a5.36,5.36,0,0,1,4.69-.21,10.14,10.14,0,0,1,5.83,6.41,4.89,4.89,0,0,1-.46,4,8.47,8.47,0,0,1-1.87,2.29,18.86,18.86,0,0,1-3.26-3.27c.16-.21.35-.43.51-.66a7.33,7.33,0,0,0,.7-1.16,2.13,2.13,0,0,0-.27-2.23c-1.45-1.86-3-1.64-4.34-.35a2.87,2.87,0,0,0-.84,3.17c.47,1.37,1,2.72,1.49,4.09a15.47,15.47,0,0,1,.92,3.35,5.24,5.24,0,0,1-1,3.88,9.55,9.55,0,0,1-3.68,3.07,5.44,5.44,0,0,1-4.22.27,9.38,9.38,0,0,1-2-.94,13.44,13.44,0,0,1-4.22-4.33,5.74,5.74,0,0,1,.39-6.95,10,10,0,0,1,1.89-1.92ZM174.51,365c-.28,2.82.8,4.76,3.19,5.83a7.1,7.1,0,0,0,.93.35,11.38,11.38,0,0,0,4.93.17,5.7,5.7,0,0,0,3.92-2.61,7.63,7.63,0,0,0,1.14-2.47c.28-1.24.55-2.51.72-3.78s.24-2.72.38-4.08a22.42,22.42,0,0,0-.17-5.57,7.76,7.76,0,0,0-1-2.79,5.6,5.6,0,0,0-3.19-2.61,10.4,10.4,0,0,0-5.52-.29,5.79,5.79,0,0,0-4,3,10.11,10.11,0,0,0-.8,1.95,14.77,14.77,0,0,0-.52,4.67,8.83,8.83,0,0,0,.76,3.25,4.58,4.58,0,0,0,1.75,2.05c1.84,1.15,5.1,1.37,7-.27a3.93,3.93,0,0,1,.61-.33c-.11,1.13-.17,2.12-.33,3.1a7.25,7.25,0,0,1-.76,2.48,2.62,2.62,0,0,1-3.35,1,1.62,1.62,0,0,1-.88-1c-.1-.35-.14-.73-.21-1.09s-.08-.46-.12-.71l-3.65-.28c-.24,0-.48,0-.81,0Zm29.58-7.12.62-.36a4.48,4.48,0,0,0,2.34-4.1,8.47,8.47,0,0,0-.46-2.81,5.14,5.14,0,0,0-3.84-3.54,10.48,10.48,0,0,0-4.07-.15,8.31,8.31,0,0,0-3,.9,4.83,4.83,0,0,0-2.35,2.63,7.48,7.48,0,0,0-.27,4.52,4.28,4.28,0,0,0,2.74,3.15c.2.07.39.17.6.26a1.27,1.27,0,0,1-.14.15,1.51,1.51,0,0,1-.33.18,4.67,4.67,0,0,0-2.7,3.37,8.89,8.89,0,0,0,.47,5.6,5.66,5.66,0,0,0,4,3.47,11,11,0,0,0,7-.48,5.5,5.5,0,0,0,3.23-3.27,8.52,8.52,0,0,0-.16-6.54,4.56,4.56,0,0,0-2.91-2.7,5.85,5.85,0,0,1-.76-.27Zm169-179c-.25-1.71-.3-3.27-.69-4.84l-1.31.15-3,.37-7.28.9c-1.89.23-3.79.47-5.68.65a11.8,11.8,0,0,1-2-.05,2.15,2.15,0,0,1-1.42-.71,2.81,2.81,0,0,1,.78-4.33,7.28,7.28,0,0,1,2.4-.64c2.05-.27,4.11-.52,6.16-.76l9.14-1.09c.48-.06,1-.17,1.53-.27-.26-1.61-.32-3.17-.67-4.78l-4.36.51-7,.88c-2,.25-4,.48-6,.76a9.18,9.18,0,0,0-3.07,1,5.4,5.4,0,0,0-2.9,3.55,10.85,10.85,0,0,0,.88,7.62,5.77,5.77,0,0,0,3.87,3.06,10,10,0,0,0,3.71.17c2.18-.22,4.36-.52,6.53-.79l7.4-.92,3-.39ZM15.84,242.24l3.79-.94,12.77-3.2a10.56,10.56,0,0,0,3.09-1.26,5.47,5.47,0,0,0,2.76-4.08,11.06,11.06,0,0,0-1.79-7.46,5.62,5.62,0,0,0-2.67-2.15,6.75,6.75,0,0,0-3.66-.4,21,21,0,0,0-2.07.41L13,226.93a8.06,8.06,0,0,0-.88.33,19.41,19.41,0,0,0,1.23,4.61c.23,0,.47-.08.71-.14l15.77-3.94a7.69,7.69,0,0,1,2.46-.2,2.15,2.15,0,0,1,1.16.41,2.78,2.78,0,0,1-.11,4.46,7,7,0,0,1-2.17.89l-14,3.49c-.83.21-1.67.43-2.48.64a20.55,20.55,0,0,0,1.11,4.75Zm357.14-37a7.78,7.78,0,0,0-.92-.22l-6.78-.82c-2.39-.29-4.77-.6-7.15-.88a23.69,23.69,0,0,0-4.34-.34A6,6,0,0,0,348,207.3a12,12,0,0,0-.59,5.27,6.08,6.08,0,0,0,4.32,5.4,8.76,8.76,0,0,0,1.67.45c2.51.35,5,.66,7.52,1s4.93.64,7.4.91a14.35,14.35,0,0,0,2.76.24c.23-1.58.44-3.13.55-4.75-.24-.05-.44-.1-.64-.13l-6.66-.81-9.62-1.19a6.9,6.9,0,0,1-2.49-.74,2.21,2.21,0,0,1-1.06-1.17,2.72,2.72,0,0,1,2.46-3.81,16,16,0,0,1,2.48.1c1.07.1,2.14.26,3.2.39l7.15.89c1.61.2,3.2.4,4.81.58a1.34,1.34,0,0,0,1.14-.13c.17-1.43.35-2.9.56-4.52ZM44.35,84.12l3-3.76c.51.4,1,.76,1.4,1.12Q54.67,86.26,60.57,91a8.76,8.76,0,0,0,1.87,1.19,2.75,2.75,0,0,0,3.88-2.34,2.46,2.46,0,0,0-.48-1.51,7.5,7.5,0,0,0-1.7-1.79l-6-4.86-6.27-5.1c-.26-.21-.5-.43-.74-.64a18.06,18.06,0,0,1,3-3.85l3.37,2.72c3.12,2.53,6.25,5.06,9.35,7.62a21.58,21.58,0,0,1,2,1.88,6.3,6.3,0,0,1,1.35,2.22,5.8,5.8,0,0,1,0,4.13,11.27,11.27,0,0,1-4.44,5.53,5.41,5.41,0,0,1-5.11.54,11.57,11.57,0,0,1-3.29-2L48.3,87.44,45,84.77c-.21-.19-.4-.39-.67-.65ZM22.89,122.17c.67-1.49,1.3-2.92,2-4.36.49.21.91.38,1.31.57l13.62,6.37a8.23,8.23,0,0,0,2.57.89,2.68,2.68,0,0,0,3.18-2.76,2.21,2.21,0,0,0-.62-1.58,6.39,6.39,0,0,0-2-1.43c-1.19-.58-2.4-1.13-3.6-1.69l-10.92-5.1c-.33-.15-.66-.33-1-.5a21.07,21.07,0,0,1,2.05-4.41l2.13,1c4.24,2,8.48,4,12.72,6a15.83,15.83,0,0,1,2.38,1.35,6.14,6.14,0,0,1,2.66,6.83,11.29,11.29,0,0,1-2.75,5.36,5.58,5.58,0,0,1-5.3,1.77,11.37,11.37,0,0,1-3-.93l-15.09-7.06a3.32,3.32,0,0,1-.44-.26ZM364.37,249.22a21.53,21.53,0,0,1-1.74,4.52c-.3-.1-.61-.19-.91-.31l-14.36-5.54a9,9,0,0,0-2.63-.71,2.73,2.73,0,0,0-3,3,2.3,2.3,0,0,0,.83,1.61,6.83,6.83,0,0,0,2.14,1.24l6.37,2.46,8.46,3.25c.34.13.68.28,1,.42a18.81,18.81,0,0,1-1.61,4.52,6.74,6.74,0,0,1-.66-.16l-14.95-5.75a11.76,11.76,0,0,1-2.75-1.43,6,6,0,0,1-2.69-5.3,11,11,0,0,1,2.44-6.53,5.58,5.58,0,0,1,5.64-2.09,14.45,14.45,0,0,1,2.75.75q7.48,2.85,14.95,5.74c.23.09.46.21.73.33ZM347,164.72c-.46-1.79-.88-3.47-1.31-5.22.33-.3.64-.61,1-.9l6.41-5.52a2.89,2.89,0,0,0,.87-.92,12.71,12.71,0,0,0-2.71-1,2.39,2.39,0,0,0-1.09.1c-1.73.42-3.45.87-5.18,1.3-.27.07-.56.08-.89.13-.51-1.53-.8-3.06-1.19-4.62.4-.13.71-.25,1-.33l22.45-5.6c.58,1.54.79,3.09,1.24,4.57a2.24,2.24,0,0,1-1.18.47L359.26,149c-.27.07-.55.17-1,.31.42.18.7.32,1,.41l8.71,2.94,1.08.39c.47,1.63.84,3.27,1.23,4.87-.28.25-.46.06-.64,0a3,3,0,0,1-.47-.15l-8.95-3c-.27-.09-.56-.17-.82-.28a1.14,1.14,0,0,0-1.34.29c-1.64,1.52-3.31,3-5,4.5l-5.26,4.74a9.87,9.87,0,0,1-.85.67Zm-22.28-57.91c.06.45.08.91.18,1.35a11.45,11.45,0,0,0,3.31,5.73,5.93,5.93,0,0,0,4.79,1.59,9.8,9.8,0,0,0,3-.76,41.29,41.29,0,0,0,10-6,14.28,14.28,0,0,0,1.19-1.08,7.76,7.76,0,0,0,1.62-2.34,5.79,5.79,0,0,0,.39-3.87,11.92,11.92,0,0,0-3-5.34,6,6,0,0,0-5.68-1.78,11.52,11.52,0,0,0-2.49.74A40.87,40.87,0,0,0,328.1,101a9.87,9.87,0,0,0-1.43,1.37,12.89,12.89,0,0,0-1.32,1.94,5.42,5.42,0,0,0-.66,2.5ZM66.76,59.28c.66,3.62,1.5,7.25,2.22,11.14-.41-.36-.66-.55-.88-.77-1.73-1.79-3.44-3.59-5.18-5.37-.22-.22-.38-.55-.75-.58a24.9,24.9,0,0,0-3.37,3.37L75.56,84.48c1.2-1.12,2.34-2.18,3.48-3.37-.27-.32-.49-.61-.74-.88l-2.76-2.87C74,75.82,74,75.82,73.68,73.74a1.82,1.82,0,0,1-.05-.37c0-.19,0-.37.07-.66l10.22,3.58a25,25,0,0,0,3.86-3.85l-1.15-.39L73.88,67.86a8.71,8.71,0,0,1-.85-.37l-.84-4c-.27-1.34-.52-2.69-.82-4a32.32,32.32,0,0,0-.87-3.83,28.84,28.84,0,0,0-3.75,3.6Zm41.91-29.77,4.33-2c.15.24.31.42.41.63,1,2.17,2,4.35,3,6.53.17.37.37.73.55,1.08a28.16,28.16,0,0,0,5.15-2.37c-1.25-2.72-2.52-5.45-3.78-8.17a15.22,15.22,0,0,1,4.22-2.13c.4.14.45.56.59.88q3.1,6.65,6.19,13.29L132.51,44c.14.29.26.6.38.88A18.28,18.28,0,0,1,128.59,47a5.43,5.43,0,0,1-.42-.69c-1.19-2.55-2.37-5.11-3.56-7.66-.19-.4-.39-.81-.58-1.18a30.36,30.36,0,0,0-5,2.26c-.17.36.1.64.23.91q1.76,3.84,3.56,7.66c.17.37.33.75.49,1.12a20.08,20.08,0,0,1-4.3,2.13,7.51,7.51,0,0,1-.47-.82q-4.28-9.18-8.53-18.37c-.41-.88-.82-1.79-1.3-2.82Zm134.7,13.31c.3.15.51.27.74.35,2.19.88,4.37,1.78,6.56,2.64a15.92,15.92,0,0,0,1.53.51A6.32,6.32,0,0,0,259,44.26a13.21,13.21,0,0,0,1.39-1.91,36.53,36.53,0,0,0,4-9.72,11.12,11.12,0,0,0,.35-3.32,5.93,5.93,0,0,0-2.54-4.76,13.27,13.27,0,0,0-2.85-1.49c-2-.81-4-1.62-6-2.42-.3-.12-.61-.21-1-.34-3.06,7.52-6.06,15-9.08,22.52Zm95.8,93.76-2-4.57a1.67,1.67,0,0,1,.88-1.1,13.3,13.3,0,0,1,1.41-.78c1.23-.6,2.47-1.17,3.68-1.79a6.72,6.72,0,0,0,1.43-1,2.13,2.13,0,0,0,.65-2.37,16.92,16.92,0,0,0-1.31-3c-1.63.59-3.14,1.36-4.68,2l-4.52,2a18.69,18.69,0,0,1-2-4.27c.17-.45.64-.49,1-.64,3.92-1.77,7.86-3.51,11.79-5.27l8-3.6c.37-.16.76-.31,1.18-.48a8.77,8.77,0,0,1,.45.79c1.09,2.46,2.17,4.92,3.27,7.38a8.54,8.54,0,0,1,.78,2.86,4.88,4.88,0,0,1-1.44,4.07,8.6,8.6,0,0,1-5.21,2.39,4.33,4.33,0,0,1-3.54-1.18l-.41-.38c-.31.09-.19.29-.2.43a5,5,0,0,0,0,.5,3,3,0,0,1-1.18,2.73,14.15,14.15,0,0,1-1.73,1.21c-.87.49-1.77.91-2.65,1.36-.59.3-1.19.58-1.78.89a4.22,4.22,0,0,0-1.88,1.75ZM150.48,39.41c-1.59.44-3.09.86-4.58,1.13-.11-.12-.2-.17-.21-.24Q142.85,28.92,140,17.52a3.19,3.19,0,0,1,0-.53c.37-.12.71-.25,1.06-.34l7.71-1.91a8.06,8.06,0,0,1,3.2-.18,4.49,4.49,0,0,1,3,1.65,8.31,8.31,0,0,1,1.71,6.42A4.24,4.24,0,0,1,155,25.45l-.68.52,1.31.21a2.89,2.89,0,0,1,2.16,1.5,13.94,13.94,0,0,1,1,2c.36,1,.63,2.05.94,3.09.16.56.33,1.11.5,1.67a3.25,3.25,0,0,0,1.29,1.91c.05,0,.05.15.09.28l-4.84,1.21a1.68,1.68,0,0,1-.92-1.06,13.9,13.9,0,0,1-.52-1.53c-.38-1.31-.71-2.64-1.11-3.94a7.23,7.23,0,0,0-.69-1.59,2.1,2.1,0,0,0-2-1.06,4.76,4.76,0,0,0-1,.1c-.8.19-1.59.41-2.46.64.75,3.35,1.65,6.57,2.43,10ZM33.07,200.87a3.29,3.29,0,0,1-2.31,1.37c-1,.18-2,.33-3.07.49a15.9,15.9,0,0,0-3.72,1,3.28,3.28,0,0,0-2,2.48c-.06.27-.09.54-.13.82-.09,0-.15,0-.16-.06a4.33,4.33,0,0,1-.27-.42A4.57,4.57,0,0,0,18,204.15a8.6,8.6,0,0,0-4.88.5,4.87,4.87,0,0,0-3.26,4.45,17,17,0,0,0,.09,3.1c.27,2.47.6,4.94.92,7.4a5.15,5.15,0,0,0,.2.72l23.73-3s.06,0,.09-.08l.15-.17c-.21-1.48-.27-3-.64-4.64-1.7.21-3.33.45-5,.62s-3.34.48-5.1.57c-.08-.39-.15-.7-.2-1-.08-.66-.16-1.32-.18-2a2.35,2.35,0,0,1,1.75-2.54,4.15,4.15,0,0,1,.71-.19l2.82-.46c1-.16,2-.31,2.94-.5a2.2,2.2,0,0,0,1.51-.83c-.21-1.66-.33-3.34-.66-5.25Zm-3-65c-.09-.39-.16-.59-.19-.79a4.68,4.68,0,0,0-2.59-3.57,8.13,8.13,0,0,0-2.94-.92,4.9,4.9,0,0,0-5,2.29,9.37,9.37,0,0,0-1.19,2.45c-.81,2.48-1.61,5-2.4,7.44a3.85,3.85,0,0,0-.1.67c1.36.59,22.07,7.3,23,7.44.06-.14.14-.28.19-.44.82-2.52,1.65-5,2.45-7.56A11.44,11.44,0,0,0,41.7,141a6.07,6.07,0,0,0-3.22-6.56,8.9,8.9,0,0,0-2.92-1,4.83,4.83,0,0,0-5,1.93l-.44.56ZM184.19,21.39l.75-.46a4.71,4.71,0,0,0,2.22-3.15,7.89,7.89,0,0,0-.23-3.92,4.81,4.81,0,0,0-3.55-3.48,8.32,8.32,0,0,0-2.83-.27c-1.91.1-3.8.24-5.71.36l-2.23.16a6.32,6.32,0,0,0-.66.1c-.06.15-.13.23-.12.31l1.65,23.68a.17.17,0,0,0,.05.1,1,1,0,0,0,.13.12c.36,0,.77,0,1.18,0,2.28-.15,4.55-.3,6.82-.48a11,11,0,0,0,3.27-.7,5.68,5.68,0,0,0,3.38-3.27,8.2,8.2,0,0,0,0-6,4.54,4.54,0,0,0-3.06-2.87c-.26-.09-.53-.14-1.06-.27Zm-161,242c-.19-.46-.39-.86-.54-1.28l-2.4-6.26a11.34,11.34,0,0,1-.72-2.76,4.89,4.89,0,0,1,2.7-5.39,8.4,8.4,0,0,1,2.78-1,4.68,4.68,0,0,1,4.13,1.22c.17.16.36.3.61.52,0-.67-.05-1.24,0-1.82a4.26,4.26,0,0,1,1.75-3,8.27,8.27,0,0,1,5.69-1.75,5.6,5.6,0,0,1,3.95,2.1,9.2,9.2,0,0,1,1.57,2.67c1,2.58,2,5.18,3,7.77a1,1,0,0,1,0,.28c-.21.37-.67.39-1,.54q-9.14,3.54-18.31,7l-2.43.94-.75.21Zm346.84-36-23.2-5.78c-.07,0-.15,0-.26.06a1.21,1.21,0,0,0-.15.32c-.65,2.61-1.32,5.21-1.94,7.83a9.48,9.48,0,0,0-.31,3,5.88,5.88,0,0,0,2.93,4.91,8.94,8.94,0,0,0,3.25,1.15,4.93,4.93,0,0,0,5.44-2.32c.1-.17.18-.38.46-.3a4.94,4.94,0,0,0,3.9,4.31,10.28,10.28,0,0,0,1.7.34,4.84,4.84,0,0,0,4.86-2.09,8.77,8.77,0,0,0,1.32-2.93c.66-2.61,1.31-5.22,2-7.83,0-.15,0-.32,0-.63ZM191.68,340c-3.52-.15-7-.19-10.56-.45A144,144,0,0,1,127.22,325a146.7,146.7,0,0,1-65.54-63.5,143.62,143.62,0,0,1-13.86-37.94A142,142,0,0,1,45.45,209c-.33-3.13-.58-6.27-.76-9.42-.21-3.94-.23-7.87-.11-11.81s.42-8.11.87-12.16A146.81,146.81,0,0,1,76,101a146.5,146.5,0,0,1,62.63-46.53,140.9,140.9,0,0,1,26-7.4c4-.74,8-1.31,12.05-1.74a148.73,148.73,0,0,1,21.24-.64c2.94.1,5.87.38,8.8.65a138.21,138.21,0,0,1,23.2,4.24,145.11,145.11,0,0,1,53.69,27.27,146.72,146.72,0,0,1,43.49,57.27,144.36,144.36,0,0,1,9.17,30q1.31,6.9,2,13.9a144.53,144.53,0,0,1,.61,18.89q-.19,5.9-.85,11.78A147.72,147.72,0,0,1,244.75,330,142.1,142.1,0,0,1,220,337.16c-4.07.79-8.17,1.43-12.29,1.87a148.52,148.52,0,0,1-16,.94ZM96,67.1c.09.05.21.17.27.15a5,5,0,0,0,.73-.46c.37-.26.73-.53,1.12-.82.09.14.19.23.2.33.09,1.82.18,3.64.27,5.47l-2.5,1.88c-.63-1.64-1-3.25-1.5-4.87a7.69,7.69,0,0,0,.52-.64c0-.05-.06-.18-.09-.27-.34-.07-.52.21-.76.35A9.72,9.72,0,0,1,91,69.64a4.89,4.89,0,0,1-3.25-.44,9,9,0,0,1-3.58-3.43c1.26-1,2.52-1.94,3.81-2.9l.52.58a9,9,0,0,0,.65.75,2.62,2.62,0,0,0,2.64,1,3.58,3.58,0,0,0,2.64-2.4,2.09,2.09,0,0,0,.09-.61,3.53,3.53,0,0,0-3.12-3.31,8.58,8.58,0,0,0-2.8.46,32.72,32.72,0,0,1-3.35.91,10.9,10.9,0,0,1-2.59.1,4.63,4.63,0,0,1-2.51-1,9.12,9.12,0,0,1-3.31-4.83,5.46,5.46,0,0,1,.28-3.76,4.74,4.74,0,0,1,.46-.88,10.64,10.64,0,0,1,6.33-4.5,5.07,5.07,0,0,1,4.46.94,8.26,8.26,0,0,1,2,2.14c-1.15,1-2.41,1.87-3.7,2.88a11,11,0,0,0-.87-1c-1.35-1.24-2.63-1.18-3.91.15a2.21,2.21,0,0,0-.45,2.83,4.7,4.7,0,0,0,.63.92,2.76,2.76,0,0,0,2.88,1c1.42-.31,2.82-.68,4.23-1A28.19,28.19,0,0,1,92,53.82a5.28,5.28,0,0,1,4.69,1.78,10.81,10.81,0,0,1,1.92,2.88,5.89,5.89,0,0,1-.25,5.6,10.77,10.77,0,0,1-1.83,2.34c-.2.2-.52.32-.48.68Zm287.42,126c-.08,2.59-.13,6-.3,9.39q-.35,7-1.22,13.87A192.52,192.52,0,0,1,272,366.91,187,187,0,0,1,233.37,380q-7.47,1.65-15,2.71c-3.9.54-7.81,1-11.74,1.27-4.84.39-9.68.57-14.54.58-3.24,0-6.47-.08-9.7-.22q-6.14-.27-12.27-1A190.8,190.8,0,0,1,64.17,335.81,192.11,192.11,0,0,1,4.77,235Q3,227.2,1.9,219.25c-.52-3.78-.94-7.56-1.24-11.37A177.83,177.83,0,0,1,0,190c.09-4,.21-8,.51-11.93a192.18,192.18,0,0,1,139-170.84,184.65,184.65,0,0,1,19.25-4.38c4.13-.7,8.27-1.3,12.43-1.73,5.16-.55,10.32-.86,15.51-1,4.77-.16,9.54,0,14.3.15,3.73.15,7.44.48,11.15.87a190.29,190.29,0,0,1,96.53,38.86,192.45,192.45,0,0,1,69.35,107q2.09,8.64,3.37,17.45c.46,3.16.77,6.34,1.12,9.5C383.15,180,383.35,186.13,383.44,193.07Z"/><path class="2769b921-b40f-4181-9baf-740c55d571aa" d="M258.28,283.1h-4.47c-1.53,0-3.06,0-4.61,0-.15-.44-.28-.82-.41-1.22-.74-2.33-1.47-4.66-2.21-7-.05-.15-.07-.33-.38-.28q-1.37,4.19-2.75,8.47c-.47,0-.88,0-1.29,0h-7.34c-.18,0-.42-.09-.56.26l2.46,1.83c.83.62,1.67,1.23,2.49,1.86a19.18,19.18,0,0,1,2.45,1.93c-.49,1.49-1,2.93-1.43,4.39s-1,2.86-1.39,4.5a25.13,25.13,0,0,0,2.57-1.79c.84-.6,1.67-1.23,2.51-1.85l2.44-1.79,2.45,1.79,2.51,1.85c.8.58,1.57,1.2,2.55,1.83a7.27,7.27,0,0,0-.15-.87c-.75-2.33-1.51-4.64-2.26-7-.12-.39-.22-.78-.33-1.19,1.27-1,2.5-1.87,3.71-2.8a25,25,0,0,0,3.47-3ZM143.37,297.9l.14-.17-.33-1.06L141,289.82c-.09-.31-.15-.63-.21-1l1.23-.94,1.29-1,1.19-.89,1.19-.9,1.29-1a7.41,7.41,0,0,0,1.26-1.06h-6.25c-1,0-2.06,0-3.1,0-.13-.33-.24-.6-.33-.88-.73-2.29-1.44-4.58-2.17-6.87-.09-.29-.22-.57-.4-1-.16.43-.27.69-.36,1l-2.22,6.85c-.1.31-.23.6-.37.94h-8.61c-.18,0-.42-.09-.5.24l1.07.82,5.68,4.24a6.46,6.46,0,0,1,.62.58c-.11.37-.21.69-.32,1q-1.2,3.66-2.39,7.32c-.05.16-.23.34.05.55l1.79-1.31,1.9-1.41c.6-.45,1.19-.89,1.8-1.32a15.9,15.9,0,0,1,1.91-1.34l7.36,5.42ZM203.78,81a2.35,2.35,0,0,1,0-.24h-6.05c-1,0-2.05,0-3.08,0-.12-.31-.22-.53-.29-.76-.74-2.33-1.47-4.66-2.22-7-.09-.28-.23-.56-.4-1-.16.47-.28.77-.39,1.09-.73,2.24-1.45,4.49-2.19,6.73-.1.31-.24.6-.37.94h-8.62c-.17,0-.42-.09-.48.25l1.07.82,5.68,4.24c.22.17.41.39.62.58-.12.37-.21.69-.32,1q-1.2,3.66-2.39,7.32c-.05.16-.24.34.05.55l7.35-5.41c2.51,1.8,4.94,3.66,7.6,5.58-.17-.6-.27-1-.39-1.37L196.7,87.5c-.09-.3-.15-.63-.22-1L203.78,81Zm-7.36,222.58,1.14-.89,5.76-4.34c.18-.14.46-.21.39-.59h-9.13c-1-2.86-1.78-5.8-2.88-8.83-1.07,3-1.89,5.93-2.92,8.83H180.7a3.62,3.62,0,0,0-1.2.1c1.3,1.06,2.55,1.93,3.76,2.85s2.53,1.85,3.77,2.85c-.88,3-2,5.93-2.92,9.14l7.62-5.6,1.85,1.36,1.9,1.4c.6.44,1.19.89,1.8,1.33a24.13,24.13,0,0,0,2.08,1.45c-1-3.13-2-6-2.94-9.06Zm-125-114.33a25.47,25.47,0,0,0,3.54,3c1.24,1,2.53,1.85,3.79,2.86-.92,3-2,5.92-2.93,9.08,1.45-1,2.64-1.91,3.87-2.81s2.46-1.81,3.73-2.74L85.31,200l1.9,1.4c.6.45,1.19.89,1.8,1.33a20.5,20.5,0,0,0,2.05,1.43c-.94-3.14-2-6-2.88-9l1.12-.88,5.76-4.34c.18-.14.46-.21.39-.59H86.33c-1-2.87-1.78-5.78-2.84-8.78-.18.46-.32.75-.41,1-.75,2.28-1.48,4.57-2.22,6.85-.09.3-.25.58-.38.88ZM300,180.4c-1,3.1-1.94,6-2.86,8.77l-.21.07-.12,0-8.33,0-.37,0a.16.16,0,0,0-.11,0s0,.08-.07.2l2.45,1.83c.83.62,1.67,1.23,2.49,1.86a20,20,0,0,1,2.46,1.94q-.72,2.2-1.42,4.38c-.47,1.48-1,2.93-1.46,4.65l3.87-2.85c1.24-.89,2.42-1.85,3.65-2.65l.21.06,6.82,5,.31.21a.28.28,0,0,0,.12,0s.05,0,.15-.09c-.46-1.43-1-2.87-1.41-4.33s-1-3-1.39-4.51c.36-.28.68-.55,1-.8l5.86-4.41c.16-.13.49-.19.34-.59h-9.11c-1-2.86-1.78-5.78-2.87-8.85Zm-26.29,62.89c-.23.39.09.47.27.6,2,1.49,4,3,6,4.46l1,.78c-.89,3-2,5.89-2.9,9a26.27,26.27,0,0,0,2.65-1.86l2.4-1.77,2.42-1.77a1.19,1.19,0,0,1,.24,0l.11.06,6.81,5,.21.13a.19.19,0,0,0,.12,0s.05,0,.15-.1c-.46-1.43-.94-2.87-1.39-4.32s-1-3-1.39-4.49c.38-.3.7-.56,1-.81l6-4.49c.15-.11.37-.21.21-.53h-9.11c-.32-1-.62-1.91-.92-2.85s-.59-2-.94-3a13.66,13.66,0,0,0-1-2.88c-1,3-1.85,5.85-2.86,8.7Zm-179.37,0H85.6c-.18,0-.42-.1-.52.24l3.67,2.75c1.25.94,2.53,1.85,3.78,2.84-.5,1.52-1,3-1.45,4.43s-1,2.94-1.46,4.67l3.88-2.85c1.24-.89,2.42-1.85,3.73-2.69l7.26,5.3a.16.16,0,0,0,.12,0s0-.05.1-.14-.1-.34-.16-.54l-2.4-7.44a8.07,8.07,0,0,1-.18-.84c1.26-1,2.5-1.87,3.71-2.81s2.46-1.76,3.79-3H100c-.46-1.48-.89-2.91-1.37-4.32a40.87,40.87,0,0,0-1.52-4.46l-2.84,8.77ZM251.08,101.73a2.06,2.06,0,0,1,.1-.19l.08-.09L258,96.36l.29-.24a.22.22,0,0,0,.05-.11.91.91,0,0,0,0-.21c-.58-.05-1.18,0-1.79,0h-5.47a8.29,8.29,0,0,1-1.89-.09c-.12-.36-.25-.7-.36-1.06l-2.24-7.11c-.05-.15-.09-.32-.37-.27-.93,2.79-1.79,5.63-2.77,8.47-.48,0-.88,0-1.3,0h-7.34c-.18,0-.42-.09-.54.27l2.45,1.84c.83.62,1.67,1.23,2.49,1.86a23.29,23.29,0,0,1,2.46,1.93l-1,3c-.33,1-.67,2-1,3a17.62,17.62,0,0,0-.88,3.07l1.93-1.42,1.91-1.4c.6-.45,1.19-.89,1.8-1.33a21.27,21.27,0,0,1,1.91-1.36l7.53,5.54a47.37,47.37,0,0,0-1.39-4.56c-.46-1.49-1-3-1.43-4.41ZM148.07,96c0-.09-.06-.16-.09-.24h-6.06a29.46,29.46,0,0,1-3.13-.06c-.24-.75-.47-1.45-.7-2.16s-.46-1.42-.68-2.13-.46-1.5-.7-2.25a9.33,9.33,0,0,0-.77-2.09c-.15.39-.26.65-.34.93l-2.22,6.85c-.1.3-.24.59-.37.92h-7.26l-1.79,0c-.08.43.24.49.42.62,2,1.52,4.05,3,6.07,4.54.29.21.55.47.82.7-.12.39-.21.7-.31,1-.75,2.28-1.51,4.56-2.24,6.84a1.55,1.55,0,0,0-.18,1.11l3.76-2.76c1.23-.89,2.41-1.85,3.71-2.68l7.26,5.3a.2.2,0,0,0,.12,0s.05,0,.14-.09c-.46-1.43-1-2.87-1.4-4.33s-1-3-1.4-4.53c2.46-1.88,4.9-3.72,7.34-5.56Zm125.21,39.22,1.24.94,5.58,4.16c.29.21.67.36.77.81-.47,1.43-1,2.88-1.43,4.34s-1,2.86-1.42,4.53c.79-.5,1.37-1,2-1.4l1.9-1.41,1.8-1.32c.63-.46,1.23-1,1.91-1.37l7.35,5.4c-.71-3.06-1.77-6-2.65-9,.36-.29.68-.55,1-.79l6-4.49c.14-.1.4-.16.27-.53h-8a1.69,1.69,0,0,1-1.17-.21c-.43-1.34-.86-2.76-1.33-4.18s-.82-2.85-1.47-4.4c-1,3-1.85,5.9-2.88,8.71a13,13,0,0,1-2.29.09c-.75,0-1.49,0-2.24,0h-2.36a21.75,21.75,0,0,0-2.51.06ZM89.65,150a20.43,20.43,0,0,0,1.95-1.37l1.9-1.41c.6-.45,1.19-.89,1.8-1.32a16.17,16.17,0,0,1,1.94-1.35l7.48,5.51a21,21,0,0,0-.92-3.13c-.31-1-.64-2-1-3s-.63-2-.94-3c.37-.29.69-.56,1-.8l6-4.49c.14-.1.4-.17.26-.53H101c-.32,0-.64-.05-1-.09-.47-1.49-.91-2.9-1.38-4.32s-.82-2.85-1.46-4.37c-1.06,3-1.86,5.88-2.87,8.68a8.32,8.32,0,0,1-1.93.09c-.58,0-1.16,0-1.74,0H87a9.87,9.87,0,0,0-2.06.1c.74.61,1.37,1.06,2,1.51l1.79,1.34,1.9,1.41L92.52,141c-.49,1.49-1,2.94-1.44,4.4s-1,2.94-1.43,4.61Zm50.43-1.84.46.7c.88,1.16,1.75,2.32,2.64,3.46a1.91,1.91,0,0,1,.46,1.37c0,.33,0,.66,0,1v45.53c0,6.71,0,13.44,0,20.15A50.14,50.14,0,0,0,145,231.83a48,48,0,0,0,43.56,36.78,45.92,45.92,0,0,0,13.35-1,47.47,47.47,0,0,0,28.7-19,46.9,46.9,0,0,0,9-26.32c.15-3.93.15-7.87.15-11.81q0-27.87,0-55.74a9.61,9.61,0,0,0,0-1,2,2,0,0,1,.5-1.49c.88-1.11,1.72-2.23,2.57-3.36.14-.19.38-.33.29-.7-.25,0-.53-.05-.81-.05h-4.73a6.73,6.73,0,0,1-.9-.12v-9.25q0-1.43,0-2.86a.82.82,0,0,1,.13-.31l1.14-.21c-1.66-6.41-3.28-12.72-4.92-19.07-.13.09-.23.13-.25.19-1.67,6.28-3.27,12.58-4.9,18.92l1.15.15a51.55,51.55,0,0,1,.09,6.47c0,.05-.1.1-.22.21-1.29-1.07-2.54-2.21-3.82-3.31l-3.93-3.44-3.84-3.36-3.93-3.44c-1.28-1.12-2.55-2.25-3.84-3.36s-2.58-2.3-4-3.43c-.89.77-1.73,1.52-2.58,2.23a21.94,21.94,0,0,1-2.57,2.13l-8.56-7.86a.27.27,0,0,0-.11-.05.79.79,0,0,0-.19,0l-1.78,1.45L188,121.37,186.06,123l-1.82,1.5c-.6.49-1.18,1-1.85,1.48-1.61-1.27-3-2.73-4.56-4-.26.21-.49.39-.7.58L163,134.91c-2.65,2.32-5.31,4.64-8,7-.19.16-.35.52-.72.28a37.35,37.35,0,0,1,.11-6.55l1-.16a1.9,1.9,0,0,0,0-.32q-2.37-9.21-4.75-18.41a1.63,1.63,0,0,0-.27-.41,2.35,2.35,0,0,0-.12.3q-2,7.77-4,15.52c-.27,1-.51,2.09-.75,3.13,0,.06.06.13.1.21l1.09.19v11.88a5.76,5.76,0,0,1-.09.61c-2.15,0-4.25,0-6.59,0ZM191.68,340c-3.52-.15-7-.19-10.56-.45A144,144,0,0,1,127.22,325a146.7,146.7,0,0,1-65.54-63.5,143.51,143.51,0,0,1-13.86-37.94A142,142,0,0,1,45.45,209c-.33-3.13-.58-6.27-.76-9.42-.21-3.94-.23-7.87-.11-11.81s.42-8.11.87-12.16A146.81,146.81,0,0,1,76,101a146.5,146.5,0,0,1,62.63-46.53,140.9,140.9,0,0,1,26-7.4c4-.74,8-1.31,12.05-1.74a148.73,148.73,0,0,1,21.24-.64c2.94.1,5.87.38,8.8.65a138.21,138.21,0,0,1,23.2,4.24,145.11,145.11,0,0,1,53.69,27.27,146.72,146.72,0,0,1,43.49,57.27,144.36,144.36,0,0,1,9.17,30q1.31,6.9,2,13.9a144.53,144.53,0,0,1,.61,18.89q-.19,5.9-.85,11.78A147.72,147.72,0,0,1,244.75,330,142.1,142.1,0,0,1,220,337.16c-4.07.79-8.17,1.43-12.29,1.87A148.52,148.52,0,0,1,191.68,340Z"/><path class="4de624df-53e3-4a70-b650-08c2e22bfa02" d="M359.34,229.85a8.23,8.23,0,0,0-.67,3.43,2.45,2.45,0,0,0,1.67,2.27,4.9,4.9,0,0,0,2.3.36,2.06,2.06,0,0,0,1.49-.8,6.57,6.57,0,0,0,1.09-3.77l-5.87-1.49Zm-10.52-2.58c-.24,1.06-.45,1.94-.64,2.82a2.47,2.47,0,0,0,0,.62,2.9,2.9,0,0,0,1.79,2.74,6,6,0,0,0,2.16.54,2.79,2.79,0,0,0,2.72-1.4,8.87,8.87,0,0,0,1-3.62c-2.25-.57-4.51-1.17-7-1.7Zm21.21.18a6,6,0,0,1-.05.63c-.64,2.61-1.29,5.22-2,7.83a8.84,8.84,0,0,1-1.32,2.93,4.84,4.84,0,0,1-4.86,2.09,10.46,10.46,0,0,1-1.7-.34,4.94,4.94,0,0,1-3.9-4.31c-.27-.08-.35.13-.46.3a4.93,4.93,0,0,1-5.44,2.32,9.11,9.11,0,0,1-3.25-1.15,5.9,5.9,0,0,1-2.93-4.91,9.75,9.75,0,0,1,.31-3c.62-2.62,1.29-5.22,1.94-7.83a1.55,1.55,0,0,1,.15-.32c.1,0,.19-.08.26-.06Z"/><path class="4de624df-53e3-4a70-b650-08c2e22bfa02" d="M30.61,255.34a4.4,4.4,0,0,0-.52-1.63,9.79,9.79,0,0,0-.76-1.42,2.4,2.4,0,0,0-2.46-1.09,5.26,5.26,0,0,0-1.85.65,2.35,2.35,0,0,0-1.24,2.71c.21.79.49,1.57.76,2.35a4.28,4.28,0,0,0,.37.61l5.7-2.19Zm10.11-3.93c-.38-1-.68-1.77-1-2.55a4.56,4.56,0,0,0-.7-1,2.55,2.55,0,0,0-2.09-.9,5.3,5.3,0,0,0-2.37.66,2.89,2.89,0,0,0-1.67,3.5A11,11,0,0,0,34,254c2.23-.85,4.44-1.66,6.75-2.63Zm-17.53,12c-.19-.46-.39-.86-.54-1.28l-2.4-6.26a11.34,11.34,0,0,1-.72-2.76,4.89,4.89,0,0,1,2.7-5.39,8.4,8.4,0,0,1,2.78-1,4.68,4.68,0,0,1,4.13,1.22c.17.16.36.3.61.52,0-.67-.05-1.24,0-1.82a4.26,4.26,0,0,1,1.75-3,8.27,8.27,0,0,1,5.69-1.75,5.6,5.6,0,0,1,3.95,2.1,9.2,9.2,0,0,1,1.57,2.67c1,2.58,2,5.18,3,7.77a1,1,0,0,1,0,.28c-.21.37-.67.39-1,.54q-9.14,3.54-18.31,7l-2.43.94Z"/><path class="4de624df-53e3-4a70-b650-08c2e22bfa02" d="M177.47,20.24a7.23,7.23,0,0,0,3.49-.5A2.08,2.08,0,0,0,182.35,18a8,8,0,0,0-.09-2.22,2.21,2.21,0,0,0-1.92-1.86A9.45,9.45,0,0,0,177,14a42.57,42.57,0,0,0,.43,6.25ZM178.14,31a10.51,10.51,0,0,0,3.07-.23,3.85,3.85,0,0,0,.82-.29,2.59,2.59,0,0,0,1.61-2.33,8.91,8.91,0,0,0-.07-2,2.87,2.87,0,0,0-2.77-2.56,10.22,10.22,0,0,0-3.19.24c.18,2.37.27,4.71.53,7.14Zm6-9.59c.52.14.79.19,1.06.27a4.52,4.52,0,0,1,3.06,2.87,8.2,8.2,0,0,1,0,6,5.66,5.66,0,0,1-3.38,3.27,11,11,0,0,1-3.27.7c-2.28.18-4.54.33-6.82.48-.4,0-.82,0-1.18,0l-.13-.12a.2.2,0,0,1-.05-.1q-.82-11.84-1.65-23.68c0-.07.06-.15.12-.31a6,6,0,0,1,.66-.1l2.23-.16c1.9-.13,3.8-.26,5.71-.36a8.32,8.32,0,0,1,2.83.27,4.8,4.8,0,0,1,3.55,3.48,7.89,7.89,0,0,1,.23,3.92,4.71,4.71,0,0,1-2.22,3.15Z"/><path class="4de624df-53e3-4a70-b650-08c2e22bfa02" d="M26.47,141.87a9.15,9.15,0,0,0,.86-3.5,2.39,2.39,0,0,0-1.17-2.06,5.1,5.1,0,0,0-2.22-.74,2.28,2.28,0,0,0-2.08.88A7.2,7.2,0,0,0,20.64,140l5.83,1.91Zm3.31,1a2.45,2.45,0,0,0,.48.26l6.39,2.09a10.84,10.84,0,0,0,.94-3.12,5.84,5.84,0,0,0,0-.87,2.47,2.47,0,0,0-1.19-2.06,5.55,5.55,0,0,0-2.91-.92,2.61,2.61,0,0,0-2.33,1.16,3.55,3.55,0,0,0-.5.85c-.33.85-.6,1.72-.89,2.6Zm.29-7,.44-.57a4.83,4.83,0,0,1,5-1.93,9,9,0,0,1,2.92,1,6.07,6.07,0,0,1,3.22,6.56,11.44,11.44,0,0,1-.44,1.93c-.8,2.52-1.62,5-2.45,7.56-.05.15-.13.29-.19.44-.9-.15-21.62-6.86-23-7.44a4.69,4.69,0,0,1,.1-.67q1.2-3.72,2.4-7.44a9.37,9.37,0,0,1,1.19-2.45,4.89,4.89,0,0,1,5-2.29,8.3,8.3,0,0,1,2.94.92,4.68,4.68,0,0,1,2.59,3.57C29.92,135.27,30,135.47,30.08,135.86Z"/><path class="4de624df-53e3-4a70-b650-08c2e22bfa02" d="M20.92,214.13c-.06-.63-.08-1.08-.15-1.53a12.57,12.57,0,0,0-.39-1.81,2.57,2.57,0,0,0-2.49-1.9A8.35,8.35,0,0,0,16,209a2.76,2.76,0,0,0-2.38,2.89,23.62,23.62,0,0,0,.33,3,2.79,2.79,0,0,0,.53.06l6.41-.79Zm12.15-13.27c.33,1.91.46,3.61.68,5.26a2.2,2.2,0,0,1-1.51.83c-1,.19-2,.33-2.94.5l-2.82.46a4,4,0,0,0-.71.19A2.35,2.35,0,0,0,24,210.65c0,.66.1,1.32.18,2,0,.32.12.64.2,1,1.75-.09,3.42-.39,5.1-.57s3.27-.4,5-.62c.37,1.61.43,3.17.64,4.64a1.24,1.24,0,0,1-.15.17s-.06.07-.09.08l-23.73,3a5.15,5.15,0,0,1-.2-.72c-.32-2.46-.65-4.93-.92-7.4a17,17,0,0,1-.09-3.1,4.89,4.89,0,0,1,3.26-4.45,8.53,8.53,0,0,1,4.88-.5,4.59,4.59,0,0,1,3.33,2.35,4.33,4.33,0,0,0,.27.42s.08,0,.16.06c0-.27.07-.55.13-.82a3.29,3.29,0,0,1,2-2.48,15.9,15.9,0,0,1,3.72-1c1-.16,2-.31,3.07-.49A3.34,3.34,0,0,0,33.07,200.87Z"/><path class="4de624df-53e3-4a70-b650-08c2e22bfa02" d="M147.18,26.08c.67-.15,1.24-.27,1.79-.41s.87-.27,1.29-.42a2.11,2.11,0,0,0,.43-.24A2.7,2.7,0,0,0,152,22.65a5.31,5.31,0,0,0-.56-2.52A2.53,2.53,0,0,0,149,18.58a6.92,6.92,0,0,0-1.11.11c-.57.11-1.12.26-1.68.41a6.78,6.78,0,0,0-.71.28c.57,2.22,1.1,4.37,1.67,6.7Zm3.3,13.33c-1.59.44-3.09.86-4.58,1.13-.11-.12-.2-.17-.21-.24Q142.85,28.92,140,17.52a3.19,3.19,0,0,1,0-.53c.37-.12.71-.25,1.06-.34l7.71-1.91a8.06,8.06,0,0,1,3.2-.18,4.49,4.49,0,0,1,3,1.65,8.31,8.31,0,0,1,1.71,6.42A4.24,4.24,0,0,1,155,25.45l-.68.52,1.31.21a2.89,2.89,0,0,1,2.16,1.5,13.94,13.94,0,0,1,1,2c.36,1,.63,2.06.94,3.09.16.56.33,1.11.5,1.67a3.25,3.25,0,0,0,1.29,1.91c.05,0,.05.15.09.28l-4.84,1.21a1.68,1.68,0,0,1-.92-1.06,13.9,13.9,0,0,1-.52-1.53c-.38-1.31-.71-2.64-1.11-3.94a7.23,7.23,0,0,0-.69-1.59,2.1,2.1,0,0,0-2-1.06,4.76,4.76,0,0,0-1,.1c-.8.19-1.59.41-2.46.64C148.8,32.78,149.7,36,150.48,39.41Z"/><path class="4de624df-53e3-4a70-b650-08c2e22bfa02" d="M347,120.63c.39.86.73,1.66,1.13,2.41a4.15,4.15,0,0,0,.84,1.06,2.37,2.37,0,0,0,1.93.68,5.25,5.25,0,0,0,2.93-1.23,2.46,2.46,0,0,0,.87-2.56,11.83,11.83,0,0,0-1.31-3.15,45.18,45.18,0,0,0-6.39,2.79Zm-7.88,15.94-2-4.57a1.67,1.67,0,0,1,.88-1.1,13.3,13.3,0,0,1,1.41-.78c1.23-.6,2.47-1.17,3.68-1.79a6.51,6.51,0,0,0,1.43-1,2.13,2.13,0,0,0,.65-2.37,16.92,16.92,0,0,0-1.31-3c-1.63.59-3.14,1.36-4.68,2l-4.52,2a18.69,18.69,0,0,1-2-4.27c.17-.45.64-.49,1-.64,3.92-1.77,7.86-3.51,11.79-5.27l8-3.6,1.18-.48a8.77,8.77,0,0,1,.45.79c1.09,2.46,2.17,4.92,3.27,7.38a8.54,8.54,0,0,1,.78,2.86,4.88,4.88,0,0,1-1.44,4.07,8.6,8.6,0,0,1-5.21,2.39,4.33,4.33,0,0,1-3.54-1.18l-.41-.38c-.31.09-.19.29-.2.43a5,5,0,0,0,0,.5,3,3,0,0,1-1.18,2.73,14.15,14.15,0,0,1-1.73,1.21c-.87.49-1.77.91-2.65,1.36-.59.3-1.19.58-1.78.89A4.22,4.22,0,0,0,339.16,136.58Z"/><path class="4de624df-53e3-4a70-b650-08c2e22bfa02" d="M255.7,25.47a5.43,5.43,0,0,0-.29.54L249.36,41.1a.19.19,0,0,0,0,.12,1.53,1.53,0,0,0,.08.2c.74.29,1.52.67,2.34.93a3,3,0,0,0,3.47-1,12.94,12.94,0,0,0,1.31-2,40.13,40.13,0,0,0,3.1-7.7,10,10,0,0,0,.34-1.95,3.21,3.21,0,0,0-2-3.37c-.71-.32-1.44-.59-2.28-.94ZM243.36,42.82c3-7.52,6-15,9.07-22.51.39.13.7.22,1,.34l6,2.42a13.27,13.27,0,0,1,2.85,1.49,5.92,5.92,0,0,1,2.54,4.76,11.09,11.09,0,0,1-.35,3.32,36.37,36.37,0,0,1-4,9.72A13.7,13.7,0,0,1,259,44.27a6.32,6.32,0,0,1-6.84,2.06,12.25,12.25,0,0,1-1.53-.51l-6.56-2.64C243.88,43.08,243.66,43,243.36,42.82Z"/><path class="4de624df-53e3-4a70-b650-08c2e22bfa02" d="M108.67,29.51l4.33-2c.15.24.31.42.41.63,1,2.17,2,4.35,3,6.53.17.37.37.73.55,1.08a28.16,28.16,0,0,0,5.15-2.37c-1.25-2.72-2.52-5.45-3.78-8.17a15.22,15.22,0,0,1,4.22-2.13c.4.14.45.56.59.88q3.1,6.65,6.19,13.29L132.51,44c.14.29.26.6.38.88A18.28,18.28,0,0,1,128.59,47a5.43,5.43,0,0,1-.42-.69c-1.19-2.55-2.37-5.11-3.56-7.66-.19-.4-.39-.81-.58-1.18a30.36,30.36,0,0,0-5,2.26c-.17.36.1.64.23.91q1.76,3.84,3.56,7.66c.17.37.33.75.49,1.12a20.08,20.08,0,0,1-4.3,2.13,8.42,8.42,0,0,1-.47-.82q-4.28-9.18-8.53-18.37C109.55,31.45,109.14,30.55,108.67,29.51Z"/><path class="4de624df-53e3-4a70-b650-08c2e22bfa02" d="M66.76,59.28a30.52,30.52,0,0,1,3.74-3.6,36.12,36.12,0,0,1,.87,3.83c.3,1.33.54,2.68.82,4s.55,2.59.84,4c.27.11.55.27.85.37l12.74,4.19,1.15.39a23.58,23.58,0,0,1-3.86,3.85L73.69,72.71c0,.29-.06.48-.07.66a1.82,1.82,0,0,0,.05.37c.36,2.08.37,2.08,1.86,3.62.92,1,1.85,1.91,2.76,2.87.25.27.47.56.74.88-1.13,1.18-2.28,2.25-3.48,3.37L58.78,67.06a24.91,24.91,0,0,1,3.37-3.37c.37,0,.53.36.75.58,1.73,1.79,3.45,3.58,5.18,5.37.21.22.47.41.88.77C68.26,66.52,67.42,62.9,66.76,59.28Z"/><path class="4de624df-53e3-4a70-b650-08c2e22bfa02" d="M331.62,110.94a4.55,4.55,0,0,0,2-.45,43.22,43.22,0,0,0,10.05-6.09,6,6,0,0,0,1.09-1.18,2.6,2.6,0,0,0,0-3.13,2.55,2.55,0,0,0-2.86-1.24,12.15,12.15,0,0,0-3.24,1.24,62,62,0,0,0-6.48,3.9,14.13,14.13,0,0,0-1.29,1,11.85,11.85,0,0,0-1.25,1.2,2.63,2.63,0,0,0-.18,3.52,2.41,2.41,0,0,0,2.24,1.25Zm-6.94-4.13a5.48,5.48,0,0,1,.66-2.51,11.9,11.9,0,0,1,1.32-1.94A9.87,9.87,0,0,1,328.1,101,40.54,40.54,0,0,1,338,95.08a11.52,11.52,0,0,1,2.49-.74,6.05,6.05,0,0,1,5.68,1.78,11.84,11.84,0,0,1,3,5.34,5.79,5.79,0,0,1-.39,3.87,7.61,7.61,0,0,1-1.62,2.34,14.27,14.27,0,0,1-1.19,1.08,41.29,41.29,0,0,1-10,6,10,10,0,0,1-3,.76,5.91,5.91,0,0,1-4.79-1.59,11.45,11.45,0,0,1-3.31-5.73A13.26,13.26,0,0,1,324.68,106.81Z"/><path class="4de624df-53e3-4a70-b650-08c2e22bfa02" d="M347,164.72c-.46-1.79-.88-3.47-1.31-5.22.33-.3.64-.61,1-.9l6.41-5.52a2.89,2.89,0,0,0,.87-.92,12.71,12.71,0,0,0-2.71-1,2.39,2.39,0,0,0-1.09.1c-1.73.42-3.45.87-5.18,1.3-.27.07-.56.08-.89.13-.51-1.53-.8-3.06-1.19-4.62.4-.13.71-.25,1-.33l22.45-5.6c.58,1.54.79,3.09,1.24,4.57a2.24,2.24,0,0,1-1.18.47L359.26,149c-.27.07-.55.17-1,.31.42.18.7.32,1,.41l8.71,2.94,1.08.39c.47,1.63.84,3.27,1.23,4.87-.28.25-.46.06-.64,0a3,3,0,0,1-.47-.15l-8.95-3c-.27-.09-.56-.17-.82-.28a1.14,1.14,0,0,0-1.34.29c-1.64,1.52-3.31,3-5,4.5l-5.26,4.74A9.87,9.87,0,0,1,347,164.72Z"/><path class="4de624df-53e3-4a70-b650-08c2e22bfa02" d="M364.37,249.22a21.53,21.53,0,0,1-1.74,4.52c-.3-.1-.61-.19-.91-.31l-14.36-5.54a9,9,0,0,0-2.63-.71,2.73,2.73,0,0,0-3,3,2.3,2.3,0,0,0,.83,1.61,6.83,6.83,0,0,0,2.14,1.24l6.37,2.46,8.46,3.25c.34.13.68.28,1,.42a18.81,18.81,0,0,1-1.61,4.52,6.74,6.74,0,0,1-.66-.16l-14.95-5.75a11.76,11.76,0,0,1-2.75-1.43,6,6,0,0,1-2.69-5.3,11,11,0,0,1,2.44-6.53,5.58,5.58,0,0,1,5.64-2.09,14.45,14.45,0,0,1,2.75.75q7.48,2.85,14.95,5.74C363.87,249,364.1,249.09,364.37,249.22Z"/><path class="4de624df-53e3-4a70-b650-08c2e22bfa02" d="M22.89,122.17c.67-1.49,1.3-2.92,2-4.36.49.21.91.38,1.31.57l13.62,6.37a8.23,8.23,0,0,0,2.57.89,2.68,2.68,0,0,0,3.18-2.76,2.21,2.21,0,0,0-.62-1.58,6.39,6.39,0,0,0-2-1.43c-1.19-.58-2.4-1.13-3.6-1.69l-10.92-5.1c-.33-.15-.66-.33-1-.5a21.07,21.07,0,0,1,2.05-4.41l2.13,1c4.24,2,8.48,4,12.72,6a15.83,15.83,0,0,1,2.38,1.35,6.14,6.14,0,0,1,2.66,6.83,11.29,11.29,0,0,1-2.75,5.36,5.58,5.58,0,0,1-5.3,1.77,11.37,11.37,0,0,1-3-.93l-15.09-7.06A3.32,3.32,0,0,1,22.89,122.17Z"/><path class="4de624df-53e3-4a70-b650-08c2e22bfa02" d="M44.35,84.12l3-3.76c.51.4,1,.76,1.4,1.12Q54.67,86.26,60.57,91a8.76,8.76,0,0,0,1.87,1.19,2.75,2.75,0,0,0,3.88-2.34,2.46,2.46,0,0,0-.48-1.51,7.5,7.5,0,0,0-1.7-1.79l-6-4.86-6.27-5.1c-.26-.21-.5-.43-.74-.64a18.06,18.06,0,0,1,3-3.85l3.37,2.72c3.12,2.53,6.25,5.06,9.35,7.62a21.58,21.58,0,0,1,2,1.88,6.3,6.3,0,0,1,1.35,2.22,5.8,5.8,0,0,1,0,4.13,11.27,11.27,0,0,1-4.44,5.53,5.41,5.41,0,0,1-5.11.54,11.57,11.57,0,0,1-3.29-2L48.3,87.44,45,84.77C44.81,84.58,44.62,84.37,44.35,84.12Z"/><path class="4de624df-53e3-4a70-b650-08c2e22bfa02" d="M373,205.28c-.21,1.62-.39,3.09-.57,4.52a1.31,1.31,0,0,1-1.14.13c-1.61-.18-3.2-.39-4.81-.58l-7.15-.89c-1.06-.14-2.13-.29-3.2-.39a16,16,0,0,0-2.48-.1,2.72,2.72,0,0,0-2.46,3.81,2.21,2.21,0,0,0,1.06,1.17,6.85,6.85,0,0,0,2.49.74l9.62,1.19,6.66.81c.2,0,.39.08.64.13-.11,1.62-.33,3.17-.55,4.75a15.13,15.13,0,0,1-2.76-.24c-2.47-.27-4.94-.6-7.4-.91s-5-.64-7.52-1a8.76,8.76,0,0,1-1.67-.45,6.09,6.09,0,0,1-4.32-5.4,12.1,12.1,0,0,1,.59-5.27,6,6,0,0,1,5.78-4.29,23.7,23.7,0,0,1,4.34.34c2.39.28,4.77.59,7.15.88l6.78.82A7.88,7.88,0,0,1,373,205.28Z"/><path class="4de624df-53e3-4a70-b650-08c2e22bfa02" d="M15.84,242.24a21,21,0,0,1-1.12-4.77c.82-.21,1.65-.44,2.48-.64l14-3.49a6.68,6.68,0,0,0,2.17-.89,2.78,2.78,0,0,0,.11-4.46,2.23,2.23,0,0,0-1.16-.41,7.69,7.69,0,0,0-2.46.2l-15.77,3.94c-.24.06-.48.09-.71.14a18.73,18.73,0,0,1-1.23-4.61c.28-.1.58-.25.88-.33q7.52-1.89,15.06-3.76c.68-.17,1.37-.3,2.07-.41a6.82,6.82,0,0,1,3.66.4,5.62,5.62,0,0,1,2.67,2.15,11,11,0,0,1,1.79,7.46,5.43,5.43,0,0,1-2.76,4.08,10.56,10.56,0,0,1-3.09,1.26l-12.77,3.2C18.39,241.62,17.16,241.92,15.84,242.24Z"/><path class="4de624df-53e3-4a70-b650-08c2e22bfa02" d="M373.05,178.93l-3,.39-7.4.92c-2.18.27-4.35.57-6.53.79a10,10,0,0,1-3.71-.17,5.8,5.8,0,0,1-3.87-3.06,10.94,10.94,0,0,1-.88-7.62,5.45,5.45,0,0,1,2.9-3.55,9.25,9.25,0,0,1,3.07-1c2-.28,4-.52,6-.76l7-.88,4.36-.51c.34,1.61.41,3.17.67,4.78-.58.1-1,.21-1.53.27l-9.14,1.09c-2.05.25-4.11.49-6.16.76a7.34,7.34,0,0,0-2.4.64,2.8,2.8,0,0,0-.78,4.33,2.17,2.17,0,0,0,1.42.71,10.21,10.21,0,0,0,2,.05c1.9-.19,3.79-.42,5.68-.65l7.28-.9,3-.37,1.31-.15C372.75,175.66,372.8,177.22,373.05,178.93Z"/><path class="4de624df-53e3-4a70-b650-08c2e22bfa02" d="M202.39,353.42a12.7,12.7,0,0,0-.37-1.85,2,2,0,0,0-2.28-1.51,2.06,2.06,0,0,0-2,1.7,5.56,5.56,0,0,0,.27,3.54,2.12,2.12,0,0,0,2.22,1.45,2.21,2.21,0,0,0,2-1.86c.08-.41.08-.83.13-1.47Zm1.24,11.14a8.68,8.68,0,0,0-.72-3.27,2.31,2.31,0,0,0-2.44-1.32,2.24,2.24,0,0,0-2.25,1.61,7.5,7.5,0,0,0,.35,5.32,2.6,2.6,0,0,0,4.68-.29,18,18,0,0,0,.38-2.05Zm.46-6.67c.32.12.52.21.75.28a4.54,4.54,0,0,1,2.91,2.7,8.52,8.52,0,0,1,.16,6.54,5.52,5.52,0,0,1-3.23,3.27,11,11,0,0,1-7,.48,5.64,5.64,0,0,1-4-3.47,8.89,8.89,0,0,1-.47-5.6,4.67,4.67,0,0,1,2.7-3.37c.11-.05.21-.12.33-.18s.06-.06.14-.15c-.21-.09-.4-.19-.6-.26a4.26,4.26,0,0,1-2.74-3.15,7.48,7.48,0,0,1,.27-4.52,4.83,4.83,0,0,1,2.35-2.63,8.31,8.31,0,0,1,3-.9,10.31,10.31,0,0,1,4.07.15,5.13,5.13,0,0,1,3.84,3.54,8.26,8.26,0,0,1,.46,2.81,4.48,4.48,0,0,1-2.34,4.1C204.53,357.63,204.36,357.73,204.09,357.89Z"/><path class="4de624df-53e3-4a70-b650-08c2e22bfa02" d="M179.34,355.63c.09.64.15,1.43.33,2.19a2.11,2.11,0,0,0,1.95,1.65,2.28,2.28,0,0,0,2.64-1.55,10.93,10.93,0,0,0,.58-3.41,8,8,0,0,0-.22-2.58,2.16,2.16,0,0,0-1.17-1.52,2.41,2.41,0,0,0-3.51,1.42,6.66,6.66,0,0,0-.27,1.08c-.12.86-.21,1.73-.33,2.73ZM174.51,365c.33,0,.57,0,.81,0l3.65.28c0,.25.08.48.12.71s.1.74.21,1.09a1.64,1.64,0,0,0,.88,1,2.62,2.62,0,0,0,3.35-1,7.44,7.44,0,0,0,.76-2.48c.15-1,.21-2,.33-3.1a3.55,3.55,0,0,0-.61.33c-1.91,1.66-5.18,1.43-7,.27a4.58,4.58,0,0,1-1.75-2.05,8.87,8.87,0,0,1-.76-3.25,14.29,14.29,0,0,1,.52-4.67,10.11,10.11,0,0,1,.8-1.95,5.8,5.8,0,0,1,4-3,10.49,10.49,0,0,1,5.52.29,5.57,5.57,0,0,1,3.19,2.61,7.76,7.76,0,0,1,1,2.79,22.85,22.85,0,0,1,.17,5.57c-.14,1.36-.19,2.73-.38,4.08s-.44,2.52-.72,3.78a7.71,7.71,0,0,1-1.14,2.47,5.66,5.66,0,0,1-3.92,2.61,11.37,11.37,0,0,1-4.93-.17,6.05,6.05,0,0,1-.93-.35C175.32,369.76,174.23,367.82,174.51,365Z"/><path class="4de624df-53e3-4a70-b650-08c2e22bfa02" d="M303.49,70.48c1.15,1.12,2.19,2.28,3.33,3.44l-.78.85a5,5,0,0,0-1,1.54,2.22,2.22,0,0,0,.06,1.92,4.19,4.19,0,0,0,1.35,1.6,2.67,2.67,0,0,0,3.13,0,4.61,4.61,0,0,0,1-.93,2.85,2.85,0,0,0,.62-2.45,12.45,12.45,0,0,0-1-2.92,19.61,19.61,0,0,1-1.17-3,6.36,6.36,0,0,1,1.79-6.71A9.66,9.66,0,0,1,313.23,62a5.36,5.36,0,0,1,4.69-.21,10.14,10.14,0,0,1,5.83,6.41,4.89,4.89,0,0,1-.46,4,8.47,8.47,0,0,1-1.87,2.29,18.86,18.86,0,0,1-3.26-3.27c.16-.21.35-.43.51-.66a7.33,7.33,0,0,0,.7-1.16,2.13,2.13,0,0,0-.27-2.23c-1.45-1.86-3-1.64-4.34-.35a2.87,2.87,0,0,0-.84,3.17c.47,1.37,1,2.72,1.49,4.09a15.47,15.47,0,0,1,.92,3.35,5.24,5.24,0,0,1-1,3.88,9.55,9.55,0,0,1-3.68,3.07,5.44,5.44,0,0,1-4.22.27,9.38,9.38,0,0,1-2-.94,13.44,13.44,0,0,1-4.22-4.33,5.74,5.74,0,0,1,.39-6.95A10,10,0,0,1,303.49,70.48Z"/><path class="4de624df-53e3-4a70-b650-08c2e22bfa02" d="M15.84,182.78a24.58,24.58,0,0,1-.06,4.57c-.3,0-.63.09-.94.15a7.61,7.61,0,0,0-1.08.25,2.1,2.1,0,0,0-1.44,1.71,3.69,3.69,0,0,0,.21,2.07,2,2,0,0,0,1.61,1.22,7.24,7.24,0,0,0,2,0,2.05,2.05,0,0,0,1.43-.92,9,9,0,0,0,.81-1.39c.58-1.24,1.11-2.5,1.71-3.73a19,19,0,0,1,1.3-2.26,5.33,5.33,0,0,1,4.2-2.33,9.85,9.85,0,0,1,3.8.43A5.85,5.85,0,0,1,33,185.71a8,8,0,0,1,.75,2.49,15.57,15.57,0,0,1-.18,5.31A5.72,5.72,0,0,1,28,198.27c-.7,0-1.4,0-2.13,0a7,7,0,0,1-.09-2.38c0-.78.06-1.56.1-2.4l.76-.1a12.56,12.56,0,0,0,1.61-.16,2.38,2.38,0,0,0,1.94-1.86,3.82,3.82,0,0,0,0-2.32,2.42,2.42,0,0,0-1.61-1.6c-1.78-.52-3.3-.09-4.11,1.37a25.66,25.66,0,0,0-1.1,2.36c-.31.72-.53,1.49-.88,2.19a14.85,14.85,0,0,1-1.29,2.12,5.47,5.47,0,0,1-3.89,2.22,9.94,9.94,0,0,1-3.83-.21,5.81,5.81,0,0,1-4.13-3.62,6.84,6.84,0,0,1-.4-1.43,11.49,11.49,0,0,1,.29-5.53,5.48,5.48,0,0,1,5.16-4.15l1.12-.07A2.48,2.48,0,0,1,15.84,182.78Z"/><path class="4de624df-53e3-4a70-b650-08c2e22bfa02" d="M95,67.84c-.34-.07-.52.21-.76.35A9.72,9.72,0,0,1,91,69.63a4.89,4.89,0,0,1-3.25-.44,8.91,8.91,0,0,1-3.58-3.43c1.26-1,2.52-1.94,3.81-2.9l.52.58a9,9,0,0,0,.65.75,2.62,2.62,0,0,0,2.64,1,3.58,3.58,0,0,0,2.64-2.4,2.09,2.09,0,0,0,.09-.61,3.53,3.53,0,0,0-3.12-3.31,8.58,8.58,0,0,0-2.8.46,32.72,32.72,0,0,1-3.35.91,10.9,10.9,0,0,1-2.59.1,4.63,4.63,0,0,1-2.51-1,9.12,9.12,0,0,1-3.31-4.83,5.46,5.46,0,0,1,.28-3.76,4.74,4.74,0,0,1,.46-.88,10.64,10.64,0,0,1,6.33-4.5,5.07,5.07,0,0,1,4.46.94,8.26,8.26,0,0,1,2,2.14c-1.15,1-2.41,1.87-3.7,2.88a11,11,0,0,0-.87-1c-1.35-1.24-2.63-1.18-3.91.15a2.21,2.21,0,0,0-.45,2.83,4.7,4.7,0,0,0,.63.92,2.76,2.76,0,0,0,2.88,1c1.42-.31,2.82-.68,4.23-1A28.19,28.19,0,0,1,92,53.82a5.28,5.28,0,0,1,4.69,1.78,10.81,10.81,0,0,1,1.92,2.88,5.89,5.89,0,0,1-.25,5.6,10.77,10.77,0,0,1-1.83,2.34c-.19.19-.52.31-.48.67h0a1.22,1.22,0,0,0-1,.76Z"/><path class="4de624df-53e3-4a70-b650-08c2e22bfa02" d="M15.2,168.44c1.12.61,9,3.53,10.06,3.73a15.81,15.81,0,0,0,.59-4.46c-1.06-.09-8,.39-10.66.73Zm-4.89,2.42c.22-2.1.5-4,.82-6,1.67-.36,3.32-.43,4.95-.67s3.29-.38,4.94-.58,3.37-.42,5-.63,3.29-.41,4.94-.58,3.25-.47,5-.55c-.12,1.72-.41,3.29-.64,4.89-1.73.45-3.49.24-5.22.58-.38,2.12-.64,4.21-.91,6.33,1.61.73,3.25,1.18,4.76,1.85a24.37,24.37,0,0,1-.65,5c-.23-.08-.46-.14-.69-.23C25.24,177.17,17.81,174,10.31,170.86Z"/><path class="4de624df-53e3-4a70-b650-08c2e22bfa02" d="M214.63,352.19c.09.9.13,1.69.23,2.46.2,1.48.41,3,.67,4.41s.59,3.08.94,4.61a7.4,7.4,0,0,0,.63,1.61,1.9,1.9,0,0,0,2,1.12,2,2,0,0,0,2-1.6,3.16,3.16,0,0,0,.13-1c0-1.19-.05-2.4-.18-3.59-.15-1.43-.38-2.87-.63-4.29-.28-1.62-.6-3.25-1-4.86a7.52,7.52,0,0,0-.75-1.83,1.8,1.8,0,0,0-1.75-1,2,2,0,0,0-2.22,1.9,18.84,18.84,0,0,0-.12,2ZM226,361.53a10.66,10.66,0,0,1-.47,3.67,5.65,5.65,0,0,1-3.75,3.84,9.66,9.66,0,0,1-5.49.46,5,5,0,0,1-2.93-2,10.82,10.82,0,0,1-1.37-2.64,29.26,29.26,0,0,1-1.34-5.54,38.62,38.62,0,0,1-.64-7,9.23,9.23,0,0,1,.58-3.16,5.56,5.56,0,0,1,3.27-3.37,10.53,10.53,0,0,1,5.24-.7,5,5,0,0,1,3.54,2.09,8.94,8.94,0,0,1,1.36,2.64,33.32,33.32,0,0,1,1,3.71c.38,2,.64,4.09.92,6.14C225.94,360.27,225.92,360.9,226,361.53Z"/><path class="4de624df-53e3-4a70-b650-08c2e22bfa02" d="M100.95,45,107.76,41c.79,1.1,1.39,2.22,2.08,3.37-1.13.82-2.3,1.43-3.43,2.12s-2.26,1.37-3.43,2.09a16.24,16.24,0,0,0,1.56,2.82,27.8,27.8,0,0,0,1.73,2.78c1.37-.73,2.6-1.54,3.88-2.29s2.47-1.49,3.76-2.26c.82,1.08,1.37,2.22,2,3.22a1.92,1.92,0,0,1-.07.22.21.21,0,0,1-.08.09l-11.16,6.75a5.24,5.24,0,0,1-.49.24c-.18-.25-.35-.47-.5-.71-5.12-8.35-11.51-19.14-11.9-20.07.7-.61,10.23-6.37,11.45-6.93a1.14,1.14,0,0,1,.26.24l1.8,3c-1.21.89-2.49,1.55-3.71,2.32S99.12,39.39,98,40.2A27.32,27.32,0,0,0,100.95,45Z"/><path class="4de624df-53e3-4a70-b650-08c2e22bfa02" d="M236.52,19.76c-.52,1.87-1,3.61-1.43,5.43,2.57.83,5.16,1.37,7.74,2.17a35.91,35.91,0,0,1-.93,3.79,6.68,6.68,0,0,1-.76-.12L235,29.41c-.31-.09-.64-.13-1-.21-.62,2.07-1.14,4.1-1.67,6.18,1.45.57,2.92.83,4.34,1.25s2.8.7,4.22,1.18a33.83,33.83,0,0,1-.89,3.83c-2.34-.5-4.54-1.18-6.77-1.77s-4.4-1.12-6.59-1.79a6,6,0,0,1,.06-.68c.76-3.33,5.79-21.83,6.19-22.74a.62.62,0,0,1,.24,0l12.35,3.31a1.55,1.55,0,0,1,.37.22c-.17,1.22-.63,2.37-.87,3.49-.4.29-.71.12-1,0L237.48,20C237.21,19.88,236.93,19.84,236.52,19.76Z"/><path class="4de624df-53e3-4a70-b650-08c2e22bfa02" d="M291.79,65.39c1.21,1,2.38,1.91,3.52,2.87s2.28,1.76,3.37,2.82c-.8,1.06-1.6,2-2.48,3.07-3.61-2.9-7.13-5.78-10.72-8.7a5.11,5.11,0,0,1,.37-.62Q293,55.92,300.21,47c.13-.16.27-.3.46-.51,1.25.83,2.34,1.85,3.49,2.76s2.32,1.88,3.48,2.82L311.17,55c-.7,1.18-1.64,2.09-2.43,3.19l-6.66-5.38a31,31,0,0,0-3.58,4.36,35.58,35.58,0,0,0,3,2.54c1,.85,2.05,1.67,3.12,2.54a7.1,7.1,0,0,1-1.16,1.62c-.38.49-.78,1-1.23,1.5a7.87,7.87,0,0,1-.71-.46l-4.44-3.61c-.38-.31-.77-.6-1.15-.89A42.15,42.15,0,0,0,291.79,65.39Z"/><path class="4de624df-53e3-4a70-b650-08c2e22bfa02" d="M198.53,30.34l8.8.64a10.47,10.47,0,0,1-.18,3.92,17.57,17.57,0,0,1-3.42-.16c-1.16,0-2.32-.15-3.47-.23s-2.23-.17-3.35-.24a24.55,24.55,0,0,1-3.45-.31,1.32,1.32,0,0,1-.09-.39L195,10.28a3.36,3.36,0,0,1,.12-.52c4.46.24,8.85.6,13.24.9a10.33,10.33,0,0,1-.18,3.91,25.31,25.31,0,0,1-4.18-.2c-1.4-.08-2.81-.17-4.25-.27a12,12,0,0,0-.3,2.84,16.37,16.37,0,0,0-.16,2.79c2.65.37,5.3.35,7.89.68a11.31,11.31,0,0,1-.2,3.87,24.29,24.29,0,0,1-3.94-.19c-1.31-.09-2.63-.16-4-.24a7.47,7.47,0,0,0-.18.89C198.77,26.55,198.66,28.36,198.53,30.34Z"/><path class="4de624df-53e3-4a70-b650-08c2e22bfa02" d="M325.08,85.69a17.49,17.49,0,0,0,1.73,2.26,2.74,2.74,0,0,0,3,.71,5.38,5.38,0,0,0,2.81-2.16,2.54,2.54,0,0,0,.25-2.49,8.8,8.8,0,0,0-1.94-2.72l-5.81,4.4Zm-2.94,2.23-3.92,2.94c-1.25.94-2.47,1.92-3.81,2.83L311.61,90c.13-.51.54-.68.86-.92q6.14-4.66,12.3-9.3l5.36-4.05c.22-.17.46-.31.75-.5.2.22.37.39.52.58,1.52,2,3,4,4.55,6.07a11,11,0,0,1,1,1.69,5.44,5.44,0,0,1-.25,5.47,9.55,9.55,0,0,1-5.35,4.22,5.48,5.48,0,0,1-3.89-.18,8.51,8.51,0,0,1-3.31-2.56c-.45-.54-.85-1.12-1.29-1.67C322.66,88.54,322.42,88.26,322.14,87.92Z"/><path class="4de624df-53e3-4a70-b650-08c2e22bfa02" d="M296.2,42.94,295,43.8c-3.67,2.57-7.33,5.13-11,7.68a5.28,5.28,0,0,0-1.59,1.7c-1.2,2-2.44,3.95-3.67,5.92-.21.35-.45.69-.67,1A16.65,16.65,0,0,1,274,57.68a5,5,0,0,1,.27-.63c1.37-2.22,2.76-4.44,4.15-6.65a4.24,4.24,0,0,0,.66-1.72c.36-2.46.76-4.91,1.14-7.37l1.06-6.88a5,5,0,0,1,.17-.58A26.21,26.21,0,0,1,286,36.69c-.63,3.11-1.47,6.22-2.19,9.62,2.8-2.12,5.29-4.17,7.91-6.16Z"/><path class="4de624df-53e3-4a70-b650-08c2e22bfa02" d="M41.2,88.64c.25.34.51.67.74,1,2.6,3.74,5.21,7.49,7.8,11.24a4.55,4.55,0,0,0,1.42,1.36c2.05,1.25,4.08,2.55,6.11,3.83l1,.67a20.36,20.36,0,0,1-2.55,4.13l-1-.63c-2.08-1.3-4.16-2.58-6.22-3.9a4,4,0,0,0-1.61-.61l-8.47-1.31-6.34-1a3.83,3.83,0,0,1,.21-.59q1.13-1.85,2.29-3.7a4.31,4.31,0,0,1,.34-.39l9.45,2.21a19.07,19.07,0,0,0-1.95-2.7c-.64-.86-1.32-1.7-2-2.55l-2-2.52A24.1,24.1,0,0,1,41.2,88.64Z"/><path class="4de624df-53e3-4a70-b650-08c2e22bfa02" d="M214.2,11.13l4.64.75a4.26,4.26,0,0,1,0,.75q-.94,6-1.89,12c-.34,2.16-.68,4.34-1,6.5,0,.24,0,.48-.07.81,2.78.58,5.57.88,8.29,1.39a11.2,11.2,0,0,1-.55,3.88,4.41,4.41,0,0,1-.58,0c-4.2-.69-8.41-1.31-12.59-2C210.44,34.14,213.78,12.72,214.2,11.13Z"/><path class="4de624df-53e3-4a70-b650-08c2e22bfa02" d="M353.08,190.62a27.2,27.2,0,0,0,0,2.89c0,.91,0,1.82,0,2.73s0,1.9,0,2.89a5.67,5.67,0,0,1-2,.15c-.62,0-1.23,0-1.79,0l-.13-.16s-.06-.07-.06-.1q-.13-6-.25-11.93c0-.33,0-.66,0-1,0-.08.06-.15.12-.28a4.71,4.71,0,0,1,.55-.08c5-.25,22.09-.5,23.46-.34a18.19,18.19,0,0,1,.14,4.72c-.21,0-.45.09-.68.12a2.65,2.65,0,0,1-.37,0l-17.76.29C354,190.56,353.55,190.59,353.08,190.62Z"/><path class="4de624df-53e3-4a70-b650-08c2e22bfa02" d="M163.19,351.83c-1.52-.46-3.07-.44-4.6-.89a15.84,15.84,0,0,1,.53-3.06l.76.09a7.74,7.74,0,0,0,2.59-.09,4.06,4.06,0,0,0,2.79-2.09l.39-.72a10.55,10.55,0,0,1,3.43.55.84.84,0,0,1,.06.23q-1.79,11.41-3.6,22.82c0,.2-.1.39-.16.64-1.56-.14-3-.43-4.52-.68-.32-.37-.15-.76-.09-1.11q.37-2.52.79-5l1.62-10.18C163.2,352.22,163.19,352.09,163.19,351.83Z"/><path class="4de624df-53e3-4a70-b650-08c2e22bfa02" d="M273.33,29.44l4.1,2.19c.15.5-.14.8-.3,1.11l-6.58,12.41-3.67,6.92c-.19.36-.39.71-.59,1.06A17.85,17.85,0,0,1,262,51c0-.46.29-.82.5-1.21q4.91-9.29,9.84-18.55C272.67,30.67,273,30.13,273.33,29.44Z"/><path class="4de624df-53e3-4a70-b650-08c2e22bfa02" d="M129.26,20.66l4.53-1.58a6.85,6.85,0,0,1,.36.78q3.68,10.68,7.35,21.35c.09.27.15.54.24.87-1.49.64-3,1.06-4.53,1.61-.78-1.92-1.36-3.86-2-5.76s-1.32-3.83-2-5.75l-1.93-5.63C130.63,24.63,130,22.73,129.26,20.66Z"/><path class="51ea9244-f34e-4df1-86bd-78c8d0f77687" d="M96,67.1c.09.05.21.17.27.15a5,5,0,0,0,.73-.46c.37-.26.73-.53,1.12-.82.09.14.19.23.2.33.09,1.82.18,3.64.27,5.47l-2.5,1.88c-.63-1.64-1-3.25-1.5-4.87a7.69,7.69,0,0,0,.52-.64c0-.05-.06-.18-.09-.27h0c0,.06.11.19.14.18a1.47,1.47,0,0,0,1-.77s-.09-.11-.15-.16Z"/><path class="51ea9244-f34e-4df1-86bd-78c8d0f77687" d="M374.71,208.28l3.92.49a22.7,22.7,0,0,1-.46,3.71c-1.31,0-2.52-.29-3.78-.36a3.77,3.77,0,0,1,.08-1.86C374.52,209.64,374.62,209,374.71,208.28Z"/><path class="51ea9244-f34e-4df1-86bd-78c8d0f77687" d="M374,214.18c1.37,0,2.58.27,3.81.41a4.24,4.24,0,0,1-.09,1.87c0,.61-.15,1.22-.23,1.8a15.78,15.78,0,0,1-3.92-.47A26.87,26.87,0,0,1,374,214.18Z"/><path class="51ea9244-f34e-4df1-86bd-78c8d0f77687" d="M276.67,24.53l3.18,1.69a27,27,0,0,1-1.76,3.53,24.26,24.26,0,0,1-3.26-1.67A14.83,14.83,0,0,1,276.67,24.53Z"/><path class="51ea9244-f34e-4df1-86bd-78c8d0f77687" d="M363.86,256.16a31,31,0,0,1,1.39-3.44c1.26.36,2.41.89,3.58,1.32a12.34,12.34,0,0,1-1.37,3.54A29.48,29.48,0,0,1,363.86,256.16Z"/><path class="51ea9244-f34e-4df1-86bd-78c8d0f77687" d="M365.53,263.12a32.43,32.43,0,0,1-3.75-1.46,24.27,24.27,0,0,1,1.39-3.51l3.61,1.4C366.48,260.8,365.93,261.85,365.53,263.12Z"/><path class="51ea9244-f34e-4df1-86bd-78c8d0f77687" d="M22.9,108.3A37.68,37.68,0,0,1,26.4,110a34.51,34.51,0,0,1-1.51,3.37,37.86,37.86,0,0,1-3.49-1.56c0-.17,0-.31,0-.4A24.8,24.8,0,0,1,22.9,108.3Z"/><path class="51ea9244-f34e-4df1-86bd-78c8d0f77687" d="M23.92,115.33a21.48,21.48,0,0,1-1.5,3.27A12.84,12.84,0,0,1,18.85,117a23,23,0,0,1,1.55-3.36A36.91,36.91,0,0,1,23.92,115.33Z"/><path class="51ea9244-f34e-4df1-86bd-78c8d0f77687" d="M41.57,78.17l2.35-2.93a33.71,33.71,0,0,1,3,2.4,11.69,11.69,0,0,1-2.24,2.92c-.08,0-.18,0-.23,0Z"/><path class="51ea9244-f34e-4df1-86bd-78c8d0f77687" d="M45.23,73.62l2.33-2.88a13.92,13.92,0,0,1,3.15,2.51l-2.28,2.82C47.29,75.38,46.4,74.47,45.23,73.62Z"/><path class="51ea9244-f34e-4df1-86bd-78c8d0f77687" d="M127.83,14.9l3.57-1.24a26.88,26.88,0,0,1,1.3,3.72,25.5,25.5,0,0,1-3.43,1.27A32.36,32.36,0,0,1,127.83,14.9Z"/><path class="9fc7b3ca-4169-4fb8-8292-3486db98dd1c" d="M192.29,216.89a3.75,3.75,0,0,0,3.82,3.88,3.81,3.81,0,0,0,3.89-3.85,3.87,3.87,0,0,0-3.85-3.89,3.81,3.81,0,0,0-3.86,3.86Zm-1.18,0A3.87,3.87,0,0,0,187.3,213a3.89,3.89,0,0,0,0,7.77,3.87,3.87,0,0,0,3.86-3.86Zm.59-26c1.57.93,3.1,1.84,4.64,2.73s3,1.85,4.58,2.67c.09-.13.18-.2.18-.26,0-1.24,0-2.48,0-3.78-3.13-1.9-6.26-3.73-9.41-5.58l-9.41,5.57a40.59,40.59,0,0,0,.08,4.06,13.94,13.94,0,0,0,1.93-1l1.82-1.07,1.92-1.14,1.82-1.07,1.85-1.08Zm37.43-39.68v-4.78L205.69,126a12.23,12.23,0,0,0-2.84,2.5L228.67,151a3.63,3.63,0,0,0,.46.23Zm-74.87-.15c.16,0,.21.06.24.05a.87.87,0,0,0,.21-.12l25.73-22.5a.17.17,0,0,0,.07-.1.73.73,0,0,0,0-.19,31.22,31.22,0,0,0-2.64-2.3c-1.26.92-23,20-23.59,20.68,0,1.48,0,3,0,4.48Zm0,16.21v-11.8c.64-.73,36.3-32.36,37.4-33.17h.12a.22.22,0,0,1,.11.05l36.59,32.4.64.59v12.05a2.3,2.3,0,0,1-.49-1,39,39,0,0,0-29.6-26.11,38.77,38.77,0,0,0-44,25.42c-.19.53-.37,1.06-.56,1.61l-.18-.05Zm50.47,79.44-1.37-.9c-1.33-.84-2.67-1.67-4-2.52-.52-.33-1-.7-1.52-1.07a6.12,6.12,0,0,1-2.23-3.07c-.33-1-.56-2.08-.88-3.11a11.93,11.93,0,0,1-.44-4c0-.91,0-1.82.08-2.74a3.14,3.14,0,0,1,.09-.86.79.79,0,0,1,.39-.42.5.5,0,0,1,.64.22,3.18,3.18,0,0,1,.27.94c.12.7.21,1.39.33,2.09a9,9,0,0,0,.33,1,39.4,39.4,0,0,0,.6-5.34c.14-1.69.22-3.39.34-5.16.23-.16.51-.34.76-.54a17.49,17.49,0,0,0,1.63-1.33,3.79,3.79,0,0,0,.64-4.69c-.22-.44-.51-.85-.76-1.26.34-2.08,2.1-6.34,4.1-9.91-.53-.65-1.37-1-2-1.64a5.35,5.35,0,0,1,1.42-1.19c.7.21,1.36.44,2,.64a2.29,2.29,0,0,0,1.68-.08,3,3,0,0,1,2.76.19,3.13,3.13,0,0,1,1,.88c.49.67.35,1.24-.33,1.81-.09.08-.18.17-.33.31a28.85,28.85,0,0,1,8.91,10.71,26.16,26.16,0,0,1,2.48,8.45,6.55,6.55,0,0,1-.37-.7,25.17,25.17,0,0,0-4.52-7.68,54.45,54.45,0,0,0-9.68-8.91.86.86,0,0,0-.22-.09c-2.17,1.88-3.28,6.17-2.49,9.67.6.5,1.22,1,1.8,1.51a17.75,17.75,0,0,1,3.46,4.21,1.38,1.38,0,0,1,0,1.51,6,6,0,0,1-.54.83,13.15,13.15,0,0,1-4.18,3.47,3.31,3.31,0,0,1-2.9.35,10.07,10.07,0,0,0-2,5c0,.21,0,.41-.05.62-.12,2-.12,2,.92,3.73.36.6.71,1.22,1.1,1.8a1.3,1.3,0,0,1,0,1.71,1.51,1.51,0,0,0-.16.35,20,20,0,0,0,3,3c.33-.09.27-.33.27-.52a57.2,57.2,0,0,0-.7-9.54c-.21-1.27-.45-2.53-.67-3.79a1.06,1.06,0,0,1,.58-1.35,4.93,4.93,0,0,1,2-.64l2.16-.21c.1-.43.21-.86.3-1.3a7.2,7.2,0,0,1,.88-2.31,1.44,1.44,0,0,1,1.76-.76q3.68.86,7.41,1.57a4.39,4.39,0,0,1,3.67,4,12.19,12.19,0,0,1-.64,5.87c-1.07,3.27-2.16,6.53-3.25,9.79-.35,1.06-.79,2.1-1,3.19a2.48,2.48,0,0,1-3.19,1.57,1.06,1.06,0,0,1-.76-1.45c.32-1.33.68-2.64,1-4,.74-3,1.47-6,2.22-9a4,4,0,0,0,.07-1.85,2.64,2.64,0,0,0-1.93-2.07,12.32,12.32,0,0,0-4-.24,8.14,8.14,0,0,0-.1.82c0,1.16,0,2.32-.09,3.49a69.05,69.05,0,0,1-3.5,19.76,10.84,10.84,0,0,1-.5,1.27.75.75,0,0,1-1.15.31,3.2,3.2,0,0,1-1.44-3.08c.16-1,.38-2,.52-3.07s.22-1.9.31-2.84c0-.39,0-.76,0-1.26Zm22.85-27.88h-3.46c-.29-.36-.18-.75-.18-1.11q0-5.72,0-11.45V184.87a2.64,2.64,0,0,0-.61-.14H208.64a1.61,1.61,0,0,0-.35.08c-.29.33-.18.72-.18,1.08,0,3,0,6.05,0,9.08v1.4a11.34,11.34,0,0,1-2.88.13c-.9,0-1.81,0-2.65,0a1.51,1.51,0,0,1-.22-1.16c0-3.07,0-6.14,0-9.2v-1.24a2.43,2.43,0,0,0-1.39-.17H182c-.28,0-.56,0-.91,0a20.76,20.76,0,0,0-.06,2.4c0,.75,0,1.49,0,2.24v2.36c0,.75,0,1.49,0,2.24s0,1.56,0,2.32a27.29,27.29,0,0,1-5.65.06,12.93,12.93,0,0,1-.1-2.82c0-1,0-2,0-3v-2.86c0-.94,0-1.89,0-2.89a4.66,4.66,0,0,0-.66-.1H160a4,4,0,0,0-.44.06,4.3,4.3,0,0,0-.12.68c0,.54,0,1.08,0,1.61v30.36c0,.45,0,.89,0,1.39a7.78,7.78,0,0,1-1.77.08c-.58,0-1.15,0-1.79,0,0-.4-.09-.72-.09-1,0-2.53,0-5.06,0-7.59,0-10.58-.07-21.16,0-31.72a35.28,35.28,0,0,1,12-26.76A34.4,34.4,0,0,1,186,143.06a35.68,35.68,0,0,1,39.1,22.78,35.16,35.16,0,0,1,2.32,10.52c.09,1.37.15,2.73.15,4.1q0,18.42,0,36.83c0,.51,0,1,0,1.61Zm-65.34,3.49a28.46,28.46,0,0,1,11.06-17.43c.05-.3-.21-.33-.34-.45a1.15,1.15,0,0,1-.33-1.54,2.2,2.2,0,0,1,1.08-1,3.88,3.88,0,0,1,2.91-.14,9.69,9.69,0,0,1,1,.41l2.58-1.15c.3.21.58.39.83.6s.42.37.71.63l-2.06,1.56c.56,1.09,1.13,2.13,1.63,3.2s.93,2.22,1.39,3.32a14.32,14.32,0,0,1,1.1,3.43c-.2.32-.4.63-.59.94a3.91,3.91,0,0,0,.78,5.37c.6.56,1.31,1,2.05,1.56.27,3.34.35,6.78.88,10.36a6.59,6.59,0,0,0,.71-2.58c0-.28,0-.58.09-.86a.91.91,0,0,1,.76-.73c.46-.09.76.1.77.55,0,.7,0,1.41,0,2.11,0,.37-.05.75,0,1.12a21.19,21.19,0,0,1-1.06,6.59,7.49,7.49,0,0,1-3.27,4.52l-4.71,3-1.27.83a25.72,25.72,0,0,0,.15,4.23c.15,1,.36,2,.49,3.07a3.09,3.09,0,0,1-1.26,2.94.83.83,0,0,1-1.41-.34c-.09-.19-.15-.39-.22-.58a60,60,0,0,1-3-12.3,86.09,86.09,0,0,1-.79-10.41c0-.62-.05-1.24-.09-1.9a4.7,4.7,0,0,0-.77-.09c-.66,0-1.32.05-2,.11a9.69,9.69,0,0,0-1,.16,2.74,2.74,0,0,0-2.3,2.94,6.62,6.62,0,0,0,.18,1.23q1.44,5.91,2.91,11.82c.1.4.22.8.3,1.2a1,1,0,0,1-.76,1.25,2.55,2.55,0,0,1-3.24-1.49c-1.44-4.54-3-9-4.47-13.57a10.47,10.47,0,0,1-.45-5.51,7.28,7.28,0,0,1,.34-1.19,3.86,3.86,0,0,1,2.76-2.47c2.75-.63,5.5-1.18,8.26-1.78a1.16,1.16,0,0,1,1.2.48,4.7,4.7,0,0,1,.88,1.77c.21.71.36,1.43.55,2.18.76.08,1.49.15,2.23.24a4.78,4.78,0,0,1,2,.67,1.09,1.09,0,0,1,.53,1.26c-.33,1.83-.64,3.67-.91,5.51a53.32,53.32,0,0,0-.48,7.94,2.93,2.93,0,0,0,.05.37,9.19,9.19,0,0,0,3.18-2.94l-.28-.46a1.19,1.19,0,0,1,0-1.39c.59-.94,1.16-1.91,1.75-2.87a2.33,2.33,0,0,0,.39-1.28,11.75,11.75,0,0,0-.33-3.33,6.65,6.65,0,0,0-2.22-3.43,2.46,2.46,0,0,1-2.1-.36,14.23,14.23,0,0,1-4.64-4.05,5.92,5.92,0,0,1-.45-.75,1.31,1.31,0,0,1,.06-1.4,18.23,18.23,0,0,1,3.64-4.39c.53-.46,1.09-.89,1.68-1.37.93-3.77-.4-6.94-2.73-9.91a2.25,2.25,0,0,0-.46.22,64,64,0,0,0-8.87,8.52,29.51,29.51,0,0,0-4.54,7.24.75.75,0,0,1,0,.24c-.2.58-.4,1.16-.61,1.73,0,0-.08,0-.15,0a4.48,4.48,0,0,1,.28-2.07Zm-22.16-74.21c2.34,0,4.44,0,6.56,0a4.3,4.3,0,0,0,.09-.61V135.65l-1.09-.19c0-.08-.12-.15-.1-.21.24-1,.48-2.09.75-3.13q2-7.77,4-15.52a2.36,2.36,0,0,1,.12-.3,1.49,1.49,0,0,1,.27.41q2.38,9.21,4.75,18.41a1.9,1.9,0,0,1,0,.32l-1,.16a37.38,37.38,0,0,0-.11,6.55c.36.23.52-.11.72-.28,2.66-2.31,5.31-4.64,8-7l14.14-12.36c.21-.19.45-.36.7-.58,1.59,1.24,2.94,2.7,4.56,4a22.42,22.42,0,0,0,1.85-1.48l1.82-1.5,1.91-1.59,1.82-1.51,1.78-1.45a.79.79,0,0,1,.19,0,.17.17,0,0,1,.11.05l8.56,7.86a21.94,21.94,0,0,0,2.57-2.13c.86-.71,1.69-1.46,2.58-2.23,1.39,1.12,2.67,2.3,4,3.43s2.56,2.24,3.84,3.36l3.93,3.44,3.84,3.36,3.93,3.44c1.28,1.11,2.52,2.24,3.82,3.31.12-.11.22-.15.22-.21a51.55,51.55,0,0,0-.09-6.47l-1.15-.15c1.63-6.34,3.24-12.64,4.9-18.92,0-.06.12-.09.25-.19,1.64,6.34,3.27,12.66,4.92,19.07l-1.14.21a.82.82,0,0,0-.13.31c0,1,0,1.91,0,2.86V148a6.73,6.73,0,0,0,.9.12h4.73c.27,0,.55,0,.81.05.09.37-.15.52-.29.7-.85,1.12-1.69,2.25-2.57,3.36a2,2,0,0,0-.5,1.49c0,.33,0,.66,0,1q0,27.87,0,55.74c0,3.94,0,7.88-.15,11.81a46.87,46.87,0,0,1-9,26.32,47.47,47.47,0,0,1-28.7,19,45.9,45.9,0,0,1-13.35,1A48,48,0,0,1,145,231.82a50.08,50.08,0,0,1-1.34-11.46c0-6.71,0-13.44,0-20.15V154.67a9.64,9.64,0,0,1,0-1,1.86,1.86,0,0,0-.46-1.37c-.9-1.14-1.77-2.3-2.64-3.46Z"/><path class="af25d246-4ef7-435c-83dd-02fb27d79760" d="M89.65,150c.39-1.67,1-3.13,1.43-4.61s1-2.9,1.44-4.4l-1.91-1.45-1.9-1.41-1.79-1.34c-.61-.46-1.24-.9-2-1.51a9.87,9.87,0,0,1,2.06-.1c.58,0,1.16,0,1.74,0h3.61a8.3,8.3,0,0,0,1.93-.09c1-2.81,1.8-5.7,2.87-8.68.64,1.52,1,3,1.46,4.37s.91,2.83,1.38,4.32c.34,0,.67.09,1,.09h8.15c.15.36-.12.43-.26.53l-6,4.49-1,.8c.32,1,.63,2,.94,3s.64,2,1,3a21.65,21.65,0,0,1,.92,3.13l-7.48-5.51a16.17,16.17,0,0,0-1.94,1.35c-.61.43-1.2.88-1.8,1.32l-1.9,1.41A18.76,18.76,0,0,1,89.65,150Z"/><path class="af25d246-4ef7-435c-83dd-02fb27d79760" d="M273.28,135.24a22.11,22.11,0,0,1,2.52-.07h4.6a12.26,12.26,0,0,0,2.29-.09c1-2.82,1.83-5.71,2.88-8.71.66,1.55,1,3,1.47,4.4s.9,2.84,1.33,4.18a1.64,1.64,0,0,0,1.17.21h8c.13.37-.14.43-.27.53l-6,4.49-1,.79c.88,3,1.94,5.9,2.65,9l-7.35-5.4c-.69.41-1.29.91-1.91,1.37l-1.8,1.32-1.9,1.41c-.59.43-1.17.9-2,1.4.39-1.67,1-3.09,1.42-4.53s1-2.91,1.43-4.34c-.1-.44-.48-.58-.77-.81-1.85-1.4-3.72-2.78-5.58-4.16C274.19,135.95,273.87,135.7,273.28,135.24Z"/><path class="d4ed5753-298e-4bc3-9eea-fc57717d164d" d="M148.07,96l-7.35,5.55c.35,1.58.94,3,1.4,4.53s.94,2.9,1.4,4.33c-.09.06-.11.09-.14.09a.2.2,0,0,1-.12,0l-7.26-5.3c-1.3.82-2.48,1.78-3.71,2.68l-3.76,2.76a1.55,1.55,0,0,1,.18-1.11c.73-2.28,1.49-4.56,2.24-6.84.1-.31.19-.63.31-1-.27-.24-.54-.49-.82-.7-2-1.51-4.05-3-6.07-4.54-.17-.13-.5-.18-.42-.62l1.79,0H133c.14-.33.27-.62.37-.92.75-2.28,1.48-4.57,2.22-6.85.09-.27.2-.54.34-.93a9.49,9.49,0,0,1,.77,2.09c.26.75.47,1.5.7,2.25s.46,1.42.68,2.13.46,1.41.7,2.16a27.27,27.27,0,0,0,3.13.06c1,0,2,0,3,0H148Z"/><path class="d4ed5753-298e-4bc3-9eea-fc57717d164d" d="M251.08,101.73c.46,1.43,1,2.92,1.43,4.42s1,2.86,1.39,4.56l-7.53-5.54a22.58,22.58,0,0,0-1.91,1.36l-1.8,1.33-1.91,1.4-1.93,1.42a17.62,17.62,0,0,1,.88-3.07c.29-1,.64-2,1-3l1-3a25.49,25.49,0,0,0-2.46-1.93c-.82-.64-1.66-1.24-2.49-1.86l-2.45-1.84c.12-.37.36-.27.54-.27h7.34c.41,0,.82,0,1.3,0,1-2.83,1.84-5.68,2.77-8.47.27-.06.32.1.37.27l2.24,7.11c.11.35.23.7.36,1.06a8.31,8.31,0,0,0,1.89.09c.62,0,1.24,0,1.86,0h3.61c.6,0,1.21,0,1.79,0a.91.91,0,0,1,0,.21.22.22,0,0,1-.05.11l-.29.24-6.75,5.09a.27.27,0,0,0-.08.09A.73.73,0,0,0,251.08,101.73Z"/><path class="af25d246-4ef7-435c-83dd-02fb27d79760" d="M94.29,243.31c1-2.94,1.87-5.78,2.85-8.77A40.87,40.87,0,0,1,98.66,239c.48,1.41.9,2.83,1.37,4.32h9.44c-1.32,1.2-2.59,2-3.79,3s-2.44,1.85-3.71,2.81a8.07,8.07,0,0,0,.18.84l2.4,7.44c.06.19.11.39.16.54s-.08.13-.1.14a.2.2,0,0,1-.12,0l-7.26-5.3c-1.31.82-2.49,1.79-3.73,2.69s-2.46,1.8-3.88,2.85c.42-1.73,1-3.19,1.46-4.67s1-2.91,1.45-4.43c-1.24-1-2.52-1.9-3.78-2.84l-3.67-2.75c.09-.34.34-.24.52-.24h8.68Z"/><path class="af25d246-4ef7-435c-83dd-02fb27d79760" d="M273.66,243.29h9c1-2.84,1.85-5.74,2.86-8.7a13.66,13.66,0,0,1,1,2.88c.34,1,.62,2,.94,3s.61,1.88.92,2.85h9.11c.15.32-.06.42-.21.53l-6,4.49-1,.81c.35,1.54.94,3,1.39,4.49s.94,2.9,1.39,4.32c-.1.07-.13.1-.15.1l-.12,0-.21-.13-6.81-5-.11-.06-.24,0L283,254.53c-.8.59-1.6,1.19-2.4,1.77a26.85,26.85,0,0,1-2.65,1.86c.93-3.13,2-6,2.9-9-.35-.27-.67-.54-1-.78l-6-4.46C273.77,243.76,273.44,243.68,273.66,243.29Z"/><path class="af25d246-4ef7-435c-83dd-02fb27d79760" d="M300,180.4c1.09,3.07,1.87,6,2.88,8.86h9.11c.15.4-.18.46-.34.59l-5.86,4.41c-.33.25-.64.51-1,.8.33,1.56.93,3,1.39,4.51s.94,2.9,1.41,4.33c-.09.06-.12.09-.15.09a.21.21,0,0,1-.12,0l-.31-.21-6.82-5s-.08,0-.21-.06c-1.22.8-2.41,1.75-3.65,2.65l-3.87,2.85c.42-1.73,1-3.18,1.46-4.65s.94-2.91,1.42-4.38a19.17,19.17,0,0,0-2.46-1.94c-.82-.64-1.66-1.24-2.49-1.86l-2.45-1.83c0-.12,0-.17.07-.2a.16.16,0,0,1,.11,0l.37,0,8.33,0,.12,0,.21-.07Z"/><path class="af25d246-4ef7-435c-83dd-02fb27d79760" d="M71.46,189.28h9c.13-.3.27-.58.38-.88.75-2.28,1.48-4.57,2.22-6.85.09-.3.23-.58.41-1,1.06,3,1.84,5.92,2.84,8.78h9.14c.07.39-.21.46-.39.59l-5.76,4.34-1.12.88c.88,3,1.94,5.91,2.88,9A18.68,18.68,0,0,1,89,202.72c-.61-.43-1.2-.88-1.8-1.33l-1.9-1.4-1.85-1.35c-1.27.94-2.5,1.85-3.73,2.74s-2.42,1.85-3.87,2.81c.94-3.16,2-6.07,2.93-9.08-1.25-1-2.54-1.91-3.79-2.86A25.71,25.71,0,0,1,71.46,189.28Z"/><path class="af25d246-4ef7-435c-83dd-02fb27d79760" d="M196.42,303.61l2.93,9.07a21.71,21.71,0,0,1-2.08-1.45c-.61-.43-1.2-.88-1.8-1.33l-1.9-1.4-1.85-1.36-7.62,5.6c.94-3.21,2-6.1,2.92-9.14-1.24-1-2.52-1.9-3.77-2.85s-2.46-1.79-3.76-2.85a3.62,3.62,0,0,1,1.2-.1h8.09c1-2.9,1.84-5.8,2.92-8.83,1.11,3,1.85,6,2.88,8.83h9.13c.08.39-.21.46-.39.59l-5.76,4.34Z"/><path class="af25d246-4ef7-435c-83dd-02fb27d79760" d="M203.78,81l-7.3,5.5c.08.33.12.64.22,1l2.22,6.85c.12.38.22.77.39,1.37-2.66-1.92-5.1-3.78-7.6-5.58l-7.35,5.41c-.29-.21-.1-.39-.05-.55.79-2.44,1.59-4.89,2.39-7.32l.32-1a7.9,7.9,0,0,0-.62-.58l-5.68-4.24L179.65,81c.06-.34.31-.25.48-.25h8.62c.14-.33.27-.63.37-.94l2.19-6.73c.1-.31.22-.62.39-1.09.17.42.31.7.4,1,.75,2.33,1.48,4.66,2.22,7,.08.23.17.46.29.76,1,0,2.05,0,3.08,0h6.05C203.76,80.86,203.77,80.94,203.78,81Z"/><path class="af25d246-4ef7-435c-83dd-02fb27d79760" d="M143.37,297.9,136,292.49a17.39,17.39,0,0,0-1.91,1.34c-.61.43-1.2.88-1.8,1.32l-1.9,1.41-1.79,1.31c-.28-.21-.1-.39-.05-.55.79-2.44,1.59-4.89,2.39-7.32.1-.32.2-.64.32-1-.21-.19-.39-.4-.62-.58L125,284.17l-1.07-.82c.07-.33.32-.24.5-.24H133c.14-.34.27-.64.37-.94.75-2.28,1.48-4.57,2.22-6.85.09-.27.2-.53.36-1,.17.43.31.7.4,1q1.09,3.43,2.17,6.87c.09.27.2.54.33.88,1,.05,2.07,0,3.1,0h6.25a7,7,0,0,1-1.26,1.06l-1.29,1-1.19.9-1.19.89-1.29,1-1.23.94a8.54,8.54,0,0,0,.21,1l2.22,6.85c.11.35.22.7.33,1.06A.87.87,0,0,0,143.37,297.9Z"/><path class="af25d246-4ef7-435c-83dd-02fb27d79760" d="M258.28,283.1a22.72,22.72,0,0,1-3.49,3l-3.71,2.8c.11.42.21.82.33,1.19.76,2.33,1.51,4.64,2.26,7a7.62,7.62,0,0,1,.15.87c-1-.63-1.75-1.25-2.55-1.83l-2.51-1.85-2.45-1.79-2.44,1.79-2.51,1.85a23,23,0,0,1-2.57,1.79c.35-1.64.94-3,1.39-4.5s.94-2.91,1.43-4.39a18.6,18.6,0,0,0-2.45-1.93c-.82-.64-1.66-1.24-2.49-1.86l-2.46-1.83c.14-.34.38-.26.56-.26h7.34c.4,0,.82,0,1.29,0l2.75-8.47c.3,0,.33.14.38.28.74,2.33,1.47,4.66,2.21,7,.12.39.26.77.41,1.22,1.55.06,3.08,0,4.61,0Z"/><path class="3ee66770-237b-45c5-a326-200e8c188e9f" d="M348.82,227.27c2.46.53,4.71,1.13,7,1.71a8.9,8.9,0,0,1-1,3.62,2.79,2.79,0,0,1-2.72,1.4,6.32,6.32,0,0,1-2.16-.54,2.89,2.89,0,0,1-1.79-2.74,2.47,2.47,0,0,1,0-.62C348.38,229.21,348.58,228.32,348.82,227.27Z"/><path class="3ee66770-237b-45c5-a326-200e8c188e9f" d="M359.34,229.85l5.88,1.48a6.63,6.63,0,0,1-1.09,3.77,2.11,2.11,0,0,1-1.49.8,4.9,4.9,0,0,1-2.3-.36,2.47,2.47,0,0,1-1.67-2.27A8.07,8.07,0,0,1,359.34,229.85Z"/><path class="975ae164-b34b-4a38-8d54-a70a8a2b5011" d="M40.73,251.41c-2.31,1-4.51,1.78-6.75,2.63a10.57,10.57,0,0,1-1.12-2.93,2.89,2.89,0,0,1,1.67-3.5,5.2,5.2,0,0,1,2.37-.66,2.53,2.53,0,0,1,2.09.9,4.29,4.29,0,0,1,.7,1C40,249.64,40.34,250.46,40.73,251.41Z"/><path class="3ee66770-237b-45c5-a326-200e8c188e9f" d="M30.61,255.34l-5.7,2.2a2.89,2.89,0,0,1-.37-.61c-.27-.78-.55-1.55-.76-2.35A2.36,2.36,0,0,1,25,251.87a5.09,5.09,0,0,1,1.85-.65,2.4,2.4,0,0,1,2.46,1.09,9.79,9.79,0,0,1,.76,1.42A4.2,4.2,0,0,1,30.61,255.34Z"/><path class="3ee66770-237b-45c5-a326-200e8c188e9f" d="M178.14,31c-.26-2.43-.36-4.77-.53-7.15a10.23,10.23,0,0,1,3.19-.24,2.88,2.88,0,0,1,2.77,2.56,8.93,8.93,0,0,1,.07,2A2.59,2.59,0,0,1,182,30.45a3.85,3.85,0,0,1-.82.29A10.19,10.19,0,0,1,178.14,31Z"/><path class="3ee66770-237b-45c5-a326-200e8c188e9f" d="M177.47,20.24a41.34,41.34,0,0,1-.42-6.25,9.45,9.45,0,0,1,3.3-.09,2.21,2.21,0,0,1,1.92,1.86,8.7,8.7,0,0,1,.09,2.22A2.08,2.08,0,0,1,181,19.75,7.28,7.28,0,0,1,177.47,20.24Z"/><path class="3ee66770-237b-45c5-a326-200e8c188e9f" d="M29.79,142.83c.3-.88.57-1.75.88-2.59a3.55,3.55,0,0,1,.5-.85,2.63,2.63,0,0,1,2.33-1.16,5.55,5.55,0,0,1,2.91.92,2.49,2.49,0,0,1,1.19,2.06,5.84,5.84,0,0,1,0,.87,10.58,10.58,0,0,1-.94,3.12l-6.39-2.09A5,5,0,0,1,29.79,142.83Z"/><path class="3ee66770-237b-45c5-a326-200e8c188e9f" d="M26.47,141.87,20.64,140a7.29,7.29,0,0,1,1.23-3.51,2.27,2.27,0,0,1,2.08-.88,5.1,5.1,0,0,1,2.22.74,2.35,2.35,0,0,1,1.17,2.06A9,9,0,0,1,26.47,141.87Z"/><path class="3ee66770-237b-45c5-a326-200e8c188e9f" d="M20.92,214.13l-6.41.78a2.72,2.72,0,0,1-.53-.06,23.62,23.62,0,0,1-.33-3A2.75,2.75,0,0,1,16,209a8.35,8.35,0,0,1,1.85-.1,2.57,2.57,0,0,1,2.49,1.9,11.72,11.72,0,0,1,.39,1.81C20.84,213.06,20.86,213.51,20.92,214.13Z"/><path class="3ee66770-237b-45c5-a326-200e8c188e9f" d="M147.18,26.08c-.58-2.33-1.11-4.48-1.67-6.71a6.11,6.11,0,0,1,.71-.28c.56-.15,1.12-.3,1.68-.41a6.82,6.82,0,0,1,1.11-.11,2.54,2.54,0,0,1,2.46,1.55,5.53,5.53,0,0,1,.56,2.52A2.69,2.69,0,0,1,150.69,25a3,3,0,0,1-.43.24c-.43.15-.86.31-1.29.42S147.86,25.93,147.18,26.08Z"/><path class="3ee66770-237b-45c5-a326-200e8c188e9f" d="M347,120.63a46.14,46.14,0,0,1,6.38-2.79,11.83,11.83,0,0,1,1.31,3.15,2.5,2.5,0,0,1-.87,2.56,5.26,5.26,0,0,1-2.93,1.23,2.38,2.38,0,0,1-1.93-.68,4.15,4.15,0,0,1-.84-1.06C347.78,122.28,347.44,121.48,347,120.63Z"/><path class="b10365d0-2e69-42e0-a137-4994997b1b57" d="M255.7,25.47c.82.34,1.56.62,2.27.94a3.23,3.23,0,0,1,2,3.37,9.37,9.37,0,0,1-.34,1.95,40.13,40.13,0,0,1-3.1,7.7,14.11,14.11,0,0,1-1.31,2,3,3,0,0,1-3.47,1c-.82-.26-1.61-.64-2.34-.93-.05-.13-.07-.16-.08-.2s0-.09,0-.12L255.4,26C255.47,25.87,255.56,25.73,255.7,25.47Z"/><path class="b10365d0-2e69-42e0-a137-4994997b1b57" d="M331.62,110.94a2.42,2.42,0,0,1-2.24-1.24,2.63,2.63,0,0,1,.18-3.52,11.85,11.85,0,0,1,1.25-1.2,15.88,15.88,0,0,1,1.29-1,62,62,0,0,1,6.48-3.9,12,12,0,0,1,3.24-1.24,2.54,2.54,0,0,1,2.86,1.24,2.6,2.6,0,0,1,0,3.13,5.49,5.49,0,0,1-1.09,1.18,43.81,43.81,0,0,1-10.05,6.09A4.67,4.67,0,0,1,331.62,110.94Z"/><path class="3ee66770-237b-45c5-a326-200e8c188e9f" d="M203.63,364.56a18,18,0,0,1-.38,2.05,2.6,2.6,0,0,1-4.68.29,7.5,7.5,0,0,1-.35-5.32,2.23,2.23,0,0,1,2.25-1.61,2.29,2.29,0,0,1,2.44,1.32A8.68,8.68,0,0,1,203.63,364.56Z"/><path class="3ee66770-237b-45c5-a326-200e8c188e9f" d="M202.39,353.42c-.06.64-.05,1.06-.14,1.46a2.21,2.21,0,0,1-2,1.86,2.12,2.12,0,0,1-2.22-1.45,5.55,5.55,0,0,1-.27-3.54,2.05,2.05,0,0,1,2-1.7,2,2,0,0,1,2.28,1.51A11.1,11.1,0,0,1,202.39,353.42Z"/><path class="3ee66770-237b-45c5-a326-200e8c188e9f" d="M179.34,355.63c.12-1,.21-1.87.33-2.73a7.68,7.68,0,0,1,.27-1.08,2.41,2.41,0,0,1,3.51-1.42,2.12,2.12,0,0,1,1.17,1.52,8,8,0,0,1,.22,2.58,10.93,10.93,0,0,1-.58,3.41,2.27,2.27,0,0,1-2.64,1.55,2.12,2.12,0,0,1-1.95-1.65C179.48,357.06,179.43,356.28,179.34,355.63Z"/><path class="623e4b31-2671-429e-8e61-c350aefb153a" d="M96,67.09c.05.06.16.15.15.16a1.52,1.52,0,0,1-1,.77s-.09-.12-.14-.18A1.2,1.2,0,0,1,96,67.09Z"/><path class="ed00ce84-fea6-403e-a510-c678fb57586c" d="M15.2,168.44c2.62-.34,9.58-.82,10.66-.73a15.85,15.85,0,0,1-.59,4.46C24.24,172,16.33,169,15.2,168.44Z"/><path class="975ae164-b34b-4a38-8d54-a70a8a2b5011" d="M214.63,352.19c0-.58,0-1.3.12-2a2,2,0,0,1,2.22-1.9,1.8,1.8,0,0,1,1.75,1,7.52,7.52,0,0,1,.75,1.83c.37,1.61.69,3.23,1,4.86.25,1.43.48,2.86.63,4.29.13,1.19.15,2.39.18,3.59a3.45,3.45,0,0,1-.13,1,2,2,0,0,1-2,1.6,1.9,1.9,0,0,1-2-1.12,7.4,7.4,0,0,1-.63-1.61q-.53-2.29-.94-4.61c-.26-1.47-.47-2.94-.67-4.41C214.75,353.87,214.7,353.09,214.63,352.19Z"/><path class="3ee66770-237b-45c5-a326-200e8c188e9f" d="M325.08,85.69l5.81-4.4A9,9,0,0,1,332.84,84a2.54,2.54,0,0,1-.25,2.49,5.35,5.35,0,0,1-2.81,2.16,2.73,2.73,0,0,1-3-.71A18.1,18.1,0,0,1,325.08,85.69Z"/><path class="e758bea7-4f8d-41eb-9898-908b7de960f6" d="M166.54,171.84a38.22,38.22,0,0,0-2.17,6.49,14.48,14.48,0,0,0,3.79-.07,37.57,37.57,0,0,0,2.13-6.47c-1.24,0-2.47,0-3.74.05Zm46.38-.06c.82,2.32,1.51,4.46,2.31,6.53a12.23,12.23,0,0,0,3.95-.07c-.75-2.14-1.44-4.28-2.27-6.42l-2.78,0Zm-28.78.05c-.17.36-.33.7-.48,1-.42,1-.84,2-1.25,3a1.69,1.69,0,0,1-.44.7c-.8-1.59-1.31-3.21-2.11-4.75h-3.54c-.09,0-.2.09-.35.18.75,2.13,1.48,4.23,2.21,6.3a57.51,57.51,0,0,0,7.71,0c.7-2,1.4-4.11,2.1-6.19a.2.2,0,0,0,0-.12s-.05-.05-.11-.1Zm19.4,0c-.83,1.61-1.3,3.23-2.16,4.77-.84-1.61-1.32-3.25-2.11-4.71a10.61,10.61,0,0,0-3.91.1c.36,1.06.71,2.11,1.1,3.16a23.84,23.84,0,0,0,1.18,3.19,68.15,68.15,0,0,0,7.59-.05c.36-1,.74-2.08,1.09-3.13a21.12,21.12,0,0,0,1.06-3.34c-1.33,0-2.56,0-3.84,0Zm-34.81-7.71h1l44.78,0a.21.21,0,0,0,.12,0s.05-.05.08-.09c-.36-3.43-3.56-8.77-7.27-12a23.76,23.76,0,0,0-31.95.51c-3.43,3.2-6.48,8.5-6.71,11.64Zm58.84,54.78h-3.46c-.29-.36-.18-.75-.18-1.11q0-5.72,0-11.45V184.87a2.64,2.64,0,0,0-.61-.14H208.64a1.61,1.61,0,0,0-.35.08c-.29.33-.18.72-.18,1.08,0,3,0,6.05,0,9.08v1.4a11.34,11.34,0,0,1-2.88.13c-.9,0-1.81,0-2.65,0a1.51,1.51,0,0,1-.22-1.16c0-3.07,0-6.14,0-9.2v-1.24a2.43,2.43,0,0,0-1.39-.17H182c-.28,0-.56,0-.91,0a20.76,20.76,0,0,0-.06,2.4c0,.75,0,1.49,0,2.24v2.36c0,.75,0,1.49,0,2.24s0,1.56,0,2.32a27.29,27.29,0,0,1-5.65.06,12.93,12.93,0,0,1-.1-2.82c0-1,0-2,0-3v-2.86c0-.94,0-1.89,0-2.89a4.66,4.66,0,0,0-.66-.1H160a4,4,0,0,0-.44.06,4.3,4.3,0,0,0-.12.68c0,.54,0,1.08,0,1.61v30.36c0,.45,0,.89,0,1.39a7.78,7.78,0,0,1-1.77.08c-.58,0-1.15,0-1.79,0,0-.4-.09-.72-.09-1,0-2.53,0-5.06,0-7.59,0-10.58-.07-21.16,0-31.72a35.28,35.28,0,0,1,12-26.76A34.4,34.4,0,0,1,186,143.06a35.68,35.68,0,0,1,39.1,22.78,35.16,35.16,0,0,1,2.32,10.52c.09,1.37.15,2.73.15,4.1q0,18.42,0,36.83C227.62,217.78,227.6,218.27,227.58,218.88Z"/><path class="611bc994-9735-405d-839b-71e72bdc6d39" d="M162.24,222.37a28.46,28.46,0,0,1,11.06-17.43c.05-.3-.21-.33-.34-.45a1.15,1.15,0,0,1-.33-1.54,2.2,2.2,0,0,1,1.08-1,3.88,3.88,0,0,1,2.91-.14,9.69,9.69,0,0,1,1,.41l2.58-1.15c.3.21.58.39.83.6s.42.37.71.63l-2.06,1.56c.56,1.09,1.13,2.13,1.63,3.2s.92,2.22,1.39,3.32a14.32,14.32,0,0,1,1.1,3.43c-.2.32-.4.63-.59.94a3.91,3.91,0,0,0,.78,5.37c.6.56,1.31,1,2.05,1.56.27,3.34.35,6.78.88,10.36a6.59,6.59,0,0,0,.71-2.58c0-.28,0-.58.09-.86a.91.91,0,0,1,.76-.73c.46-.09.76.1.77.55,0,.7,0,1.41,0,2.11,0,.37-.05.75,0,1.12a21.19,21.19,0,0,1-1.06,6.59,7.49,7.49,0,0,1-3.27,4.52l-4.71,3-1.27.83a25.72,25.72,0,0,0,.15,4.23c.15,1,.36,2,.49,3.07a3.09,3.09,0,0,1-1.26,2.94.83.83,0,0,1-1.41-.34c-.09-.19-.15-.39-.22-.58a60,60,0,0,1-3-12.3,86.09,86.09,0,0,1-.79-10.41c0-.62-.05-1.24-.09-1.9a4.7,4.7,0,0,0-.77-.09c-.66,0-1.32.05-2,.11a9.69,9.69,0,0,0-1,.16,2.74,2.74,0,0,0-2.3,2.94,6.62,6.62,0,0,0,.18,1.23q1.44,5.91,2.91,11.82c.1.4.22.8.3,1.2a1,1,0,0,1-.76,1.25,2.55,2.55,0,0,1-3.24-1.49c-1.44-4.54-3-9-4.47-13.57a10.47,10.47,0,0,1-.45-5.51,7.28,7.28,0,0,1,.34-1.19,3.86,3.86,0,0,1,2.76-2.47c2.75-.63,5.5-1.18,8.26-1.78a1.16,1.16,0,0,1,1.2.48,4.7,4.7,0,0,1,.88,1.77c.21.71.36,1.43.55,2.18.76.08,1.49.15,2.23.24a4.78,4.78,0,0,1,2,.67,1.09,1.09,0,0,1,.53,1.26c-.33,1.83-.64,3.67-.91,5.51a53.32,53.32,0,0,0-.48,7.94,2.93,2.93,0,0,0,.05.37,9.19,9.19,0,0,0,3.18-2.94l-.28-.46a1.19,1.19,0,0,1,0-1.39c.59-.94,1.16-1.91,1.75-2.87a2.33,2.33,0,0,0,.39-1.28,11.75,11.75,0,0,0-.33-3.33,6.65,6.65,0,0,0-2.22-3.43,2.46,2.46,0,0,1-2.1-.36,14.23,14.23,0,0,1-4.64-4.05,5.92,5.92,0,0,1-.45-.75,1.31,1.31,0,0,1,.06-1.4,18.23,18.23,0,0,1,3.64-4.39c.53-.46,1.09-.89,1.68-1.37.93-3.77-.4-6.94-2.73-9.91a2.25,2.25,0,0,0-.46.22,64,64,0,0,0-8.87,8.52,29.51,29.51,0,0,0-4.54,7.24A1.84,1.84,0,0,0,162.24,222.37Z"/><path class="611bc994-9735-405d-839b-71e72bdc6d39" d="M204.73,246.76l-1.37-.9c-1.33-.84-2.67-1.67-4-2.52-.52-.33-1-.7-1.52-1.07a6.12,6.12,0,0,1-2.23-3.07c-.33-1-.56-2.08-.88-3.11a11.93,11.93,0,0,1-.44-4c0-.91,0-1.82.08-2.74a3.14,3.14,0,0,1,.09-.86.79.79,0,0,1,.39-.42.5.5,0,0,1,.64.22,3.18,3.18,0,0,1,.27.94c.12.7.21,1.39.33,2.09a9,9,0,0,0,.33,1,39.4,39.4,0,0,0,.6-5.34c.14-1.69.22-3.39.34-5.16.23-.16.51-.34.76-.54a17.49,17.49,0,0,0,1.63-1.33,3.79,3.79,0,0,0,.64-4.69c-.22-.44-.51-.85-.76-1.26.34-2.08,2.1-6.34,4.1-9.91-.53-.65-1.37-1-2-1.64a5.35,5.35,0,0,1,1.42-1.19c.7.21,1.36.44,2,.64a2.29,2.29,0,0,0,1.68-.08,3,3,0,0,1,2.76.19,3.13,3.13,0,0,1,1,.88c.49.67.35,1.24-.33,1.81-.09.08-.18.17-.33.31a28.85,28.85,0,0,1,8.91,10.71,26.16,26.16,0,0,1,2.48,8.45,6.55,6.55,0,0,1-.37-.7,25.17,25.17,0,0,0-4.52-7.68,54.45,54.45,0,0,0-9.68-8.91.86.86,0,0,0-.22-.09c-2.17,1.88-3.28,6.17-2.49,9.67.6.5,1.22,1,1.8,1.51a17.75,17.75,0,0,1,3.46,4.21,1.38,1.38,0,0,1,0,1.51,6,6,0,0,1-.54.83,13.15,13.15,0,0,1-4.18,3.47,3.31,3.31,0,0,1-2.9.35,10.07,10.07,0,0,0-2,5c0,.21,0,.41-.05.62-.12,2-.12,2,.92,3.73.36.6.71,1.22,1.1,1.8a1.3,1.3,0,0,1,0,1.71,1.51,1.51,0,0,0-.16.35,20,20,0,0,0,3,3c.33-.09.27-.33.27-.52a57.2,57.2,0,0,0-.7-9.54c-.21-1.27-.45-2.53-.67-3.79a1.06,1.06,0,0,1,.58-1.35,5,5,0,0,1,2-.64l2.16-.21c.1-.43.21-.86.3-1.3a7.2,7.2,0,0,1,.88-2.31,1.44,1.44,0,0,1,1.76-.76q3.68.86,7.41,1.57a4.39,4.39,0,0,1,3.67,4,12.19,12.19,0,0,1-.64,5.87c-1.07,3.27-2.16,6.53-3.25,9.79-.35,1.06-.79,2.1-1,3.19a2.48,2.48,0,0,1-3.19,1.57,1.06,1.06,0,0,1-.76-1.45c.32-1.33.68-2.64,1-4,.74-3,1.47-6,2.22-9a4,4,0,0,0,.07-1.85,2.64,2.64,0,0,0-1.93-2.07,12.32,12.32,0,0,0-4-.24,8.14,8.14,0,0,0-.1.82c0,1.16,0,2.32-.09,3.49a69.05,69.05,0,0,1-3.5,19.76,10.84,10.84,0,0,1-.5,1.27.75.75,0,0,1-1.15.31,3.2,3.2,0,0,1-1.44-3.08c.16-1,.38-2,.52-3.07s.22-1.89.31-2.84C204.76,247.63,204.73,247.27,204.73,246.76Z"/><path class="9b6e92e6-1f05-4f7b-9590-e7d30b1286f5" d="M154.27,167.32v-11.8c.64-.73,36.3-32.36,37.4-33.17h.12a.22.22,0,0,1,.11.05l36.59,32.4.64.59v12.05a2.3,2.3,0,0,1-.49-1,39,39,0,0,0-29.6-26.11,38.77,38.77,0,0,0-44,25.42c-.19.53-.37,1.06-.56,1.61Z"/><path class="c8abd086-fd08-425a-a0d2-587cb02feac1" d="M154.27,151.11v-4.49c.63-.73,22.33-19.76,23.59-20.68a31.22,31.22,0,0,1,2.64,2.3.73.73,0,0,1,0,.19.27.27,0,0,1-.07.1L154.71,151a.87.87,0,0,1-.21.12S154.43,151.15,154.27,151.11Z"/><path class="c8abd086-fd08-425a-a0d2-587cb02feac1" d="M229.14,151.26a2.73,2.73,0,0,1-.46-.23l-25.83-22.56a11.71,11.71,0,0,1,2.84-2.5l23.45,20.51Z"/><path class="611bc994-9735-405d-839b-71e72bdc6d39" d="M191.71,190.93,189.86,192,188,193.09l-1.92,1.14-1.82,1.07a13.46,13.46,0,0,1-1.93,1,40.58,40.58,0,0,1-.08-4.06l9.41-5.57c3.15,1.85,6.28,3.69,9.41,5.58,0,1.3,0,2.53,0,3.78,0,.06-.09.12-.18.26-1.55-.83-3-1.79-4.58-2.67S193.27,191.86,191.71,190.93Z"/><path class="611bc994-9735-405d-839b-71e72bdc6d39" d="M191.12,216.93a3.87,3.87,0,0,1-3.86,3.86,3.89,3.89,0,1,1,3.86-3.86Z"/><path class="611bc994-9735-405d-839b-71e72bdc6d39" d="M192.29,216.89a3.8,3.8,0,0,1,3.86-3.86,3.87,3.87,0,0,1,3.85,3.89,3.82,3.82,0,0,1-3.89,3.85A3.75,3.75,0,0,1,192.29,216.89Z"/><path class="c60f5fa1-30d4-4095-a6e8-48e5a94478ff" d="M162.24,222.37h.47a.75.75,0,0,1,0,.24c-.2.58-.4,1.16-.61,1.73,0,0-.08,0-.15,0A4.48,4.48,0,0,1,162.24,222.37Z"/><path class="9fc7b3ca-4169-4fb8-8292-3486db98dd1c" d="M168.74,164.1c.21-3.14,3.28-8.45,6.71-11.63A23.76,23.76,0,0,1,207.4,152c3.7,3.23,6.9,8.57,7.27,12,0,0,0,.07-.08.09a.21.21,0,0,1-.12,0l-44.78,0Z"/><path class="af25d246-4ef7-435c-83dd-02fb27d79760" d="M203.55,171.81c1.28,0,2.52-.05,3.85,0a21.11,21.11,0,0,1-1.06,3.34c-.35,1.06-.74,2.1-1.09,3.13a68.12,68.12,0,0,1-7.59.05,23.84,23.84,0,0,1-1.18-3.19c-.39-1-.73-2.1-1.1-3.16a10.61,10.61,0,0,1,3.91-.1c.78,1.45,1.26,3.09,2.11,4.71C202.25,175,202.72,173.42,203.55,171.81Z"/><path class="af25d246-4ef7-435c-83dd-02fb27d79760" d="M184.15,171.83h3.72c.06.05.09.07.11.1a.2.2,0,0,1,0,.12c-.7,2.08-1.41,4.16-2.1,6.19a57.51,57.51,0,0,1-7.71,0L176,172c.15-.09.25-.18.35-.18h3.54c.8,1.54,1.31,3.16,2.11,4.75a1.6,1.6,0,0,0,.44-.7c.41-1,.83-2,1.25-3C183.8,172.52,184,172.19,184.15,171.83Z"/><path class="d4ed5753-298e-4bc3-9eea-fc57717d164d" d="M212.93,171.78h1.21l2.78,0c.82,2.15,1.52,4.29,2.27,6.42a12.48,12.48,0,0,1-3.95.07C214.44,176.24,213.75,174.1,212.93,171.78Z"/><path class="d4ed5753-298e-4bc3-9eea-fc57717d164d" d="M166.54,171.84c1.27-.07,2.5-.06,3.73-.05a36.83,36.83,0,0,1-2.13,6.47,14.47,14.47,0,0,1-3.79.07A38.38,38.38,0,0,1,166.54,171.84Z"/><text class="87c144b1-17ae-4597-b678-cd2420cbef71" transform="translate(411.72 193.18)">BURSA BYKEHR</text><text class="c74589ec-8450-4b43-bf7b-53ad98651f62" transform="translate(412.72 276.47)">BELEDYE SPOR KULB</text></svg>